<svg width="20" height="20" viewBox="0 0 20 20" fill="none" xmlns="http://www.w3.org/2000/svg">
<path d="M15 8.95866C14.6583 8.95866 14.375 8.67533 14.375 8.33366V6.66699C14.375 4.04199 13.6333 2.29199 10 2.29199C6.36667 2.29199 5.625 4.04199 5.625 6.66699V8.33366C5.625 8.67533 5.34167 8.95866 5 8.95866C4.65833 8.95866 4.375 8.67533 4.375 8.33366V6.66699C4.375 4.25033 4.95833 1.04199 10 1.04199C15.0417 1.04199 15.625 4.25033 15.625 6.66699V8.33366C15.625 8.67533 15.3417 8.95866 15 8.95866Z" fill="#333333"/>
<path d="M10.0004 16.0417C8.50874 16.0417 7.29207 14.825 7.29207 13.3333C7.29207 11.8417 8.50874 10.625 10.0004 10.625C11.4921 10.625 12.7087 11.8417 12.7087 13.3333C12.7087 14.825 11.4921 16.0417 10.0004 16.0417ZM10.0004 11.875C9.2004 11.875 8.54207 12.5333 8.54207 13.3333C8.54207 14.1333 9.2004 14.7917 10.0004 14.7917C10.8004 14.7917 11.4587 14.1333 11.4587 13.3333C11.4587 12.5333 10.8004 11.875 10.0004 11.875Z" fill="#333333"/>
<path d="M14.1671 18.958H5.83373C2.15874 18.958 1.04207 17.8413 1.04207 14.1663V12.4997C1.04207 8.82467 2.15874 7.70801 5.83373 7.70801H14.1671C17.8421 7.70801 18.9587 8.82467 18.9587 12.4997V14.1663C18.9587 17.8413 17.8421 18.958 14.1671 18.958ZM5.83373 8.95801C2.8504 8.95801 2.29207 9.52467 2.29207 12.4997V14.1663C2.29207 17.1413 2.8504 17.708 5.83373 17.708H14.1671C17.1504 17.708 17.7087 17.1413 17.7087 14.1663V12.4997C17.7087 9.52467 17.1504 8.95801 14.1671 8.95801H5.83373Z" fill="#333333"/>
</svg>
