<svg width="20" height="20" viewBox="0 0 20 20" fill="none" xmlns="http://www.w3.org/2000/svg">
<path d="M15.9336 7.59976C15.6086 7.59976 15.3503 7.8581 15.3503 8.1831V9.49976C15.3503 12.4498 12.9503 14.8498 10.0003 14.8498C7.05031 14.8498 4.65031 12.4498 4.65031 9.49976V8.17476C4.65031 7.84976 4.39198 7.59143 4.06698 7.59143C3.74198 7.59143 3.48364 7.84976 3.48364 8.17476V9.49143C3.48364 12.8831 6.09198 15.6748 9.41698 15.9748V17.7498C9.41698 18.0748 9.67531 18.3331 10.0003 18.3331C10.3253 18.3331 10.5836 18.0748 10.5836 17.7498V15.9748C13.9003 15.6831 16.517 12.8831 16.517 9.49143V8.17476C16.5086 7.8581 16.2503 7.59976 15.9336 7.59976Z" fill="#333333"/>
<path d="M9.99986 1.6666C7.96653 1.6666 6.31653 3.3166 6.31653 5.34993V9.6166C6.31653 11.6499 7.96653 13.2999 9.99986 13.2999C12.0332 13.2999 13.6832 11.6499 13.6832 9.6166V5.34993C13.6832 3.3166 12.0332 1.6666 9.99986 1.6666ZM11.0915 7.45826C11.0332 7.67493 10.8415 7.8166 10.6249 7.8166C10.5832 7.8166 10.5415 7.80826 10.4999 7.79993C10.1749 7.70826 9.83319 7.70826 9.50819 7.79993C9.24153 7.87493 8.98319 7.7166 8.91653 7.45826C8.84153 7.19993 8.99986 6.93326 9.25819 6.8666C9.74986 6.73326 10.2665 6.73326 10.7582 6.8666C11.0082 6.93326 11.1582 7.19993 11.0915 7.45826ZM11.5332 5.8416C11.4582 6.0416 11.2749 6.15826 11.0749 6.15826C11.0165 6.15826 10.9665 6.14993 10.9082 6.13326C10.3249 5.9166 9.67486 5.9166 9.09153 6.13326C8.84153 6.22493 8.55819 6.0916 8.46653 5.8416C8.37486 5.5916 8.5082 5.30826 8.7582 5.22493C9.5582 4.93326 10.4415 4.93326 11.2415 5.22493C11.4915 5.3166 11.6249 5.5916 11.5332 5.8416Z" fill="#333333"/>
</svg>
