<svg width="22" height="23" viewBox="0 0 22 23" fill="none" xmlns="http://www.w3.org/2000/svg">
<path d="M6.20495 8.93505C6.14846 8.79681 6.05202 8.67856 5.92796 8.59544C5.80389 8.51232 5.65785 8.4681 5.50851 8.46845H5.50778C5.35563 8.46822 5.20699 8.51426 5.0816 8.60044C4.95621 8.68663 4.85998 8.8089 4.80567 8.95103L3.00722 13.6731C2.88054 14.0058 3.04748 14.3782 3.38014 14.5048C3.71302 14.6316 4.08517 14.4645 4.21184 14.1319L4.50167 13.371H6.50152L6.78799 14.1301C6.88545 14.3882 7.13067 14.5472 7.39114 14.5472C7.46673 14.5472 7.54368 14.5338 7.61858 14.5055C7.95163 14.3798 8.11972 14.008 7.99404 13.6749L6.21191 8.95258C6.2097 8.94669 6.20738 8.94085 6.20495 8.93505ZM4.99263 12.082L5.50619 10.7335L6.01507 12.082H4.99263ZM18.3908 9.77938C18.7468 9.77938 19.0353 9.49081 19.0353 9.13485C19.0353 8.7789 18.7468 8.49032 18.3908 8.49032H16.3911C16.0351 8.49032 15.7465 8.7789 15.7465 9.13485V13.8807C15.7465 14.2367 16.0351 14.5252 16.3911 14.5252H18.3908C18.7468 14.5252 19.0353 14.2367 19.0353 13.8807C19.0353 13.5248 18.7468 13.2362 18.3908 13.2362H17.0356V12.1523H18.2433C18.5993 12.1523 18.8879 11.8637 18.8879 11.5078C18.8879 11.1518 18.5993 10.8632 18.2433 10.8632H17.0356V9.77938H18.3908ZM11.0002 9.93536C11.2471 9.80821 11.5208 9.74205 11.7985 9.74243C12.1492 9.74243 12.4873 9.84599 12.7765 10.0411C13.0717 10.2404 13.4722 10.1627 13.6715 9.8679C13.8709 9.57271 13.7931 9.17224 13.4984 8.97286C12.9952 8.63298 12.4074 8.45337 11.7985 8.45337C11.5222 8.45337 11.2546 8.49032 11.0002 8.55993C9.71025 8.91142 8.75893 10.0931 8.75893 11.493C8.75893 12.8925 9.71025 14.0741 11.0002 14.4256C11.2603 14.4966 11.5289 14.5324 11.7985 14.5322C13.3953 14.5322 14.5103 13.2822 14.5103 11.493C14.5103 11.1368 14.2215 10.8484 13.8658 10.8484H12.4328C12.077 10.8484 11.7882 11.1368 11.7882 11.493C11.7882 11.8488 12.077 12.1375 12.4328 12.1375H13.1387C12.9789 12.7305 12.5728 13.2431 11.7985 13.2431C11.5111 13.2431 11.2395 13.1735 11.0002 13.0502C10.4351 12.7597 10.048 12.1706 10.048 11.493C10.048 10.8154 10.4351 10.2263 11.0002 9.93536Z" fill="#444444"/>
<path d="M21.3555 10.8555C20.9997 10.8555 20.7109 11.1442 20.7109 11.5C20.7109 14.094 19.7007 16.5325 17.8668 18.3668C16.0325 20.2007 13.594 21.2109 11 21.2109C8.40598 21.2109 5.9675 20.2007 4.13316 18.3668C2.29926 16.5325 1.28906 14.094 1.28906 11.5C1.28906 8.90598 2.29926 6.4675 4.13316 4.63316C5.9675 2.79926 8.40598 1.78906 11 1.78906C12.3007 1.78906 13.5627 2.04172 14.7507 2.53973C15.4292 2.82431 16.073 3.18529 16.6697 3.61566L15.8155 3.72352C15.4623 3.76777 15.2118 4.09047 15.2565 4.44367C15.2977 4.76937 15.5749 5.00742 15.895 5.00742C15.9221 5.00742 15.9491 5.0057 15.9766 5.00227L18.2823 4.7118C18.6252 4.68344 18.8981 4.35602 18.862 4.01313L18.6566 1.69969C18.6252 1.3452 18.312 1.08309 17.9575 1.11445C17.603 1.14625 17.3413 1.45906 17.3727 1.81355L17.441 2.5827C16.7601 2.08946 16.0246 1.67624 15.2492 1.35121C13.9025 0.786172 12.473 0.5 11 0.5C8.0618 0.5 5.29934 1.64426 3.2218 3.7218C1.14426 5.79934 0 8.5618 0 11.5C0 14.4382 1.14426 17.2007 3.2218 19.2782C5.29934 21.3557 8.0618 22.5 11 22.5C13.9382 22.5 16.7007 21.3557 18.7782 19.2782C20.8557 17.2007 22 14.4382 22 11.5C22 11.1442 21.7113 10.8555 21.3555 10.8555Z" fill="#444444"/>
</svg>
