<svg width="18" height="15" viewBox="0 0 18 15" fill="none" xmlns="http://www.w3.org/2000/svg">
<path d="M18 7.49993C18 7.69884 17.921 7.88961 17.7803 8.03026C17.6397 8.17091 17.4489 8.24993 17.25 8.24993H2.56029L8.03061 13.7193C8.10029 13.789 8.15556 13.8717 8.19328 13.9628C8.23099 14.0538 8.2504 14.1514 8.2504 14.2499C8.2504 14.3485 8.23099 14.4461 8.19328 14.5371C8.15556 14.6281 8.10029 14.7109 8.03061 14.7806C7.96092 14.8502 7.8782 14.9055 7.78715 14.9432C7.69611 14.9809 7.59853 15.0003 7.49998 15.0003C7.40143 15.0003 7.30385 14.9809 7.21281 14.9432C7.12176 14.9055 7.03904 14.8502 6.96935 14.7806L0.219355 8.03055C0.149622 7.9609 0.0943031 7.87818 0.0565599 7.78713C0.0188166 7.69609 -0.000610352 7.59849 -0.000610352 7.49993C-0.000610352 7.40137 0.0188166 7.30377 0.0565599 7.21272C0.0943031 7.12168 0.149622 7.03896 0.219355 6.9693L6.96935 0.219304C7.11009 0.0785732 7.30096 -0.000488283 7.49998 -0.000488281C7.699 -0.00048828 7.88987 0.0785732 8.03061 0.219304C8.17134 0.360034 8.2504 0.550906 8.2504 0.749929C8.2504 0.948952 8.17134 1.13982 8.03061 1.28055L2.56029 6.74993H17.25C17.4489 6.74993 17.6397 6.82895 17.7803 6.9696C17.921 7.11025 18 7.30102 18 7.49993Z" fill="#444444"/>
</svg>
