<svg width="33" height="32" viewBox="0 0 33 32" fill="none" xmlns="http://www.w3.org/2000/svg">
<path d="M24.1671 7.99895C23.3538 7.99895 22.6071 7.53229 22.2338 6.81229L21.2738 4.87895C20.6605 3.66562 19.0605 2.66562 17.7005 2.66562H14.6471C13.2738 2.66562 11.6738 3.66562 11.0605 4.87895L10.1005 6.81229C9.72713 7.53229 8.98047 7.99895 8.16713 7.99895C5.2738 7.99895 2.98047 10.439 3.16713 13.319L3.86047 24.3323C4.02047 27.079 5.50047 29.3323 9.18047 29.3323H23.1538C26.8338 29.3323 28.3005 27.079 28.4738 24.3323L29.1671 13.319C29.3538 10.439 27.0605 7.99895 24.1671 7.99895ZM14.1671 9.66562H18.1671C18.7138 9.66562 19.1671 10.119 19.1671 10.6656C19.1671 11.2123 18.7138 11.6656 18.1671 11.6656H14.1671C13.6205 11.6656 13.1671 11.2123 13.1671 10.6656C13.1671 10.119 13.6205 9.66562 14.1671 9.66562ZM16.1671 24.159C13.6871 24.159 11.6605 22.1456 11.6605 19.6523C11.6605 17.159 13.6738 15.1456 16.1671 15.1456C18.6605 15.1456 20.6738 17.159 20.6738 19.6523C20.6738 22.1456 18.6471 24.159 16.1671 24.159Z" fill="#66BA7C"/>
</svg>
