<svg width="18" height="18" viewBox="0 0 18 18" fill="none" xmlns="http://www.w3.org/2000/svg">
<path d="M17.4853 17.4854C17.2977 17.6729 17.0434 17.7783 16.7782 17.7783C16.513 17.7783 16.2586 17.6729 16.0711 17.4854L9 10.4143L1.92893 17.4854C1.7414 17.6729 1.48704 17.7783 1.22183 17.7783C0.956609 17.7783 0.702255 17.6729 0.514719 17.4854C0.327182 17.2978 0.221825 17.0435 0.221825 16.7783C0.221825 16.5131 0.327182 16.2587 0.514719 16.0712L7.58579 9.0001L0.514719 1.92904C0.327182 1.7415 0.221825 1.48715 0.221825 1.22193C0.221825 0.956713 0.327182 0.702359 0.514719 0.514822C0.702255 0.327286 0.956609 0.221929 1.22183 0.221929C1.48704 0.221929 1.7414 0.327286 1.92893 0.514822L9 7.58589L16.0711 0.514822C16.2586 0.327286 16.513 0.221929 16.7782 0.221929C17.0434 0.221929 17.2977 0.327286 17.4853 0.514822C17.6728 0.702359 17.7782 0.956713 17.7782 1.22193C17.7782 1.48715 17.6728 1.7415 17.4853 1.92904L10.4142 9.0001L17.4853 16.0712C17.6728 16.2587 17.7782 16.5131 17.7782 16.7783C17.7782 17.0435 17.6728 17.2978 17.4853 17.4854Z" fill="white"/>
</svg>
