<svg width="24" height="24" viewBox="0 0 24 24" fill="none" xmlns="http://www.w3.org/2000/svg">
<g clip-path="url(#clip0_241_234)">
<path fill-rule="evenodd" clip-rule="evenodd" d="M17.9998 0.75C18.1699 0.750027 18.3348 0.807822 18.4677 0.913909C18.6006 1.02 18.6934 1.16808 18.7311 1.33387L19.1462 3.15863C19.2403 3.57219 19.4493 3.95074 19.7492 4.25064C20.0491 4.55054 20.4277 4.75957 20.8412 4.85362L22.6663 5.26875C22.832 5.30651 22.98 5.39943 23.086 5.53229C23.192 5.66514 23.2497 5.83005 23.2497 6C23.2497 6.16995 23.192 6.33486 23.086 6.46771C22.98 6.60057 22.832 6.69349 22.6663 6.73125L20.8412 7.14637C20.4277 7.24043 20.0491 7.44946 19.7492 7.74936C19.4493 8.04926 19.2403 8.42781 19.1462 8.84138L18.7311 10.6661C18.6933 10.8318 18.6004 10.9798 18.4676 11.0858C18.3347 11.1918 18.1698 11.2495 17.9998 11.2495C17.8299 11.2495 17.665 11.1918 17.5321 11.0858C17.3993 10.9798 17.3064 10.8318 17.2686 10.6661L16.8535 8.84138C16.7594 8.42781 16.5504 8.04926 16.2505 7.74936C15.9506 7.44946 15.572 7.24043 15.1585 7.14637L13.3333 6.73125C13.1676 6.69349 13.0197 6.60057 12.9137 6.46771C12.8077 6.33486 12.75 6.16995 12.75 6C12.75 5.83005 12.8077 5.66514 12.9137 5.53229C13.0197 5.39943 13.1676 5.30651 13.3333 5.26875L15.1585 4.85362C15.572 4.75957 15.9506 4.55054 16.2505 4.25064C16.5504 3.95074 16.7594 3.57219 16.8535 3.15863L17.2686 1.33387C17.3063 1.16808 17.3991 1.02 17.532 0.913909C17.6649 0.807822 17.8298 0.750027 17.9998 0.75Z" fill="white"/>
<path d="M0.75 9C0.75 8.80109 0.829018 8.61032 0.96967 8.46967C1.11032 8.32902 1.30109 8.25 1.5 8.25H9.75C9.94891 8.25 10.1397 8.32902 10.2803 8.46967C10.421 8.61032 10.5 8.80109 10.5 9C10.5 9.19891 10.421 9.38968 10.2803 9.53033C10.1397 9.67098 9.94891 9.75 9.75 9.75H1.5C1.30109 9.75 1.11032 9.67098 0.96967 9.53033C0.829018 9.38968 0.75 9.19891 0.75 9ZM1.5 12.75C1.30109 12.75 1.11032 12.829 0.96967 12.9697C0.829018 13.1103 0.75 13.3011 0.75 13.5C0.75 13.6989 0.829018 13.8897 0.96967 14.0303C1.11032 14.171 1.30109 14.25 1.5 14.25H22.5C22.6989 14.25 22.8897 14.171 23.0303 14.0303C23.171 13.8897 23.25 13.6989 23.25 13.5C23.25 13.3011 23.171 13.1103 23.0303 12.9697C22.8897 12.829 22.6989 12.75 22.5 12.75H1.5ZM0.75 18C0.75 17.8011 0.829018 17.6103 0.96967 17.4697C1.11032 17.329 1.30109 17.25 1.5 17.25H22.5C22.6989 17.25 22.8897 17.329 23.0303 17.4697C23.171 17.6103 23.25 17.8011 23.25 18C23.25 18.1989 23.171 18.3897 23.0303 18.5303C22.8897 18.671 22.6989 18.75 22.5 18.75H1.5C1.30109 18.75 1.11032 18.671 0.96967 18.5303C0.829018 18.3897 0.75 18.1989 0.75 18ZM1.5 21.75C1.30109 21.75 1.11032 21.829 0.96967 21.9697C0.829018 22.1103 0.75 22.3011 0.75 22.5C0.75 22.6989 0.829018 22.8897 0.96967 23.0303C1.11032 23.171 1.30109 23.25 1.5 23.25H22.5C22.6989 23.25 22.8897 23.171 23.0303 23.0303C23.171 22.8897 23.25 22.6989 23.25 22.5C23.25 22.3011 23.171 22.1103 23.0303 21.9697C22.8897 21.829 22.6989 21.75 22.5 21.75H1.5Z" fill="white"/>
</g>
<defs>
<clipPath id="clip0_241_234">
<rect width="24" height="24" fill="white"/>
</clipPath>
</defs>
</svg>
