<svg xmlns="http://www.w3.org/2000/svg" xmlns:xlink="http://www.w3.org/1999/xlink" width="60" height="67" viewBox="0 0 60 67">
  <defs>
    <filter id="Path_1" x="15" y="0" width="30" height="28" filterUnits="userSpaceOnUse">
      <feOffset dy="3" input="SourceAlpha"/>
      <feGaussianBlur stdDeviation="3" result="blur"/>
      <feFlood flood-opacity="0.161"/>
      <feComposite operator="in" in2="blur"/>
      <feComposite in="SourceGraphic"/>
    </filter>
    <filter id="Rectangle_1" x="0" y="7" width="60" height="60" filterUnits="userSpaceOnUse">
      <feOffset dy="5" input="SourceAlpha"/>
      <feGaussianBlur stdDeviation="4" result="blur-2"/>
      <feFlood flood-opacity="0.161"/>
      <feComposite operator="in" in2="blur-2"/>
      <feComposite in="SourceGraphic"/>
    </filter>
    <clipPath id="clip-path">
      <rect id="Rectangle_2" data-name="Rectangle 2" width="24" height="24" transform="translate(16 23)" fill="#fff"/>
    </clipPath>
  </defs>
  <g id="deepTuneStar" transform="translate(2 -3)">
    <g transform="matrix(1, 0, 0, 1, -2, 3)" filter="url(#Path_1)">
      <path id="Path_1-2" data-name="Path 1" d="M26.836,9.625a1.4,1.4,0,0,1,2.327,0l4.654,7.5A1.252,1.252,0,0,1,32.654,19H23.346a1.252,1.252,0,0,1-1.164-1.875Z" transform="translate(2 -3)" fill="#fff"/>
    </g>
    <g transform="matrix(1, 0, 0, 1, -2, 3)" filter="url(#Rectangle_1)">
      <rect id="Rectangle_1-2" data-name="Rectangle 1" width="36" height="36" rx="8" transform="translate(12 14)" fill="#fff"/>
    </g>
    <g id="Group_1" data-name="Group 1" clip-path="url(#clip-path)">
      <path id="Path_2" data-name="Path 2" d="M31.859,37.988a7.93,7.93,0,0,1-7.93-7.93A7.938,7.938,0,0,1,16,37.988,7.926,7.926,0,0,1,23.93,45.9,7.917,7.917,0,0,1,31.859,37.988Z" fill="#5fb1ba" fill-rule="evenodd"/>
      <path id="Path_3" data-name="Path 3" d="M40,42.079a4.347,4.347,0,0,1-4.345-4.345,4.356,4.356,0,0,1-4.344,4.345,4.347,4.347,0,0,1,4.344,4.344A4.338,4.338,0,0,1,40,42.079ZM37.5,28.863a5.28,5.28,0,0,1-5.286-5.286,5.28,5.28,0,0,1-5.286,5.286,5.28,5.28,0,0,1,5.286,5.286A5.28,5.28,0,0,1,37.5,28.863Z" fill="#5fb1ba" fill-rule="evenodd" opacity="0.4"/>
    </g>
  </g>
</svg>
