<svg width="81" height="80" viewBox="0 0 81 80" fill="none" xmlns="http://www.w3.org/2000/svg">
<path d="M67.6334 29.1667L65.0667 67.2668C64.9122 69.5858 63.8835 71.7599 62.1883 73.35C60.493 74.94 58.2576 75.8276 55.9334 75.8334H25.0667C22.7425 75.8276 20.507 74.94 18.8118 73.35C17.1166 71.7599 16.0879 69.5858 15.9334 67.2668L13.3667 29.1667H67.6334ZM50.8734 19.1668H30.1267C29.2026 19.1664 28.2918 18.9466 27.4692 18.5254C26.6466 18.1043 25.9358 17.4938 25.3952 16.7443C24.8546 15.9948 24.4997 15.1276 24.3598 14.2142C24.2198 13.3007 24.2987 12.3671 24.59 11.4901L25.7067 8.15342C26.0916 6.99212 26.8329 5.98175 27.8251 5.26601C28.8173 4.55028 30.0099 4.16562 31.2334 4.16675H49.76C50.9848 4.16546 52.1787 4.55035 53.1721 5.26668C54.1655 5.983 54.9078 6.9943 55.2934 8.15675L56.4034 11.4868C56.696 12.3637 56.7761 13.2976 56.6369 14.2116C56.4977 15.1255 56.1433 15.9933 55.6029 16.7434C55.0625 17.4935 54.3515 18.1043 53.5286 18.5257C52.7058 18.947 51.7945 19.1668 50.87 19.1668H50.8734ZM31.2367 9.16675C31.062 9.16564 30.8915 9.21987 30.7496 9.32167C30.6077 9.42348 30.5016 9.56762 30.4467 9.73342L29.3334 13.0701C29.2915 13.1958 29.2802 13.3298 29.3004 13.4607C29.3207 13.5917 29.3719 13.716 29.4498 13.8232C29.5277 13.9304 29.63 14.0176 29.7483 14.0773C29.8666 14.137 29.9975 14.1677 30.13 14.1668H50.8767C51.0093 14.1674 51.1402 14.1363 51.2584 14.0761C51.3767 14.016 51.4788 13.9285 51.5564 13.8209C51.634 13.7133 51.6848 13.5887 51.7046 13.4576C51.7243 13.3264 51.7125 13.1924 51.67 13.0668L50.56 9.73675C50.5046 9.57034 50.3981 9.42566 50.2556 9.32332C50.1132 9.22097 49.9421 9.16618 49.7667 9.16675H31.2367Z" fill="#F56C6C"/>
<path d="M33.8334 55.8333C33.1703 55.8333 32.5344 55.5699 32.0656 55.1011C31.5968 54.6323 31.3334 53.9964 31.3334 53.3333V40C31.3334 39.337 31.5968 38.7011 32.0656 38.2322C32.5344 37.7634 33.1703 37.5 33.8334 37.5C34.4964 37.5 35.1323 37.7634 35.6011 38.2322C36.07 38.7011 36.3334 39.337 36.3334 40V53.3333C36.3334 53.9964 36.07 54.6323 35.6011 55.1011C35.1323 55.5699 34.4964 55.8333 33.8334 55.8333ZM47.1667 55.8333C46.5037 55.8333 45.8678 55.5699 45.3989 55.1011C44.9301 54.6323 44.6667 53.9964 44.6667 53.3333V40C44.6667 39.337 44.9301 38.7011 45.3989 38.2322C45.8678 37.7634 46.5037 37.5 47.1667 37.5C47.8298 37.5 48.4656 37.7634 48.9345 38.2322C49.4033 38.7011 49.6667 39.337 49.6667 40V53.3333C49.6667 53.9964 49.4033 54.6323 48.9345 55.1011C48.4656 55.5699 47.8298 55.8333 47.1667 55.8333Z" fill="#EDEBEA"/>
<path d="M67.1667 14.1667H13.8333C12.2862 14.1667 10.8025 14.7813 9.70854 15.8753C8.61458 16.9693 8 18.453 8 20.0001C8 21.5472 8.61458 23.0309 9.70854 24.1249C10.8025 25.2188 12.2862 25.8334 13.8333 25.8334H67.1667C68.7138 25.8334 70.1975 25.2188 71.2915 24.1249C72.3854 23.0309 73 21.5472 73 20.0001C73 18.453 72.3854 16.9693 71.2915 15.8753C70.1975 14.7813 68.7138 14.1667 67.1667 14.1667Z" fill="#F56C6C"/>
</svg>
