<svg width="28" height="28" viewBox="0 0 28 28" fill="none" xmlns="http://www.w3.org/2000/svg">
<path d="M14 0C6.28037 0 0 6.28037 0 14C0 21.7196 6.28037 28 14 28C21.7196 28 28 21.7196 28 14C28 6.28037 21.7196 0 14 0ZM6.98414 11.3763C6.86771 11.7171 6.54905 11.9317 6.20791 11.9317C6.11997 11.9317 6.03055 11.9174 5.94267 11.8874C5.51392 11.7409 5.28511 11.2746 5.43156 10.846C5.92687 9.39602 7.28908 8.42188 8.82131 8.42188C10.3525 8.42188 11.7143 9.39515 12.2102 10.8437C12.357 11.2723 12.1284 11.7387 11.6998 11.8855C11.2711 12.0321 10.8048 11.8037 10.658 11.3751C10.5268 10.992 10.2792 10.6596 9.94973 10.4243C9.62028 10.189 9.2255 10.0626 8.82064 10.0627C8.41578 10.0629 8.0211 10.1896 7.6918 10.4251C7.36251 10.6606 7.11508 10.9932 6.98414 11.3763ZM19.6376 18.5488C18.4603 20.5248 16.3001 21.7522 14 21.7522C11.7064 21.7522 9.54937 20.53 8.37058 18.5625C8.13772 18.1739 8.26399 17.6701 8.65266 17.4373C9.04143 17.2045 9.54516 17.3308 9.77796 17.7194C10.6621 19.1949 12.2799 20.1116 14.0001 20.1116C15.7251 20.1116 17.3453 19.191 18.2283 17.709C18.4602 17.3198 18.9637 17.1922 19.3529 17.4242C19.742 17.6561 19.8696 18.1596 19.6376 18.5488ZM22.0623 11.8855C21.6335 12.0321 21.1672 11.8037 21.0205 11.3751C20.8892 10.992 20.6416 10.6596 20.3121 10.4243C19.9827 10.189 19.5879 10.0626 19.1831 10.0627C18.7782 10.0629 18.3835 10.1896 18.0542 10.4251C17.7249 10.6606 17.4775 10.9932 17.3465 11.3763C17.2301 11.7171 16.9115 11.9317 16.5703 11.9317C16.4824 11.9317 16.393 11.9174 16.3051 11.8874C15.8763 11.7409 15.6475 11.2746 15.794 10.846C16.2893 9.39602 17.6515 8.42188 19.1837 8.42188C20.7149 8.42188 22.0767 9.39515 22.5726 10.8437C22.7194 11.2723 22.4908 11.7387 22.0623 11.8855Z" fill="white"/>
</svg>
