<svg width="33" height="32" viewBox="0 0 33 32" fill="none" xmlns="http://www.w3.org/2000/svg">
<path opacity="0.4" d="M21.9867 2.66666H10.8134C5.96004 2.66666 3.06671 5.56 3.06671 10.4133V21.5733C3.06671 26.44 5.96004 29.3333 10.8134 29.3333H21.9734C26.8267 29.3333 29.72 26.44 29.72 21.5867V10.4133C29.7334 5.56 26.84 2.66666 21.9867 2.66666Z" fill="#5FB1BA"/>
<path d="M21.0668 13.5068C22.4512 13.5068 23.5735 12.3846 23.5735 11.0002C23.5735 9.61577 22.4512 8.49349 21.0668 8.49349C19.6825 8.49349 18.5602 9.61577 18.5602 11.0002C18.5602 12.3846 19.6825 13.5068 21.0668 13.5068Z" fill="#5FB1BA"/>
<path d="M11.7335 13.5068C13.1179 13.5068 14.2402 12.3846 14.2402 11.0002C14.2402 9.61577 13.1179 8.49349 11.7335 8.49349C10.3491 8.49349 9.22687 9.61577 9.22687 11.0002C9.22687 12.3846 10.3491 13.5068 11.7335 13.5068Z" fill="#5FB1BA"/>
<path d="M21.1999 17.2266H11.5999C10.6666 17.2266 9.90656 17.9866 9.90656 18.9332C9.90656 22.5199 12.8266 25.4399 16.4132 25.4399C19.9999 25.4399 22.9199 22.5199 22.9199 18.9332C22.9066 17.9999 22.1332 17.2266 21.1999 17.2266Z" fill="#5FB1BA"/>
</svg>
