<svg width="161" height="133" viewBox="0 0 161 133" fill="none" xmlns="http://www.w3.org/2000/svg">
<path d="M75.6953 132.591H75.6944C54.9487 132.591 37.494 131.618 23.8947 130.425C15.5119 129.69 10.2631 121.012 13.4769 113.234C22.3912 91.6609 33.3972 70.3497 46.3084 49.6809C55.0969 35.6119 63.5809 23.7534 70.7553 14.4234C75.7587 7.91656 85.5472 7.91468 90.5509 14.4212C97.6897 23.7047 106.128 35.4959 114.873 49.4784C127.718 70.0175 138.683 91.1947 147.583 112.635C150.814 120.419 145.545 129.11 137.149 129.848C116.417 131.67 95.8143 132.591 75.6953 132.591Z" fill="#DD636E"/>
<path d="M83.5847 9.88941C81.1503 10.5294 78.8716 12.056 77.1866 14.4657C70.605 23.8782 62.8228 35.8428 54.7616 50.0369C42.9172 70.8891 32.8206 92.3894 24.6447 114.152C21.9722 121.262 25.6759 129.118 32.1178 131.082C29.3753 130.883 26.6342 130.665 23.895 130.425C15.5109 129.689 10.2644 121.013 13.4759 113.233C22.3906 91.6619 33.3981 70.3503 46.3094 49.6813C55.0981 35.6132 63.5809 23.7522 70.7559 14.4247C73.9231 10.305 79.0113 8.79254 83.5847 9.88941Z" fill="#DA4A54"/>
<path d="M138.574 71.5191V70.6147C138.574 67.4247 141.044 64.7794 144.227 64.5609L154.017 63.8894C157.523 63.6488 160.5 66.4284 160.5 69.9431V72.1906C160.5 75.7053 157.523 78.485 154.017 78.2444L144.227 77.5728C141.045 77.3547 138.574 74.7094 138.574 71.5191ZM131.02 42.4213L130.568 41.6378C128.973 38.875 129.789 35.3491 132.436 33.5688L140.578 28.0925C143.495 26.1309 147.462 27.0497 149.22 30.0934L150.344 32.04C152.101 35.0838 150.913 38.9794 147.756 40.5244L138.942 44.8375C136.077 46.24 132.615 45.1841 131.02 42.4213ZM109.929 20.9991L109.145 20.5469C106.382 18.9519 105.327 15.49 106.729 12.6247L111.042 3.81095C112.587 0.654072 116.483 -0.534054 119.527 1.22313L121.473 2.34688C124.517 4.10438 125.436 8.07188 123.474 10.9884L117.998 19.1306C116.217 21.7775 112.692 22.5941 109.929 20.9991Z" fill="#DD636E"/>
<path d="M22.4256 71.5191V70.6147C22.4256 67.4247 19.9556 64.7794 16.7728 64.5609L6.98313 63.8894C3.47688 63.6488 0.5 66.4284 0.5 69.9431V72.1906C0.5 75.7053 3.47688 78.485 6.98313 78.2444L16.7728 77.5728C19.9553 77.3547 22.4256 74.7094 22.4256 71.5191ZM29.98 42.4213L30.4322 41.6378C32.0272 38.875 31.2106 35.3491 28.5638 33.5688L20.4216 28.0925C17.505 26.1309 13.5375 27.0497 11.78 30.0934L10.6563 32.04C8.89875 35.0838 10.0872 38.9794 13.2441 40.5244L22.0578 44.8375C24.9231 46.24 28.385 45.1841 29.98 42.4213ZM51.0713 20.9991L51.8547 20.5469C54.6175 18.9519 55.6731 15.49 54.2709 12.6247L49.9578 3.81095C48.4128 0.654072 44.5172 -0.534054 41.4734 1.22313L39.5269 2.34688C36.4831 4.10438 35.5644 8.07188 37.5259 10.9884L43.0022 19.1306C44.7825 21.7775 48.3084 22.5941 51.0713 20.9991Z" fill="#DD636E"/>
<path d="M77.0316 42.7875C79.3659 42.5528 81.7003 42.5528 84.0347 42.7875C86.9881 43.0847 89.2491 45.5513 89.3581 48.5175C89.7141 58.2171 89.7141 67.9264 89.3581 77.626C89.2494 80.5922 86.9881 83.0591 84.0347 83.356C81.7003 83.5907 79.3659 83.5907 77.0316 83.356C74.0781 83.0588 71.8172 80.5922 71.7081 77.626C71.3522 67.9264 71.3522 58.2171 71.7081 48.5175C71.8172 45.551 74.0781 43.0844 77.0316 42.7875ZM77.2009 94.0047C79.4225 93.8985 81.6441 93.8985 83.8656 94.0047C86.9272 94.1513 89.3859 96.6157 89.5241 99.6775C89.6587 102.663 89.6587 105.648 89.5241 108.633C89.3859 111.695 86.9272 114.159 83.8656 114.306C81.6441 114.412 79.4225 114.412 77.2009 114.306C74.1394 114.159 71.6806 111.695 71.5425 108.633C71.4078 105.649 71.4078 102.661 71.5425 99.6775C71.6806 96.6157 74.1394 94.1513 77.2009 94.0047Z" fill="white"/>
</svg>
