<svg width="29" height="29" viewBox="0 0 29 29" fill="none" xmlns="http://www.w3.org/2000/svg">
<g clip-path="url(#clip0_259_6867)">
<path d="M28.75 14.4999C28.75 6.76792 22.482 0.499912 14.75 0.499912C7.01801 0.499912 0.75 6.76792 0.75 14.4999C0.75 21.4877 5.8696 27.2796 12.5625 28.3298V18.5468H9.00781V14.4999H12.5625V11.4155C12.5625 7.90679 14.6526 5.96866 17.8505 5.96866C19.3822 5.96866 20.9844 6.2421 20.9844 6.2421V9.68741H19.219C17.4799 9.68741 16.9375 10.7666 16.9375 11.8737V14.4999H20.8203L20.1996 18.5468H16.9375V28.3298C23.6304 27.2796 28.75 21.4877 28.75 14.4999Z" fill="#1877F2"/>
<path d="M20.1996 18.5469L20.8203 14.5H16.9375V11.8738C16.9375 10.7667 17.4799 9.6875 19.219 9.6875H20.9844V6.24219C20.9844 6.24219 19.3822 5.96875 17.8505 5.96875C14.6526 5.96875 12.5625 7.90688 12.5625 11.4156V14.5H9.00781V18.5469H12.5625V28.3299C13.2753 28.4418 14.0058 28.5 14.75 28.5C15.4942 28.5 16.2247 28.4418 16.9375 28.3299V18.5469H20.1996Z" fill="white"/>
</g>
<defs>
<clipPath id="clip0_259_6867">
<rect width="28" height="28" fill="white" transform="translate(0.75 0.5)"/>
</clipPath>
</defs>
</svg>
