<svg width="25" height="28" viewBox="0 0 25 28" fill="none" xmlns="http://www.w3.org/2000/svg">
<path fill-rule="evenodd" clip-rule="evenodd" d="M9.25818 18.3916H15.7419C21.3082 19.3082 24.0502 20.1651 24.3732 28.0001H0.627075C0.949664 20.1651 3.69204 19.3082 9.25818 18.3916Z" fill="#5FB1BA"/>
<path fill-rule="evenodd" clip-rule="evenodd" d="M15.742 15.7186H9.25806V18.3916C10.1882 19.1051 11.3277 19.4918 12.5 19.4918C13.6723 19.4918 14.8118 19.1051 15.742 18.3916V15.7186Z" fill="#FFBC68"/>
<path fill-rule="evenodd" clip-rule="evenodd" d="M15.742 15.7186H9.25806V16.9983C10.183 17.7318 11.2896 18.1801 12.5 18.1801C13.7105 18.1801 14.8172 17.7318 15.742 16.9983V15.7186Z" fill="#EA934F"/>
<path fill-rule="evenodd" clip-rule="evenodd" d="M8.78827 6.03262L6.73758 8.35312C4.8958 8.98114 5.4463 11.6833 7.02695 11.4456C7.50807 13.3413 8.30402 14.7656 9.25813 15.7186C10.2296 16.6893 11.3655 17.171 12.5001 17.1645C13.6347 17.171 14.7704 16.6891 15.7418 15.7186C16.696 14.7656 17.4919 13.3413 17.973 11.4456C19.5454 11.682 20.0979 9.01066 18.2917 8.36364L16.3195 6.03262L13.8604 5.26416L11.4395 4.80298L8.78827 6.03262Z" fill="#FFBC68"/>
<path fill-rule="evenodd" clip-rule="evenodd" d="M16.3195 6.03262C16.3664 7.54517 17.0387 9.64901 17.9718 9.99024C19.5633 3.33545 17.1297 0.00529085 12.5156 -6.10352e-05C7.9014 0.00547539 5.46777 3.33545 7.05931 9.99024C8.03335 8.73956 8.64752 6.76915 8.78852 6.03262C9.7753 5.91801 10.6591 5.50813 11.4395 4.80297C11.5235 5.61904 11.4082 6.28508 11.0939 6.80107C12.2311 6.4388 13.4862 5.84973 13.8603 5.26416C15.3293 6.04424 15.6238 6.37717 16.3195 6.03262Z" fill="#663333"/>
<path d="M1.04743 5.13313C1.04743 5.23675 1.08859 5.33612 1.16186 5.40939C1.23512 5.48266 1.3345 5.52382 1.43811 5.52382C1.54173 5.52382 1.6411 5.48266 1.71437 5.40939C1.78764 5.33612 1.8288 5.23675 1.8288 5.13313V1.28494C1.8288 1.14672 1.88546 1.02104 1.97699 0.929505C2.06853 0.83797 2.1942 0.781314 2.33243 0.781314H6.18062C6.28423 0.781314 6.38361 0.740152 6.45688 0.666884C6.53014 0.593616 6.57131 0.494243 6.57131 0.390626C6.57131 0.28701 6.53014 0.187637 6.45688 0.114369C6.38361 0.0411006 6.28423 -6.10352e-05 6.18062 -6.10352e-05H2.33225C2.16358 -2.58715e-05 1.99658 0.0333144 1.84083 0.0980466C1.68508 0.162779 1.54365 0.257629 1.42464 0.377154C1.30506 0.496165 1.21016 0.637623 1.1454 0.793407C1.08063 0.949192 1.04728 1.11623 1.04724 1.28494L1.04743 5.13313ZM6.18062 17.9463C6.28274 17.9441 6.37993 17.9019 6.45137 17.8289C6.52281 17.7559 6.56281 17.6578 6.56281 17.5557C6.56281 17.4535 6.52281 17.3554 6.45137 17.2824C6.37993 17.2094 6.28274 17.1673 6.18062 17.1651H2.33225C2.1942 17.1651 2.06834 17.1082 1.97699 17.0167C1.88564 16.9252 1.8288 16.7995 1.8288 16.6615V12.8131C1.8288 12.7095 1.78764 12.6101 1.71437 12.5368C1.6411 12.4636 1.54173 12.4224 1.43811 12.4224C1.3345 12.4224 1.23512 12.4636 1.16186 12.5368C1.08859 12.6101 1.04743 12.7095 1.04743 12.8131V16.6615C1.04743 17.015 1.19193 17.3365 1.42464 17.5691C1.54367 17.6886 1.68513 17.7835 1.84092 17.8482C1.9967 17.9129 2.16373 17.9463 2.33243 17.9463H6.18062ZM23.9526 12.8131C23.9503 12.711 23.9082 12.6138 23.8352 12.5423C23.7622 12.4709 23.6641 12.4309 23.562 12.4309C23.4598 12.4309 23.3617 12.4709 23.2887 12.5423C23.2157 12.6138 23.1736 12.711 23.1714 12.8131V16.6615C23.1714 16.7995 23.1145 16.9254 23.023 17.0169C22.9314 17.1084 22.8058 17.1651 22.6677 17.1651H18.8192C18.7171 17.1673 18.6199 17.2094 18.5484 17.2824C18.477 17.3554 18.437 17.4535 18.437 17.5557C18.437 17.6578 18.477 17.7559 18.5484 17.8289C18.6199 17.9019 18.7171 17.9441 18.8192 17.9463H22.6675C22.8362 17.9463 23.0032 17.913 23.1589 17.8482C23.3147 17.7836 23.4561 17.6887 23.5752 17.5692C23.6947 17.4502 23.7896 17.3088 23.8543 17.153C23.919 16.9972 23.9524 16.8302 23.9524 16.6615L23.9526 12.8131ZM18.8194 -6.10352e-05C18.7157 -6.10352e-05 18.6164 0.0411006 18.5431 0.114369C18.4698 0.187637 18.4287 0.28701 18.4287 0.390626C18.4287 0.494243 18.4698 0.593616 18.5431 0.666884C18.6164 0.740152 18.7157 0.781314 18.8194 0.781314H22.6677C22.8058 0.781314 22.9316 0.83797 23.023 0.929505C23.1143 1.02104 23.1714 1.14672 23.1714 1.28476V5.13313C23.1736 5.23525 23.2157 5.33244 23.2887 5.40388C23.3617 5.47532 23.4598 5.51533 23.562 5.51533C23.6641 5.51533 23.7622 5.47532 23.8352 5.40388C23.9082 5.33244 23.9503 5.23525 23.9526 5.13313V1.28494C23.9525 1.11628 23.9192 0.949278 23.8544 0.793528C23.7897 0.637778 23.6949 0.496343 23.5753 0.377339C23.4563 0.257813 23.3149 0.162963 23.1591 0.0982312C23.0034 0.033499 22.8364 0.000158751 22.6677 0.000123587L18.8194 -6.10352e-05Z" fill="#5FB1BA"/>
</svg>
