<svg width="18" height="20" viewBox="0 0 18 20" fill="none" xmlns="http://www.w3.org/2000/svg">
<path d="M0.217641 19.2041C0.239961 19.2127 0.264794 19.2124 0.286837 19.203C0.308879 19.1936 0.326383 19.176 0.33561 19.1539C0.860063 17.895 4.3262 9.99764 10.204 6.21175C4.2578 9.13311 1.0601 16.6675 0.164516 19.0866C0.15614 19.1093 0.15702 19.1343 0.166965 19.1562C0.176909 19.1782 0.195118 19.1954 0.217641 19.2041ZM1.03077 11.1626C1.06081 10.9747 1.1331 10.7961 1.24217 10.6403C0.980909 10.628 0.729952 10.5347 0.524165 10.3732C0.519781 10.6325 0.443247 10.8853 0.303149 11.1035C0.560469 11.1245 0.806752 11.2172 1.01409 11.3711C1.01422 11.3012 1.0198 11.2315 1.03077 11.1626Z" fill="#333333"/>
<path d="M1.26643 10.2504C1.42076 10.2545 1.57456 10.2305 1.72034 10.1797C1.76699 10.1643 1.81764 10.1662 1.86296 10.1852C1.90828 10.2042 1.94521 10.2389 1.96695 10.283C1.9887 10.327 1.99379 10.3775 1.98129 10.425C1.96879 10.4725 1.93954 10.5139 1.89893 10.5416C1.32721 10.933 1.35698 11.3808 1.47432 11.8064C1.48829 11.8566 1.48362 11.9101 1.46117 11.9572C1.43872 12.0042 1.4 12.0415 1.35217 12.0623C1.32407 12.0748 1.29367 12.0812 1.26291 12.0813C1.22901 12.0813 1.19559 12.0732 1.16538 12.0578C1.13518 12.0424 1.10905 12.0201 1.08912 11.9927C1.04009 11.9255 0.98545 11.8626 0.925804 11.8047C0.746976 13.4318 1.17803 14.7025 1.42862 15.278C3.15444 11.9389 6.09741 7.62023 10.4237 5.67714C10.5086 5.6391 10.6049 5.63489 10.6928 5.66535C10.7808 5.69581 10.8538 5.75866 10.897 5.84109C10.9402 5.92352 10.9504 6.01933 10.9254 6.10898C10.9004 6.19864 10.8422 6.2754 10.7626 6.32362C6.8942 8.66554 4.04424 12.868 2.36846 15.8922C2.71387 15.9526 3.06454 15.9776 3.41502 15.9668C4.07842 15.9509 5.08924 15.8145 6.28162 15.2817C6.0221 15.1506 5.78618 14.9773 5.58354 14.7688C5.55275 14.7377 5.5317 14.6983 5.52297 14.6554C5.51423 14.6125 5.51819 14.568 5.53435 14.5273C5.55051 14.4866 5.57819 14.4515 5.61398 14.4263C5.64977 14.4011 5.69213 14.3869 5.73588 14.3854C6.44439 14.348 7.14182 14.1935 7.79991 13.9284C8.95256 13.4682 9.86858 12.7278 10.5269 11.7252C9.9837 11.7994 8.97936 11.8244 8.39893 11.5198C8.35522 11.4969 8.31922 11.4617 8.29544 11.4185C8.27166 11.3753 8.26115 11.326 8.26523 11.2769C8.26931 11.2278 8.28781 11.1809 8.31839 11.1422C8.34898 11.1035 8.3903 11.0748 8.43717 11.0594C8.53967 11.0261 8.68663 10.9913 8.87268 10.9472C9.89069 10.7061 11.9465 10.2191 13.1349 8.56128C12.7925 8.59511 12.3493 8.60425 12.0378 8.48566C12.0105 8.47521 11.9855 8.45931 11.9644 8.43892C11.9434 8.41853 11.9267 8.39407 11.9154 8.36704C11.9041 8.34001 11.8984 8.31096 11.8987 8.28166C11.8989 8.25236 11.9052 8.22342 11.9169 8.19659C12.3226 7.27112 13.4634 5.99534 14.4534 5.05269C14.332 4.97497 14.1965 4.92188 14.0546 4.89644C14.0074 4.88752 13.965 4.86226 13.9346 4.82512C13.9043 4.78798 13.888 4.74132 13.8887 4.69337C13.8893 4.64541 13.9069 4.59923 13.9383 4.56294C13.9696 4.52666 14.0128 4.5026 14.0601 4.49499C14.7121 4.38972 14.9085 3.86194 14.9675 3.55671C14.9768 3.50816 15.0025 3.46428 15.0402 3.4324C15.078 3.40053 15.1256 3.38259 15.175 3.38159C15.2271 3.3802 15.2779 3.39749 15.3183 3.43034C15.3587 3.46319 15.386 3.50941 15.3953 3.56066C15.4201 3.74026 15.4774 3.91384 15.5644 4.07288C16.1169 3.6262 16.9554 3.00964 17.6005 2.8046C13.2418 1.09839 10.1867 3.15358 9.6094 3.59058C9.57096 3.61964 9.52501 3.6371 9.47697 3.64091C9.42893 3.64472 9.38081 3.63472 9.33827 3.61208C9.29572 3.58944 9.26054 3.55511 9.23687 3.51314C9.21319 3.47117 9.20201 3.4233 9.20463 3.37519C9.21883 3.12647 9.26971 2.88121 9.35565 2.64737C4.8244 3.59003 4.10803 6.62362 3.79858 7.93331C3.70123 8.34526 3.65682 8.53327 3.51065 8.61456C3.48019 8.63162 3.44648 8.64206 3.41172 8.64521C3.37695 8.64835 3.34191 8.64412 3.30889 8.6328C2.91162 8.49952 2.88955 7.83929 2.92057 7.37109C2.16077 8.28487 1.60549 9.25116 1.26643 10.2504Z" fill="#333333"/>
<path d="M15.147 5.26562C15.1788 5.20363 15.2153 5.14419 15.2563 5.08785C15.3685 4.93427 15.5141 4.80818 15.6821 4.71906C15.455 4.58906 15.2739 4.39162 15.164 4.1541C15.0423 4.38276 14.8592 4.57299 14.6354 4.70343C14.8551 4.83943 15.0322 5.03417 15.147 5.26562ZM1.72344 1.48046C1.74821 1.48714 1.77405 1.48887 1.79949 1.48555C1.82492 1.48224 1.84946 1.47395 1.87169 1.46115C1.89392 1.44835 1.91342 1.4313 1.92906 1.41097C1.9447 1.39064 1.95618 1.36742 1.96285 1.34265L2.06777 0.953119C2.081 0.903179 2.07391 0.850033 2.04804 0.805313C2.02217 0.760594 1.97964 0.727944 1.92975 0.714512C1.87987 0.70108 1.82669 0.707959 1.78187 0.733644C1.73705 0.759329 1.70422 0.801726 1.69059 0.851557L1.58566 1.24117C1.57222 1.29117 1.57918 1.34446 1.60501 1.38934C1.63085 1.43421 1.67344 1.46699 1.72344 1.48046ZM1.46606 2.63187C1.50899 2.63184 1.55072 2.61767 1.58479 2.59155C1.61886 2.56542 1.64337 2.5288 1.65453 2.48734L1.75949 2.09765C1.77272 2.04771 1.76563 1.99456 1.73976 1.94984C1.71389 1.90512 1.67136 1.87248 1.62147 1.85904C1.57159 1.84561 1.51841 1.85249 1.47359 1.87817C1.42876 1.90386 1.39594 1.94626 1.38231 1.99609L1.27731 2.3857C1.26951 2.41465 1.26848 2.44502 1.27431 2.47443C1.28014 2.50385 1.29266 2.53153 1.31091 2.55533C1.32916 2.57913 1.35264 2.5984 1.37954 2.61166C1.40644 2.62492 1.43603 2.63181 1.46602 2.63179L1.46606 2.63187ZM1.86102 1.72027C1.85433 1.74503 1.85258 1.77087 1.85588 1.7963C1.85917 1.82174 1.86744 1.84628 1.88022 1.86852C1.893 1.89075 1.91004 1.91026 1.93035 1.92591C1.95067 1.94157 1.97387 1.95307 1.99863 1.95976L2.38773 2.06484C2.41255 2.0717 2.43848 2.0736 2.46404 2.0704C2.48959 2.06721 2.51426 2.059 2.53662 2.04623C2.55899 2.03347 2.57861 2.01641 2.59436 1.99604C2.6101 1.97566 2.62167 1.95238 2.62838 1.92752C2.63509 1.90266 2.63682 1.87672 2.63347 1.85118C2.63012 1.82565 2.62176 1.80103 2.60885 1.77875C2.59595 1.75646 2.57877 1.73695 2.5583 1.72133C2.53783 1.70571 2.51447 1.69429 2.48957 1.68773L2.10051 1.58261C2.07574 1.57592 2.04991 1.57418 2.02447 1.57748C1.99903 1.58077 1.97449 1.58905 1.95225 1.60183C1.93001 1.61462 1.91051 1.63165 1.89485 1.65198C1.8792 1.6723 1.8677 1.6955 1.86102 1.72027ZM0.85543 1.65101L1.24453 1.75609C1.2693 1.76278 1.29514 1.76453 1.32058 1.76124C1.34603 1.75795 1.37057 1.74967 1.39282 1.7369C1.41506 1.72412 1.43458 1.70708 1.45024 1.68676C1.4659 1.66644 1.47741 1.64324 1.4841 1.61847C1.4908 1.5937 1.49255 1.56786 1.48925 1.54242C1.48596 1.51698 1.47769 1.49243 1.46491 1.47018C1.45213 1.44794 1.4351 1.42843 1.41478 1.41276C1.39446 1.3971 1.37125 1.38559 1.34648 1.3789L0.957422 1.27382C0.932656 1.26713 0.906813 1.26537 0.881369 1.26866C0.855925 1.27195 0.831378 1.28022 0.80913 1.293C0.786882 1.30578 0.767369 1.32281 0.751704 1.34313C0.736039 1.36345 0.72453 1.38665 0.717833 1.41142C0.711136 1.43619 0.709383 1.46203 0.712673 1.48747C0.715964 1.51292 0.724234 1.53746 0.737011 1.55971C0.749788 1.58196 0.766822 1.60147 0.787141 1.61714C0.807459 1.6328 0.830664 1.64431 0.85543 1.65101ZM11.6024 14.2991C11.5776 14.2924 11.5518 14.2906 11.5264 14.2939C11.5009 14.2972 11.4764 14.3054 11.4541 14.3181C11.4318 14.3309 11.4123 14.3479 11.3966 14.3682C11.3809 14.3885 11.3694 14.4117 11.3627 14.4364L11.2656 14.7932C11.2589 14.818 11.2571 14.8438 11.2603 14.8692C11.2636 14.8947 11.2718 14.9192 11.2846 14.9415C11.2973 14.9637 11.3143 14.9833 11.3346 14.999C11.3549 15.0146 11.3781 15.0262 11.4029 15.0329C11.4276 15.0396 11.4535 15.0414 11.4789 15.0382C11.5043 15.0349 11.5289 15.0267 11.5512 15.0139C11.5734 15.0012 11.5929 14.9842 11.6086 14.9639C11.6243 14.9436 11.6359 14.9204 11.6426 14.8956L11.7395 14.5389C11.7531 14.4889 11.7463 14.4356 11.7206 14.3906C11.6949 14.3457 11.6524 14.3128 11.6024 14.2991ZM11.0781 15.4846L10.9812 15.8414C10.9742 15.8662 10.9722 15.8922 10.9753 15.9178C10.9784 15.9434 10.9866 15.9682 10.9993 15.9906C11.012 16.013 11.0291 16.0327 11.0494 16.0485C11.0698 16.0644 11.0931 16.076 11.118 16.0827C11.1429 16.0895 11.1689 16.0913 11.1945 16.0879C11.22 16.0846 11.2447 16.0762 11.267 16.0633C11.2893 16.0504 11.3089 16.0332 11.3245 16.0127C11.3402 15.9921 11.3516 15.9687 11.3581 15.9438L11.455 15.587C11.462 15.5622 11.464 15.5362 11.4609 15.5106C11.4578 15.485 11.4496 15.4603 11.4369 15.4378C11.4242 15.4154 11.4072 15.3957 11.3868 15.3799C11.3664 15.3641 11.3431 15.3524 11.3182 15.3457C11.2933 15.3389 11.2673 15.3372 11.2418 15.3405C11.2162 15.3438 11.1915 15.3522 11.1692 15.3651C11.1469 15.378 11.1273 15.3953 11.1117 15.4158C11.096 15.4363 11.0846 15.4597 11.0781 15.4846ZM11.5198 15.2328C11.5132 15.2576 11.5115 15.2835 11.5149 15.3089C11.5182 15.3343 11.5266 15.3588 11.5394 15.3811C11.5522 15.4033 11.5693 15.4227 11.5897 15.4383C11.61 15.4539 11.6332 15.4654 11.658 15.472L12.0174 15.5683C12.0339 15.5727 12.051 15.5749 12.0682 15.575C12.1156 15.575 12.1614 15.5578 12.1971 15.5265C12.2328 15.4953 12.2558 15.4521 12.262 15.4051C12.2682 15.358 12.257 15.3104 12.2306 15.2709C12.2042 15.2315 12.1644 15.2031 12.1186 15.1909L11.7592 15.0947C11.7344 15.088 11.7085 15.0863 11.6831 15.0897C11.6576 15.093 11.6331 15.1013 11.6109 15.1142C11.5886 15.127 11.5692 15.1441 11.5535 15.1644C11.5379 15.1848 11.5265 15.2081 11.5198 15.2328ZM11.0627 14.9082L10.7033 14.812C10.6535 14.7992 10.6006 14.8066 10.5562 14.8326C10.5118 14.8585 10.4794 14.9009 10.4661 14.9506C10.4528 15.0003 10.4596 15.0533 10.4851 15.098C10.5106 15.1426 10.5527 15.1755 10.6022 15.1893L10.9616 15.2855C10.9865 15.2925 11.0125 15.2944 11.0381 15.2913C11.0637 15.2881 11.0885 15.2799 11.1109 15.2671C11.1333 15.2543 11.153 15.2372 11.1688 15.2167C11.1845 15.1963 11.1961 15.1729 11.2028 15.148C11.2095 15.123 11.2111 15.097 11.2077 15.0714C11.2043 15.0458 11.1958 15.0211 11.1827 14.9989C11.1697 14.9766 11.1524 14.9571 11.1318 14.9415C11.1112 14.926 11.0877 14.9147 11.0627 14.9082ZM15.9459 7.81304C15.9208 7.76514 15.8794 7.72779 15.8292 7.70773C15.779 7.68767 15.7233 7.68623 15.6721 7.70367C15.6234 7.71987 15.5818 7.7523 15.5542 7.79552C15.5265 7.83875 15.5146 7.89015 15.5204 7.94113C15.57 8.38706 15.5255 9.19894 14.6694 9.62624C14.6256 9.64782 14.5908 9.68419 14.5712 9.72892C14.5516 9.77365 14.5485 9.82386 14.5623 9.87069C14.5762 9.91751 14.6061 9.95794 14.6469 9.98481C14.6877 10.0117 14.7366 10.0233 14.7851 10.0176C15.7361 9.9091 16.2103 10.5609 16.4084 10.959C16.4268 10.9963 16.4554 11.0278 16.4908 11.0497C16.5262 11.0717 16.5671 11.0832 16.6087 11.0831C16.6278 11.0831 16.6468 11.0807 16.6653 11.0761C16.7179 11.0633 16.7641 11.032 16.7954 10.9878C16.8267 10.9437 16.8409 10.8897 16.8355 10.8358C16.7961 10.4396 16.714 9.61527 17.7511 9.13925C17.7965 9.11853 17.8329 9.08213 17.8536 9.03674C17.8742 8.99134 17.8778 8.94001 17.8637 8.89218C17.8495 8.84435 17.8186 8.80324 17.7765 8.7764C17.7345 8.74957 17.6841 8.73882 17.6348 8.74613C16.5086 8.91175 16.1286 8.16972 15.9459 7.81304Z" fill="#333333"/>
</svg>
