<svg width="81" height="81" viewBox="0 0 81 81" fill="none" xmlns="http://www.w3.org/2000/svg">
<path d="M63.085 25.585C62.7535 25.585 62.4355 25.7167 62.2011 25.9511C61.9667 26.1855 61.835 26.5034 61.835 26.835C61.8373 29.9625 61.1501 33.052 59.8222 35.8837C58.4943 38.7153 56.5585 41.2193 54.1525 43.2175C51.9738 45.0337 50.6063 47.6375 50.2963 50.4962L30.705 50.5012C30.4013 47.6312 29.0575 45.045 26.9125 43.2712C25.5179 42.1188 24.2747 40.7945 23.2125 39.33C23.0177 39.0614 22.7243 38.8813 22.3967 38.8291C22.0691 38.7769 21.7342 38.8571 21.4656 39.0518C21.1971 39.2466 21.0169 39.5401 20.9648 39.8677C20.9126 40.1953 20.9927 40.5302 21.1875 40.7987C22.3742 42.4336 23.7627 43.9119 25.32 45.1987C26.9025 46.5075 27.9075 48.4162 28.1838 50.5512C27.3232 50.6693 26.5344 51.0944 25.9625 51.7481C25.3905 52.4018 25.074 53.2401 25.0713 54.1087V56.2862C25.0713 57.1937 25.4188 58.0137 25.9738 58.6487C25.3958 59.2994 25.0749 60.1384 25.0713 61.0087V63.1862C25.0738 64.07 25.4013 64.9219 25.9914 65.5798C26.5815 66.2377 27.393 66.6555 28.2713 66.7537V69.25C28.2713 74.075 32.1963 78 37.0213 78H43.98C48.805 78 52.73 74.075 52.73 69.25V66.7537C53.6083 66.6555 54.4198 66.2377 55.0099 65.5798C55.6 64.9219 55.9275 64.07 55.93 63.1862V61.0087C55.93 60.1025 55.5813 59.2825 55.0263 58.6475C55.6045 57.9965 55.9254 57.1569 55.9288 56.2862V54.1087C55.926 53.2403 55.6097 52.4021 55.038 51.7485C54.4663 51.0948 53.6778 50.6696 52.8175 50.5512C53.1013 48.42 54.13 46.49 55.7525 45.1387C58.4407 42.9063 60.6035 40.1086 62.0869 36.9449C63.5704 33.7811 64.338 30.3292 64.335 26.835C64.335 26.5034 64.2033 26.1855 63.9689 25.9511C63.7345 25.7167 63.4165 25.585 63.085 25.585ZM43.98 75.5H37.02C33.5738 75.5 30.77 72.6962 30.77 69.25V66.795H50.23V69.25C50.23 72.6962 47.4263 75.5 43.98 75.5ZM53.43 63.1875C53.4297 63.4813 53.3127 63.763 53.1048 63.9707C52.8969 64.1783 52.6151 64.295 52.3213 64.295H28.6788C28.3849 64.2946 28.1032 64.1777 27.8956 63.9698C27.6879 63.7619 27.5713 63.48 27.5713 63.1862V61.0087C27.5713 60.3975 28.0675 59.9012 28.6788 59.9012H52.3213C52.9325 59.9012 53.4288 60.3975 53.4288 61.0087L53.43 63.1875ZM53.43 54.1087V56.2862C53.43 56.5803 53.3132 56.8623 53.1053 57.0702C52.8973 57.2781 52.6153 57.395 52.3213 57.395H28.6788C28.3849 57.3946 28.1032 57.2777 27.8956 57.0698C27.6879 56.8619 27.5713 56.5801 27.5713 56.2862V54.1087C27.5713 53.4975 28.0675 53.0012 28.6788 53.0012H52.3213C52.9325 53.0012 53.4288 53.4975 53.4288 54.1087H53.43Z" fill="#5FB1BA"/>
<path d="M27.4626 9.65998C27.7126 9.65998 27.9664 9.58498 28.1864 9.42748C31.102 7.34243 34.5021 6.03697 38.0639 5.63498C40.8346 5.32093 43.64 5.54848 46.3239 6.30498C46.643 6.39532 46.9849 6.3552 47.2744 6.19345C47.5639 6.0317 47.7773 5.76157 47.8676 5.44248C47.958 5.12339 47.9179 4.78149 47.7561 4.49198C47.5944 4.20247 47.3242 3.98907 47.0051 3.89873C44.0103 3.05578 40.8805 2.8015 37.7889 3.14998C33.8034 3.59979 29.9987 5.05964 26.7351 7.39123C26.519 7.54492 26.3573 7.76339 26.2735 8.01504C26.1897 8.26668 26.1881 8.53847 26.269 8.79107C26.3498 9.04368 26.509 9.26402 26.7233 9.42022C26.9377 9.57642 27.1974 9.66039 27.4626 9.65998Z" fill="#5FB1BA"/>
<path d="M74.25 3H53.98C51.9112 3 50.23 4.6825 50.23 6.75V17.9C50.23 19.5312 51.275 20.9212 52.73 21.4375V25.515C52.7303 26.1785 52.9941 26.8147 53.4634 27.2837C53.9327 27.7528 54.569 28.0163 55.2325 28.0163C55.8825 28.0163 56.5175 27.7625 56.9975 27.2825L62.6287 21.6512H74.25C76.3175 21.6512 78 19.9688 78 17.9012V6.75C78 4.6825 76.3175 3 74.25 3ZM75.5 17.9C75.5 18.59 74.9387 19.15 74.25 19.15H62.1112C61.947 19.1502 61.7844 19.1828 61.6328 19.2458C61.4811 19.3089 61.3434 19.4012 61.2275 19.5175L55.23 25.515V20.4C55.23 20.0685 55.0983 19.7505 54.8639 19.5161C54.6294 19.2817 54.3115 19.15 53.98 19.15C53.29 19.15 52.73 18.5887 52.73 17.9V6.75C52.73 6.06125 53.29 5.5 53.98 5.5H74.25C74.9387 5.5 75.5 6.06125 75.5 6.75V17.9Z" fill="#5FB1BA"/>
<path d="M56.0288 11.2173H61.5826C61.9141 11.2173 62.232 11.0856 62.4664 10.8512C62.7009 10.6167 62.8326 10.2988 62.8326 9.96729C62.8326 9.63576 62.7009 9.31782 62.4664 9.0834C62.232 8.84898 61.9141 8.71729 61.5826 8.71729H56.0288C55.6973 8.71729 55.3793 8.84898 55.1449 9.0834C54.9105 9.31782 54.7788 9.63576 54.7788 9.96729C54.7788 10.2988 54.9105 10.6167 55.1449 10.8512C55.3793 11.0856 55.6973 11.2173 56.0288 11.2173Z" fill="#5FB1BA"/>
<path d="M64.9398 13.4336H56.0273C55.6958 13.4336 55.3779 13.5653 55.1435 13.7997C54.909 14.0341 54.7773 14.3521 54.7773 14.6836C54.7773 15.0151 54.909 15.3331 55.1435 15.5675C55.3779 15.8019 55.6958 15.9336 56.0273 15.9336H64.9398C65.2714 15.9336 65.5893 15.8019 65.8237 15.5675C66.0581 15.3331 66.1898 15.0151 66.1898 14.6836C66.1898 14.3521 66.0581 14.0341 65.8237 13.7997C65.5893 13.5653 65.2714 13.4336 64.9398 13.4336Z" fill="#5FB1BA"/>
<path d="M72.2 8.71729H66.6475C66.3159 8.71729 65.998 8.84898 65.7636 9.0834C65.5292 9.31782 65.3975 9.63576 65.3975 9.96729C65.3975 10.2988 65.5292 10.6167 65.7636 10.8512C65.998 11.0856 66.3159 11.2173 66.6475 11.2173H72.2C72.5315 11.2173 72.8494 11.0856 73.0838 10.8512C73.3183 10.6167 73.45 10.2988 73.45 9.96729C73.45 9.63576 73.3183 9.31782 73.0838 9.0834C72.8494 8.84898 72.5315 8.71729 72.2 8.71729Z" fill="#5FB1BA"/>
<path d="M72.1998 13.4336H69.4248C69.0933 13.4336 68.7753 13.5653 68.5409 13.7997C68.3065 14.0341 68.1748 14.3521 68.1748 14.6836C68.1748 15.0151 68.3065 15.3331 68.5409 15.5675C68.7753 15.8019 69.0933 15.9336 69.4248 15.9336H72.1998C72.5313 15.9336 72.8493 15.8019 73.0837 15.5675C73.3181 15.3331 73.4498 15.0151 73.4498 14.6836C73.4498 14.3521 73.3181 14.0341 73.0837 13.7997C72.8493 13.5653 72.5313 13.4336 72.1998 13.4336Z" fill="#5FB1BA"/>
<path d="M25.7675 37.4339C26.4308 37.4339 27.0669 37.1706 27.5362 36.7019C28.0054 36.2331 28.2693 35.5972 28.27 34.9339V30.8552C29.0005 30.5959 29.633 30.117 30.0806 29.4841C30.5282 28.8512 30.769 28.0954 30.77 27.3202V16.1689C30.77 14.1002 29.0887 12.4189 27.02 12.4189H6.75C4.6825 12.4189 3 14.1002 3 16.1689V27.3189C3 29.3877 4.6825 31.0689 6.75 31.0689H18.3713L24.0025 36.7002C24.4825 37.1802 25.1188 37.4339 25.7675 37.4339ZM18.8888 28.5702H6.75C6.06125 28.5702 5.5 28.0077 5.5 27.3202V16.1689C5.5 15.4789 6.06125 14.9189 6.75 14.9189H27.02C27.71 14.9189 28.27 15.4789 28.27 16.1689V27.3189C28.27 28.0089 27.71 28.5689 27.02 28.5689C26.6885 28.5689 26.3705 28.7006 26.1361 28.9351C25.9017 29.1695 25.77 29.4874 25.77 29.8189V34.9327L19.7725 28.9364C19.5381 28.702 19.2202 28.5703 18.8888 28.5702Z" fill="#5FB1BA"/>
<path d="M19.4175 20.6362H24.9712C25.3028 20.6362 25.6207 20.5045 25.8551 20.2701C26.0895 20.0357 26.2212 19.7178 26.2212 19.3862C26.2212 19.0547 26.0895 18.7368 25.8551 18.5023C25.6207 18.2679 25.3028 18.1362 24.9712 18.1362H19.4175C19.086 18.1362 18.768 18.2679 18.5336 18.5023C18.2992 18.7368 18.1675 19.0547 18.1675 19.3862C18.1675 19.7178 18.2992 20.0357 18.5336 20.2701C18.768 20.5045 19.086 20.6362 19.4175 20.6362Z" fill="#5FB1BA"/>
<path d="M26.2213 24.1011C26.2213 23.7696 26.0896 23.4516 25.8552 23.2172C25.6208 22.9828 25.3028 22.8511 24.9713 22.8511H16.0601C15.7285 22.8511 15.4106 22.9828 15.1762 23.2172C14.9418 23.4516 14.8101 23.7696 14.8101 24.1011C14.8101 24.4326 14.9418 24.7505 15.1762 24.985C15.4106 25.2194 15.7285 25.3511 16.0601 25.3511H24.9726C25.3041 25.3511 25.622 25.2194 25.8564 24.985C26.0909 24.7505 26.2213 24.4326 26.2213 24.1011Z" fill="#5FB1BA"/>
<path d="M15.6023 19.3862C15.6023 19.0547 15.4706 18.7368 15.2362 18.5023C15.0018 18.2679 14.6838 18.1362 14.3523 18.1362H8.7998C8.46828 18.1362 8.15034 18.2679 7.91592 18.5023C7.6815 18.7368 7.5498 19.0547 7.5498 19.3862C7.5498 19.7178 7.6815 20.0357 7.91592 20.2701C8.15034 20.5045 8.46828 20.6362 8.7998 20.6362H14.3523C14.6838 20.6362 15.0018 20.5045 15.2362 20.2701C15.4706 20.0357 15.6023 19.7178 15.6023 19.3862Z" fill="#5FB1BA"/>
<path d="M11.5748 22.8511H8.7998C8.46828 22.8511 8.15034 22.9828 7.91592 23.2172C7.6815 23.4516 7.5498 23.7696 7.5498 24.1011C7.5498 24.4326 7.6815 24.7505 7.91592 24.985C8.15034 25.2194 8.46828 25.3511 8.7998 25.3511H11.5748C11.9063 25.3511 12.2243 25.2194 12.4587 24.985C12.6931 24.7505 12.8248 24.4326 12.8248 24.1011C12.8248 23.7696 12.6931 23.4516 12.4587 23.2172C12.2243 22.9828 11.9063 22.8511 11.5748 22.8511Z" fill="#5FB1BA"/>
</svg>
