<svg width="33" height="32" viewBox="0 0 33 32" fill="none" xmlns="http://www.w3.org/2000/svg">
<path d="M3.94025 25.347L3.91358 25.3737C3.55358 24.587 3.32691 23.6937 3.23358 22.707C3.32691 23.6804 3.58025 24.5604 3.94025 25.347Z" fill="#66BA7C"/>
<path d="M12.5007 13.8396C14.2532 13.8396 15.674 12.4189 15.674 10.6663C15.674 8.91373 14.2532 7.49298 12.5007 7.49298C10.7481 7.49298 9.32733 8.91373 9.32733 10.6663C9.32733 12.4189 10.7481 13.8396 12.5007 13.8396Z" fill="#66BA7C"/>
<path d="M22.0872 2.66718H10.9138C6.06051 2.66718 3.16718 5.56051 3.16718 10.4138V21.5872C3.16718 23.0405 3.42051 24.3072 3.91384 25.3738C5.06051 27.9072 7.51384 29.3338 10.9138 29.3338H22.0872C26.9405 29.3338 29.8338 26.4405 29.8338 21.5872V18.5338V10.4138C29.8338 5.56051 26.9405 2.66718 22.0872 2.66718ZM27.6605 16.6672C26.6205 15.7738 24.9405 15.7738 23.9005 16.6672L18.3538 21.4272C17.3138 22.3205 15.6338 22.3205 14.5938 21.4272L14.1405 21.0538C13.1938 20.2272 11.6872 20.1472 10.6205 20.8672L5.63384 24.2138C5.34051 23.4672 5.16718 22.6005 5.16718 21.5872V10.4138C5.16718 6.65384 7.15384 4.66718 10.9138 4.66718H22.0872C25.8472 4.66718 27.8338 6.65384 27.8338 10.4138V16.8138L27.6605 16.6672Z" fill="#66BA7C"/>
</svg>
