<svg width="32" height="32" viewBox="0 0 32 32" fill="none" xmlns="http://www.w3.org/2000/svg">
<path opacity="0.4" d="M29.3333 10.4133V18.5333L27.16 16.6666C26.12 15.7733 24.44 15.7733 23.4 16.6666L17.8533 21.4266C16.8133 22.32 15.1333 22.32 14.0933 21.4266L13.64 21.0533C12.6933 20.2266 11.1866 20.1466 10.12 20.8666L3.55996 25.2666L3.41329 25.3733C2.91996 24.3066 2.66663 23.04 2.66663 21.5866V10.4133C2.66663 5.55996 5.55996 2.66663 10.4133 2.66663H21.5866C26.44 2.66663 29.3333 5.55996 29.3333 10.4133Z" fill="#5FB1BA"/>
<path d="M12.0001 13.8402C13.7527 13.8402 15.1734 12.4194 15.1734 10.6669C15.1734 8.91428 13.7527 7.49353 12.0001 7.49353C10.2475 7.49353 8.82678 8.91428 8.82678 10.6669C8.82678 12.4194 10.2475 13.8402 12.0001 13.8402Z" fill="#5FB1BA"/>
<path d="M29.3327 18.5328V21.5861C29.3327 26.4394 26.4394 29.3328 21.5861 29.3328H10.4127C7.01272 29.3328 4.55939 27.9061 3.41272 25.3728L3.55939 25.2661L10.1194 20.8661C11.1861 20.1461 12.6927 20.2261 13.6394 21.0528L14.0927 21.4261C15.1327 22.3194 16.8127 22.3194 17.8527 21.4261L23.3994 16.6661C24.4394 15.7728 26.1194 15.7728 27.1594 16.6661L29.3327 18.5328Z" fill="#5FB1BA"/>
</svg>
