<svg width="16" height="21" viewBox="0 0 16 21" fill="none" xmlns="http://www.w3.org/2000/svg">
<path d="M14.5 0.25H10.75C10.551 0.25 10.3603 0.329018 10.2196 0.46967C10.079 0.610322 9.99995 0.801088 9.99995 1C9.99995 1.19891 10.079 1.38968 10.2196 1.53033C10.3603 1.67098 10.551 1.75 10.75 1.75H12.6896L10.3318 4.10781C9.63951 3.46262 8.80438 2.99033 7.89467 2.72954C6.98496 2.46875 6.02646 2.42684 5.09746 2.60724C4.16846 2.78764 3.2953 3.18523 2.54931 3.76754C1.80332 4.34985 1.20564 5.10036 0.805108 5.95777C0.404571 6.81519 0.212531 7.75519 0.244673 8.70099C0.276814 9.6468 0.532225 10.5716 0.990045 11.3998C1.44787 12.2281 2.09511 12.9363 2.87891 13.4666C3.66272 13.9969 4.56085 14.3343 5.49995 14.4513V16H3.24995C3.05104 16 2.86028 16.079 2.71962 16.2197C2.57897 16.3603 2.49995 16.5511 2.49995 16.75C2.49995 16.9489 2.57897 17.1397 2.71962 17.2803C2.86028 17.421 3.05104 17.5 3.24995 17.5H5.49995V19.75C5.49995 19.9489 5.57897 20.1397 5.71962 20.2803C5.86028 20.421 6.05104 20.5 6.24995 20.5C6.44887 20.5 6.63963 20.421 6.78028 20.2803C6.92094 20.1397 6.99995 19.9489 6.99995 19.75V17.5H9.24995C9.44887 17.5 9.63963 17.421 9.78028 17.2803C9.92094 17.1397 9.99995 16.9489 9.99995 16.75C9.99995 16.5511 9.92094 16.3603 9.78028 16.2197C9.63963 16.079 9.44887 16 9.24995 16H6.99995V14.4513C8.00526 14.3257 8.96231 13.9473 9.78167 13.3514C10.601 12.7555 11.2559 11.9616 11.6852 11.044C12.1144 10.1263 12.304 9.11473 12.2362 8.10388C12.1684 7.09304 11.8454 6.11588 11.2975 5.26375L13.75 2.81031V4.75C13.75 4.94891 13.829 5.13968 13.9696 5.28033C14.1103 5.42098 14.301 5.5 14.5 5.5C14.6989 5.5 14.8896 5.42098 15.0303 5.28033C15.1709 5.13968 15.25 4.94891 15.25 4.75V1C15.25 0.801088 15.1709 0.610322 15.0303 0.46967C14.8896 0.329018 14.6989 0.25 14.5 0.25ZM6.24995 13C5.35994 13 4.48991 12.7361 3.74989 12.2416C3.00987 11.7471 2.43309 11.0443 2.0925 10.2221C1.7519 9.39981 1.66279 8.49501 1.83642 7.62209C2.01005 6.74918 2.43864 5.94736 3.06797 5.31802C3.69731 4.68868 4.49913 4.2601 5.37205 4.08647C6.24496 3.91283 7.14976 4.00195 7.97203 4.34254C8.7943 4.68314 9.4971 5.25991 9.99157 5.99993C10.486 6.73995 10.75 7.60998 10.75 8.5C10.7487 9.69309 10.2742 10.837 9.43056 11.6806C8.58692 12.5243 7.44305 12.9988 6.24995 13Z" fill="#333333"/>
</svg>
