<svg width="24" height="24" viewBox="0 0 24 24" fill="none" xmlns="http://www.w3.org/2000/svg">
<path d="M12 20.25C7.45 20.25 3.75 16.55 3.75 12C3.75 7.45 7.45 3.75 12 3.75C16.55 3.75 20.25 7.45 20.25 12C20.25 16.55 16.55 20.25 12 20.25ZM12 5.25C8.28 5.25 5.25 8.28 5.25 12C5.25 15.72 8.28 18.75 12 18.75C15.72 18.75 18.75 15.72 18.75 12C18.75 8.28 15.72 5.25 12 5.25Z" fill="white"/>
<path d="M12 15.75C9.93 15.75 8.25 14.07 8.25 12C8.25 9.93 9.93 8.25 12 8.25C14.07 8.25 15.75 9.93 15.75 12C15.75 14.07 14.07 15.75 12 15.75ZM12 9.75C10.76 9.75 9.75 10.76 9.75 12C9.75 13.24 10.76 14.25 12 14.25C13.24 14.25 14.25 13.24 14.25 12C14.25 10.76 13.24 9.75 12 9.75Z" fill="white"/>
<path d="M12 4.75037C11.59 4.75037 11.25 4.41037 11.25 4.00037V2.00037C11.25 1.59037 11.59 1.25037 12 1.25037C12.41 1.25037 12.75 1.59037 12.75 2.00037V4.00037C12.75 4.41037 12.41 4.75037 12 4.75037Z" fill="white"/>
<path d="M4.00049 12.75H2.00049C1.59049 12.75 1.25049 12.41 1.25049 12C1.25049 11.59 1.59049 11.25 2.00049 11.25H4.00049C4.41049 11.25 4.75049 11.59 4.75049 12C4.75049 12.41 4.41049 12.75 4.00049 12.75Z" fill="white"/>
<path d="M12 22.7504C11.59 22.7504 11.25 22.4104 11.25 22.0004V20.0004C11.25 19.5904 11.59 19.2504 12 19.2504C12.41 19.2504 12.75 19.5904 12.75 20.0004V22.0004C12.75 22.4104 12.41 22.7504 12 22.7504Z" fill="white"/>
<path d="M22.0005 12.75H20.0005C19.5905 12.75 19.2505 12.41 19.2505 12C19.2505 11.59 19.5905 11.25 20.0005 11.25H22.0005C22.4105 11.25 22.7505 11.59 22.7505 12C22.7505 12.41 22.4105 12.75 22.0005 12.75Z" fill="white"/>
</svg>
