<svg width="24" height="25" viewBox="0 0 24 25" fill="none" xmlns="http://www.w3.org/2000/svg">
<path d="M12 20.75C7.45 20.75 3.75 17.05 3.75 12.5C3.75 7.95 7.45 4.25 12 4.25C16.55 4.25 20.25 7.95 20.25 12.5C20.25 17.05 16.55 20.75 12 20.75ZM12 5.75C8.28 5.75 5.25 8.78 5.25 12.5C5.25 16.22 8.28 19.25 12 19.25C15.72 19.25 18.75 16.22 18.75 12.5C18.75 8.78 15.72 5.75 12 5.75Z" fill="#66BA7C"/>
<path d="M12 16.25C9.93 16.25 8.25 14.57 8.25 12.5C8.25 10.43 9.93 8.75 12 8.75C14.07 8.75 15.75 10.43 15.75 12.5C15.75 14.57 14.07 16.25 12 16.25ZM12 10.25C10.76 10.25 9.75 11.26 9.75 12.5C9.75 13.74 10.76 14.75 12 14.75C13.24 14.75 14.25 13.74 14.25 12.5C14.25 11.26 13.24 10.25 12 10.25Z" fill="#66BA7C"/>
<path d="M12 5.25049C11.59 5.25049 11.25 4.91049 11.25 4.50049V2.50049C11.25 2.09049 11.59 1.75049 12 1.75049C12.41 1.75049 12.75 2.09049 12.75 2.50049V4.50049C12.75 4.91049 12.41 5.25049 12 5.25049Z" fill="#66BA7C"/>
<path d="M4.00037 13.25H2.00037C1.59037 13.25 1.25037 12.91 1.25037 12.5C1.25037 12.09 1.59037 11.75 2.00037 11.75H4.00037C4.41037 11.75 4.75037 12.09 4.75037 12.5C4.75037 12.91 4.41037 13.25 4.00037 13.25Z" fill="#66BA7C"/>
<path d="M12 23.2505C11.59 23.2505 11.25 22.9105 11.25 22.5005V20.5005C11.25 20.0905 11.59 19.7505 12 19.7505C12.41 19.7505 12.75 20.0905 12.75 20.5005V22.5005C12.75 22.9105 12.41 23.2505 12 23.2505Z" fill="#66BA7C"/>
<path d="M22.0004 13.25H20.0004C19.5904 13.25 19.2504 12.91 19.2504 12.5C19.2504 12.09 19.5904 11.75 20.0004 11.75H22.0004C22.4104 11.75 22.7504 12.09 22.7504 12.5C22.7504 12.91 22.4104 13.25 22.0004 13.25Z" fill="#66BA7C"/>
</svg>
