<svg width="24" height="24" viewBox="0 0 24 24" fill="none" xmlns="http://www.w3.org/2000/svg">
<path d="M17.79 22.75H6.21C3.47 22.75 1.25 20.52 1.25 17.78V10.37C1.25 9.00997 2.09 7.29997 3.17 6.45997L8.56 2.25997C10.18 0.999974 12.77 0.939974 14.45 2.11997L20.63 6.44997C21.82 7.27997 22.75 9.05997 22.75 10.51V17.79C22.75 20.52 20.53 22.75 17.79 22.75ZM9.48 3.43997L4.09 7.63997C3.38 8.19997 2.75 9.46997 2.75 10.37V17.78C2.75 19.69 4.3 21.25 6.21 21.25H17.79C19.7 21.25 21.25 19.7 21.25 17.79V10.51C21.25 9.54997 20.56 8.21997 19.77 7.67997L13.59 3.34997C12.45 2.54997 10.57 2.58997 9.48 3.43997Z" fill="#999999"/>
<path d="M12.3697 17.9545C12.1978 18.0152 11.9146 18.0152 11.7427 17.9545C10.2764 17.4539 7 15.3657 7 11.8264C7 10.264 8.25899 9 9.81124 9C10.7315 9 11.5455 9.44494 12.0562 10.1326C12.5669 9.44494 13.386 9 14.3011 9C15.8534 9 17.1124 10.264 17.1124 11.8264C17.1124 15.3657 13.836 17.4539 12.3697 17.9545Z" stroke="#999999" stroke-width="1.25" stroke-linecap="round" stroke-linejoin="round"/>
</svg>
