<svg width="25" height="22" viewBox="0 0 25 22" fill="none" xmlns="http://www.w3.org/2000/svg">
<path d="M12.5636 20.6028L12.5636 20.6028L12.5592 20.6051C12.541 20.6149 12.5207 20.62 12.5 20.62C12.4793 20.62 12.459 20.6149 12.4408 20.6051L12.4364 20.6028C12.22 20.4882 9.31758 18.9064 6.48056 16.4218C3.60411 13.9028 1.00021 10.6337 1 7.15667C1.00191 5.55757 1.638 4.0245 2.76875 2.89375C3.8995 1.763 5.43257 1.12691 7.03167 1.125C9.07091 1.12512 10.8191 1.99834 11.9002 3.43829L12.5 4.23708L13.0998 3.43829C14.1809 1.99834 15.9291 1.12512 17.9683 1.125C19.5674 1.12691 21.1005 1.763 22.2312 2.89375C23.3621 4.0246 23.9982 5.55784 24 7.15709C23.9996 10.634 21.3958 13.9029 18.5194 16.4218C15.6824 18.9064 12.78 20.4882 12.5636 20.6028Z" stroke="white" stroke-width="1.5"/>
</svg>
