<svg width="24" height="24" viewBox="0 0 24 24" fill="none" xmlns="http://www.w3.org/2000/svg">
<g clip-path="url(#clip0_241_778)">
<path d="M18.0665 17.7956L17.0873 15.8373L16.1082 17.7956H18.0665Z" fill="white"/>
<path d="M21.8916 10.175H20.8954V8.06734C20.8954 7.96902 20.8748 7.87179 20.8348 7.78193C20.7949 7.69208 20.7366 7.61159 20.6637 7.54568C20.5907 7.47976 20.5048 7.42987 20.4113 7.39923C20.3179 7.3686 20.2191 7.3579 20.1213 7.36782C20.0094 7.37916 17.5016 7.66276 16.2531 10.175H15.2314V11.7166C15.2314 13.6547 13.6547 15.2314 11.7167 15.2314H10.175V21.8915C10.175 23.0542 11.1209 24 12.2835 24H21.8916C23.0542 24.0001 24.0001 23.0542 24.0001 21.8916V12.2835C24.0001 11.1209 23.0542 10.175 21.8916 10.175ZM13.6361 19.5955L16.4586 13.9506C16.517 13.8338 16.6067 13.7356 16.7178 13.6669C16.8289 13.5983 16.9569 13.5619 17.0875 13.5619C17.2181 13.5619 17.3461 13.5983 17.4572 13.6669C17.5683 13.7356 17.658 13.8338 17.7164 13.9506L20.5389 19.5955C20.7126 19.9429 20.5718 20.3652 20.2245 20.5389C19.8772 20.7126 19.4548 20.5718 19.2811 20.2245L18.7698 19.2019H15.4052L14.894 20.2245C14.7708 20.4708 14.5224 20.6133 14.2645 20.6133C14.1589 20.6133 14.0516 20.5894 13.9507 20.5389C13.6033 20.3652 13.4625 19.9429 13.6361 19.5955ZM7.57885 5.92224H6.24634C6.33334 6.61885 6.55632 7.20455 6.91262 7.67649C7.26887 7.20455 7.49185 6.61885 7.57885 5.92224Z" fill="white"/>
<path d="M11.7166 13.8251C12.8792 13.8251 13.8251 12.8792 13.8251 11.7166V2.10854C13.8251 0.945896 12.8792 5.84815e-06 11.7166 5.84815e-06H2.10853C0.945891 5.84815e-06 0 0.945896 0 2.10854V11.7166C0 12.8792 0.945891 13.8251 2.10848 13.8251H3.10467V15.9327C3.10467 16.031 3.1253 16.1283 3.16521 16.2181C3.20512 16.308 3.26343 16.3885 3.33638 16.4544C3.40933 16.5203 3.49529 16.5702 3.58871 16.6008C3.68214 16.6315 3.78095 16.6422 3.87877 16.6322C3.9907 16.6209 6.49842 16.3373 7.74694 13.8251H11.7166ZM7.28728 9.79093C7.15915 9.72245 7.03412 9.64831 6.91256 9.56874C6.79101 9.64832 6.66598 9.72246 6.53784 9.79093C5.33813 10.4308 4.14052 10.4381 4.09013 10.4381C3.70181 10.4381 3.387 10.1233 3.387 9.735C3.387 9.34669 3.70181 9.03188 4.09013 9.03188C4.09631 9.03183 4.96383 9.01922 5.82703 8.57569C5.33316 7.94325 4.94391 7.08511 4.83145 5.92219H4.09008C3.70177 5.92219 3.38695 5.60738 3.38695 5.21907C3.38695 4.83076 3.70177 4.51594 4.09008 4.51594H6.20944V4.09008C6.20944 3.70177 6.52425 3.38696 6.91256 3.38696C7.30088 3.38696 7.61569 3.70177 7.61569 4.09008V4.51594H9.735C10.1233 4.51594 10.4381 4.83076 10.4381 5.21907C10.4381 5.60738 10.1233 5.92219 9.735 5.92219H8.99372C8.88122 7.08511 8.49202 7.94325 7.99814 8.57569C8.8613 9.01922 9.72895 9.03179 9.73791 9.03188C10.1262 9.03188 10.4396 9.34669 10.4396 9.735C10.4396 10.1233 10.1233 10.4381 9.735 10.4381C9.68461 10.4381 8.487 10.4308 7.28728 9.79093ZM17.1407 4.02277C17.278 4.16007 17.458 4.22874 17.6379 4.22874C17.8178 4.22874 17.9978 4.16011 18.135 4.02277C18.4096 3.74818 18.4096 3.30301 18.135 3.02841L17.9332 2.82657C20.5211 2.9799 22.5797 5.13352 22.5797 7.75927C22.5797 8.14758 22.8945 8.4624 23.2828 8.4624C23.6711 8.4624 23.9859 8.14758 23.9859 7.75927C23.9859 4.35272 21.2886 1.56469 17.9176 1.41774L18.135 1.20029C18.4096 0.925693 18.4096 0.480521 18.135 0.205928C17.8605 -0.0686191 17.4153 -0.068666 17.1407 0.205928L15.7295 1.61719C15.4549 1.89179 15.4549 2.33696 15.7295 2.61155L17.1407 4.02277ZM6.84525 19.9632C6.5707 19.6886 6.12548 19.6886 5.85089 19.9632C5.5763 20.2378 5.5763 20.6829 5.85089 20.9575L6.05273 21.1594C3.46481 21.0061 1.40625 18.8524 1.40625 16.2267C1.40625 15.8384 1.09144 15.5236 0.703125 15.5236C0.314813 15.5236 0 15.8384 0 16.2267C0 19.6332 2.69733 22.4213 6.06834 22.5682L5.85089 22.7857C5.5763 23.0603 5.5763 23.5054 5.85089 23.78C5.98819 23.9173 6.16814 23.9859 6.34805 23.9859C6.52795 23.9859 6.70795 23.9173 6.8452 23.78L8.25642 22.3688C8.53102 22.0942 8.53102 21.649 8.25642 21.3744L6.84525 19.9632Z" fill="white"/>
</g>
<defs>
<clipPath id="clip0_241_778">
<rect width="24" height="24" fill="white"/>
</clipPath>
</defs>
</svg>
