<svg width="24" height="16" viewBox="0 0 24 16" fill="none" xmlns="http://www.w3.org/2000/svg">
<path d="M0.399985 0.800049C0.347444 0.8 0.295409 0.810312 0.246859 0.830396C0.198308 0.850479 0.154195 0.87994 0.117043 0.917092C0.0798911 0.954244 0.0504303 0.998357 0.0303467 1.04691C0.0102631 1.09546 -4.9152e-05 1.14749 1.76135e-07 1.20003V8.00005C1.76135e-07 8.22125 0.178781 8.40003 0.399985 8.40003C0.621188 8.40003 0.799969 8.22125 0.799969 8.00005V1.20003C0.800024 1.14749 0.789716 1.09545 0.769635 1.0469C0.749554 0.998347 0.720093 0.954231 0.68294 0.917078C0.645787 0.879925 0.601671 0.850464 0.553118 0.830383C0.504564 0.810302 0.452527 0.799994 0.399985 0.800049ZM23.6 0.800049C23.5475 0.8 23.4954 0.810312 23.4469 0.830396C23.3983 0.850479 23.3542 0.87994 23.3171 0.917092C23.2799 0.954244 23.2505 0.998357 23.2304 1.04691C23.2103 1.09546 23.2 1.14749 23.2 1.20003V8.00005C23.2 8.05259 23.2103 8.10462 23.2304 8.15317C23.2505 8.20173 23.2799 8.24584 23.3171 8.28299C23.3542 8.32014 23.3983 8.3496 23.4469 8.36969C23.4954 8.38977 23.5475 8.40008 23.6 8.40003C23.6526 8.40008 23.7046 8.38977 23.7531 8.36969C23.8017 8.3496 23.8458 8.32014 23.883 8.28299C23.9201 8.24584 23.9496 8.20173 23.9697 8.15317C23.9897 8.10462 24 8.05259 24 8.00005V1.20003C24 1.14749 23.9897 1.09546 23.9697 1.04691C23.9496 0.998357 23.9201 0.954244 23.883 0.917092C23.8458 0.87994 23.8017 0.850479 23.7531 0.830396C23.7046 0.810312 23.6526 0.8 23.6 0.800049ZM23.8 9.60003H22.2004C22.1473 9.60005 22.0965 9.62112 22.059 9.65863C22.0214 9.69614 22.0004 9.747 22.0004 9.80005L22.0008 10.7997C22.0008 11.0209 21.822 11.2001 21.6008 11.2001C21.38 11.2001 21.2008 11.0213 21.2008 10.8005L21.2004 9.80005C21.2004 9.747 21.1793 9.69614 21.1418 9.65863C21.1043 9.62112 21.0534 9.60005 21.0004 9.60003H19.8004C19.7473 9.60005 19.6965 9.62112 19.659 9.65863C19.6215 9.69614 19.6004 9.747 19.6004 9.80005L19.6007 11.6C19.6008 11.6526 19.5904 11.7046 19.5703 11.7531C19.5502 11.8017 19.5208 11.8458 19.4836 11.8829C19.4465 11.9201 19.4024 11.9495 19.3538 11.9696C19.3053 11.9897 19.2533 12.0001 19.2008 12C19.1482 12.0001 19.0962 11.9897 19.0477 11.9696C18.9991 11.9495 18.955 11.9201 18.9179 11.8829C18.8807 11.8458 18.8513 11.8017 18.8312 11.7531C18.8111 11.7046 18.8007 11.6526 18.8008 11.6L18.8 9.80005C18.8 9.747 18.7789 9.69614 18.7414 9.65863C18.7039 9.62112 18.653 9.60005 18.6 9.60003H17.4C17.3469 9.60005 17.296 9.62112 17.2585 9.65863C17.221 9.69614 17.2 9.747 17.1999 9.80005L17.2004 10.8C17.2004 10.8526 17.19 10.9046 17.17 10.9531C17.1499 11.0017 17.1204 11.0458 17.0832 11.0829C17.0461 11.1201 17.002 11.1495 16.9535 11.1696C16.9049 11.1897 16.8529 11.2 16.8004 11.2C16.7478 11.2 16.6958 11.1897 16.6473 11.1696C16.5987 11.1495 16.5546 11.1201 16.5175 11.0829C16.4804 11.0458 16.4509 11.0017 16.4308 10.9531C16.4107 10.9046 16.4004 10.8526 16.4004 10.8L16.4 9.80005C16.4 9.747 16.3789 9.69614 16.3414 9.65863C16.3039 9.62112 16.253 9.60005 16.2 9.60003H15C14.947 9.60005 14.8961 9.62112 14.8586 9.65863C14.8211 9.69614 14.8 9.747 14.8 9.80005L14.8004 11.6C14.8004 11.6526 14.7901 11.7046 14.77 11.7531C14.7499 11.8017 14.7204 11.8458 14.6833 11.8829C14.6461 11.9201 14.602 11.9495 14.5535 11.9696C14.505 11.9897 14.453 12.0001 14.4004 12C14.3479 12.0001 14.2959 11.9897 14.2473 11.9696C14.1988 11.9495 14.1547 11.9201 14.1175 11.8829C14.0804 11.8458 14.0509 11.8017 14.0308 11.7531C14.0108 11.7046 14.0004 11.6526 14.0004 11.6L14 9.80005C14 9.747 13.9789 9.69614 13.9414 9.65863C13.9039 9.62112 13.853 9.60005 13.8 9.60003H12.6C12.547 9.60005 12.4961 9.62112 12.4586 9.65863C12.4211 9.69614 12.4 9.747 12.4 9.80005L12.4004 10.8C12.4004 10.8526 12.3901 10.9046 12.37 10.9531C12.3499 11.0017 12.3204 11.0458 12.2833 11.0829C12.2461 11.1201 12.202 11.1495 12.1535 11.1696C12.105 11.1897 12.053 11.2 12.0004 11.2C11.9479 11.2 11.8959 11.1897 11.8473 11.1696C11.7988 11.1495 11.7547 11.1201 11.7175 11.0829C11.6804 11.0458 11.6509 11.0017 11.6308 10.9531C11.6108 10.9046 11.6004 10.8526 11.6004 10.8L11.6 9.80005C11.6 9.747 11.5789 9.69614 11.5414 9.65863C11.5039 9.62112 11.453 9.60005 11.4 9.60003H10.2C10.147 9.60005 10.0961 9.62112 10.0586 9.65863C10.0211 9.69614 10 9.747 9.99998 9.80005L10.0004 11.6C10.0004 11.6526 9.99004 11.7046 9.96995 11.7531C9.94985 11.8017 9.92039 11.8458 9.88325 11.8829C9.8461 11.9201 9.802 11.9495 9.75346 11.9696C9.70493 11.9897 9.65291 12.0001 9.60038 12C9.54784 12.0001 9.49582 11.9897 9.44729 11.9696C9.39875 11.9495 9.35465 11.9201 9.3175 11.8829C9.28036 11.8458 9.25089 11.8017 9.2308 11.7531C9.21071 11.7046 9.20037 11.6526 9.20039 11.6L9.19997 9.80005C9.19996 9.747 9.17888 9.69614 9.14137 9.65863C9.10386 9.62112 9.053 9.60005 8.99995 9.60003H7.79995C7.74691 9.60005 7.69604 9.62112 7.65853 9.65863C7.62103 9.69614 7.59995 9.747 7.59994 9.80005L7.60031 10.8C7.60033 10.8526 7.59 10.9046 7.5699 10.9531C7.54981 11.0017 7.52035 11.0458 7.4832 11.0829C7.44605 11.1201 7.40195 11.1495 7.35342 11.1696C7.30488 11.1897 7.25286 11.2 7.20033 11.2C7.1478 11.2 7.09578 11.1897 7.04724 11.1696C6.9987 11.1495 6.9546 11.1201 6.91745 11.0829C6.88031 11.0458 6.85085 11.0017 6.83075 10.9531C6.81066 10.9046 6.80033 10.8526 6.80034 10.8L6.79992 9.80005C6.79991 9.747 6.77883 9.69614 6.74132 9.65863C6.70382 9.62112 6.65295 9.60005 6.59991 9.60003H5.39991C5.34686 9.60005 5.296 9.62112 5.25849 9.65863C5.22098 9.69614 5.1999 9.747 5.19989 9.80005L5.20031 11.6C5.20033 11.6526 5.19 11.7046 5.1699 11.7531C5.14981 11.8017 5.12035 11.8458 5.0832 11.8829C5.04606 11.9201 5.00195 11.9495 4.95342 11.9696C4.90488 11.9897 4.85286 12.0001 4.80033 12C4.7478 12.0001 4.69578 11.9897 4.64724 11.9696C4.5987 11.9495 4.5546 11.9201 4.51746 11.8829C4.48031 11.8458 4.45085 11.8017 4.43075 11.7531C4.41066 11.7046 4.40033 11.6526 4.40034 11.6L4.39997 9.80005C4.39996 9.747 4.37888 9.69614 4.34137 9.65863C4.30386 9.62112 4.253 9.60005 4.19995 9.60003H3C2.94696 9.60005 2.89609 9.62112 2.85858 9.65863C2.82107 9.69614 2.8 9.747 2.79998 9.80005V10.8C2.79998 11.0212 2.6212 11.2 2.4 11.2C2.1788 11.2 2.00002 11.0212 2.00002 10.8V9.80005C2 9.747 1.97893 9.69614 1.94142 9.65863C1.90391 9.62112 1.85304 9.60005 1.8 9.60003H0.200016C0.146972 9.60005 0.0961046 9.62112 0.0585971 9.65863C0.0210896 9.69614 1.26029e-05 9.747 1.76135e-07 9.80005V15C1.26029e-05 15.0531 0.0210896 15.1039 0.0585971 15.1415C0.0961046 15.179 0.146972 15.2 0.200016 15.2H23.8C23.8531 15.2 23.9039 15.179 23.9415 15.1415C23.979 15.1039 24 15.0531 24 15V9.80005C24 9.747 23.9789 9.69614 23.9414 9.65864C23.9039 9.62114 23.853 9.60006 23.8 9.60003ZM22.314 4.54363L20.4568 2.14363C20.3564 2.01402 20.1916 1.96724 20.0448 2.02363C19.898 2.08124 19.8 2.23161 19.8 2.40003V4.40005H4.2V2.39966C4.2 2.23124 4.10198 2.08086 3.95522 2.02367C3.80841 1.96649 3.64402 2.01369 3.54323 2.14367L1.68605 4.54405C1.62886 4.61806 1.60003 4.70924 1.60003 4.80003C1.60003 4.89083 1.62881 4.98205 1.68605 5.05644L3.54323 7.45644C3.61523 7.54925 3.72042 7.60002 3.82842 7.60002C3.87084 7.60002 3.91364 7.592 3.95484 7.57602C4.10166 7.51841 4.19963 7.36803 4.19963 7.20003V5.20002H19.7996V7.20003C19.7996 7.36845 19.8976 7.51883 20.0444 7.57602C20.0847 7.59177 20.1276 7.59991 20.1708 7.60002C20.2788 7.60002 20.384 7.5492 20.4564 7.45644L22.3136 5.05644C22.3712 4.98205 22.4 4.89125 22.4 4.80003C22.4 4.70881 22.3712 4.61806 22.314 4.54363Z" fill="white"/>
</svg>
