<svg width="29" height="29" viewBox="0 0 29 29" fill="none" xmlns="http://www.w3.org/2000/svg">
<path d="M19.8339 21.7916H18.0723C17.5939 21.7916 17.1973 21.3949 17.1973 20.9166C17.1973 20.4383 17.5939 20.0416 18.0723 20.0416H19.8339C22.8906 20.0416 25.3756 17.5566 25.3756 14.4999C25.3756 11.4433 22.8906 8.95825 19.8339 8.95825H18.0839C17.6056 8.95825 17.2089 8.56159 17.2089 8.08325C17.2089 7.60492 17.5939 7.20825 18.0839 7.20825H19.8339C23.8589 7.20825 27.1256 10.4749 27.1256 14.4999C27.1256 18.5249 23.8589 21.7916 19.8339 21.7916Z" fill="#66BA7C"/>
<path d="M11.0837 21.7916H9.33366C5.30866 21.7916 2.04199 18.5249 2.04199 14.4999C2.04199 10.4749 5.30866 7.20825 9.33366 7.20825H11.0837C11.562 7.20825 11.9587 7.60492 11.9587 8.08325C11.9587 8.56159 11.562 8.95825 11.0837 8.95825H9.33366C6.27699 8.95825 3.79199 11.4433 3.79199 14.4999C3.79199 17.5566 6.27699 20.0416 9.33366 20.0416H11.0837C11.562 20.0416 11.9587 20.4383 11.9587 20.9166C11.9587 21.3949 11.562 21.7916 11.0837 21.7916Z" fill="#66BA7C"/>
<path d="M19.2503 15.375H9.91699C9.43866 15.375 9.04199 14.9783 9.04199 14.5C9.04199 14.0217 9.43866 13.625 9.91699 13.625H19.2503C19.7287 13.625 20.1253 14.0217 20.1253 14.5C20.1253 14.9783 19.7287 15.375 19.2503 15.375Z" fill="#66BA7C"/>
</svg>
