<svg width="33" height="32" viewBox="0 0 33 32" fill="none" xmlns="http://www.w3.org/2000/svg">
<path opacity="0.4" d="M28.0935 11.2667C26.6935 5.10667 21.3201 2.33334 16.6001 2.33334C16.6001 2.33334 16.6001 2.33334 16.5868 2.33334C11.8801 2.33334 6.49347 5.09334 5.09347 11.2533C3.53347 18.1333 7.7468 23.96 11.5601 27.6267C12.9735 28.9867 14.7868 29.6667 16.6001 29.6667C18.4135 29.6667 20.2268 28.9867 21.6268 27.6267C25.4401 23.96 29.6535 18.1467 28.0935 11.2667Z" fill="#5FB1BA"/>
<path d="M16.5995 17.9469C18.9191 17.9469 20.7995 16.0665 20.7995 13.7469C20.7995 11.4273 18.9191 9.54688 16.5995 9.54688C14.2799 9.54688 12.3995 11.4273 12.3995 13.7469C12.3995 16.0665 14.2799 17.9469 16.5995 17.9469Z" fill="#5FB1BA"/>
</svg>
