<svg width="33" height="32" viewBox="0 0 33 32" fill="none" xmlns="http://www.w3.org/2000/svg">
<g clip-path="url(#clip0_548_1308)">
<path d="M16.7197 31.9785C16.5818 31.9488 13.3057 31.2241 9.98141 29.4175C5.41403 26.9353 2.99997 23.6001 2.99997 19.7725V4.72313C2.99997 4.20363 3.41966 3.7825 3.93747 3.7825C8.91378 3.7825 11.8815 2.84425 13.6521 2.05688C15.4865 1.24125 16.1201 0.41844 16.1748 0.35744C16.582 -0.15356 17.3273 -0.105248 17.6677 0.42919C17.7246 0.50394 18.4787 1.29688 20.1467 2.08544C21.7848 2.85963 24.9614 3.7825 29.8989 3.7825C30.4165 3.7825 30.8364 4.20363 30.8364 4.72313V19.7725C30.8364 23.6001 28.4223 26.9353 23.855 29.4175C20.5307 31.2241 17.2546 31.9488 17.1167 31.9785C16.9859 32.0071 16.8505 32.0071 16.7197 31.9785Z" fill="#5FB1BA"/>
<path d="M29.8989 3.7825C24.9614 3.7825 21.7849 2.85962 20.1467 2.08518C18.4787 1.29687 17.7246 0.503934 17.6677 0.429184C17.5041 0.172309 17.2363 0.00905933 16.9182 0.00143433V32C17.4868 32 30.8364 28.8552 30.8364 19.7722V4.72312C30.8364 4.20362 30.4165 3.7825 29.8989 3.7825Z" fill="#5FB1BA"/>
<path d="M14.1086 15.3831V12.2163C14.1086 10.7485 15.2646 9.42595 16.9465 9.42595C18.48 9.42595 19.7278 10.6777 19.7278 12.2163C19.7278 12.7358 20.1474 13.1569 20.6653 13.1569C21.1828 13.1569 21.6028 12.7358 21.6028 12.2163C21.6028 9.72139 19.6162 7.54489 16.8899 7.54489C14.3225 7.54489 12.2336 9.64058 12.2336 12.2163V15.383L14.1086 15.3831Z" fill="#E1E4F9"/>
<path d="M16.9182 7.54495V9.42601C18.5405 9.42601 19.7278 10.7273 19.7278 12.2163C19.7278 12.7358 20.1474 13.157 20.6653 13.157C21.1828 13.157 21.6028 12.7358 21.6028 12.2163C21.6028 9.69483 19.5794 7.54495 16.9182 7.54495Z" fill="#D6DAF6"/>
<path d="M22.5432 15.0696H11.2932C10.7754 15.0696 10.3557 15.4908 10.3557 16.01V23.5347C10.3557 24.0542 10.7754 24.4753 11.2932 24.4753H22.5432C23.0608 24.4753 23.4804 24.0542 23.4804 23.5347V16.01C23.4804 15.4908 23.0608 15.0696 22.5432 15.0696ZM16.9182 20.7129C16.4004 20.7129 15.9807 20.2918 15.9807 19.7725C15.9807 19.253 16.4004 18.8318 16.9182 18.8318C17.4358 18.8318 17.8557 19.253 17.8557 19.7725C17.8557 20.2918 17.4358 20.7129 16.9182 20.7129Z" fill="white"/>
<path d="M22.5432 15.0696H16.9182V18.8318C17.4358 18.8318 17.8557 19.253 17.8557 19.7725C17.8557 20.2918 17.4358 20.7129 16.9182 20.7129V24.4754H22.5432C23.0608 24.4754 23.4804 24.0542 23.4804 23.5347V16.01C23.4804 15.4908 23.0608 15.0696 22.5432 15.0696Z" fill="white"/>
</g>
<defs>
<clipPath id="clip0_548_1308">
<rect width="32" height="32" fill="white" transform="translate(0.5)"/>
</clipPath>
</defs>
</svg>
