<svg width="24" height="25" viewBox="0 0 24 25" fill="none" xmlns="http://www.w3.org/2000/svg">
<path d="M17.44 15.8699C17.25 15.8699 17.06 15.7999 16.91 15.6499C16.62 15.3599 16.62 14.8799 16.91 14.5899L18.94 12.5599L16.91 10.5299C16.62 10.2399 16.62 9.75994 16.91 9.46994C17.2 9.17994 17.68 9.17994 17.97 9.46994L20.53 12.0299C20.82 12.3199 20.82 12.7999 20.53 13.0899L17.97 15.6499C17.82 15.7999 17.63 15.8699 17.44 15.8699Z" fill="#F56C6C"/>
<path d="M19.93 13.3101H9.76001C9.35001 13.3101 9.01001 12.9701 9.01001 12.5601C9.01001 12.1501 9.35001 11.8101 9.76001 11.8101H19.93C20.34 11.8101 20.68 12.1501 20.68 12.5601C20.68 12.9701 20.34 13.3101 19.93 13.3101Z" fill="#F56C6C"/>
<path d="M11.76 21.25C6.61001 21.25 3.01001 17.65 3.01001 12.5C3.01001 7.35 6.61001 3.75 11.76 3.75C12.17 3.75 12.51 4.09 12.51 4.5C12.51 4.91 12.17 5.25 11.76 5.25C7.49001 5.25 4.51001 8.23 4.51001 12.5C4.51001 16.77 7.49001 19.75 11.76 19.75C12.17 19.75 12.51 20.09 12.51 20.5C12.51 20.91 12.17 21.25 11.76 21.25Z" fill="#F56C6C"/>
</svg>
