<svg width="95" height="151" viewBox="0 0 95 151" fill="none" xmlns="http://www.w3.org/2000/svg">
<path d="M1.72445 0.805889C1.61724 0.405789 1.20599 0.16835 0.805889 0.275555C0.405789 0.38276 0.16835 0.794011 0.275555 1.19411L1.72445 0.805889ZM94.1709 148.73C94.5742 148.636 94.8246 148.232 94.7303 147.829L93.1924 141.257C93.098 140.853 92.6946 140.603 92.2912 140.697C91.8879 140.792 91.6375 141.195 91.7318 141.598L93.0988 147.441L87.2567 148.808C86.8533 148.902 86.6029 149.305 86.6973 149.709C86.7916 150.112 87.1951 150.363 87.5984 150.268L94.1709 148.73ZM0.275555 1.19411C5.07185 19.0944 15.4819 47.9176 31.1373 76.2715C46.7857 104.613 67.7212 132.57 93.6044 148.637L94.3956 147.363C68.832 131.494 48.0494 103.798 32.4504 75.5464C16.8585 47.3076 6.49198 18.5989 1.72445 0.805889L0.275555 1.19411Z" fill="#E3E4E8"/>
</svg>
