<svg width="81" height="81" viewBox="0 0 81 81" fill="none" xmlns="http://www.w3.org/2000/svg">
<path d="M56.1235 30.2353C55.9941 30.2353 55.8647 30.2129 55.74 30.1706C55.0953 29.9471 39.9541 24.5718 39.9541 11.9906C39.9541 6.95177 44.0541 2.85294 49.0918 2.85294C50.4344 2.85381 51.7602 3.15122 52.9746 3.72392C54.1889 4.29661 55.2618 5.13047 56.1165 6.16588C56.9711 5.1268 58.0459 4.29057 59.2632 3.71763C60.4805 3.14468 61.8099 2.84934 63.1553 2.85294C68.1788 2.85294 72.2647 6.95177 72.2647 11.9906C72.2647 24.5706 57.1518 29.9482 56.5082 30.1706C56.3844 30.2131 56.2544 30.235 56.1235 30.2353ZM49.0918 5.20588C47.2929 5.20775 45.5683 5.92317 44.2963 7.19514C43.0243 8.46712 42.3089 10.1917 42.3071 11.9906C42.3071 21.8647 53.8482 26.9047 56.1235 27.8012C58.3941 26.9035 69.9118 21.8647 69.9118 11.9906C69.9118 8.24941 66.8812 5.20588 63.1553 5.20588C61.9215 5.20183 60.7104 5.53703 59.6543 6.17485C58.5982 6.81266 57.7378 7.72853 57.1671 8.82235C57.068 9.01218 56.9191 9.17136 56.7362 9.2827C56.5533 9.39404 56.3435 9.45331 56.1294 9.45412H56.1235C55.9103 9.45398 55.7011 9.39589 55.5183 9.28606C55.3356 9.17623 55.1861 9.0188 55.0859 8.83059C54.5101 7.73906 53.6479 6.82495 52.5919 6.18636C51.5358 5.54777 50.3259 5.20882 49.0918 5.20588ZM62.0059 78.1471C61.8765 78.1471 61.7471 78.1259 61.6223 78.0835C60.9776 77.86 45.8365 72.4847 45.8365 59.9024C45.8365 54.8635 49.9365 50.7647 54.9741 50.7647C56.3167 50.7657 57.6425 51.0631 58.8569 51.6358C60.0712 52.2085 61.1441 53.0423 61.9988 54.0776C62.8535 53.0386 63.9283 52.2024 65.1456 51.6295C66.3629 51.0566 67.6923 50.7612 69.0376 50.7647C74.0612 50.7647 78.1471 54.8635 78.1471 59.9024C78.1471 72.4835 63.0341 77.86 62.3906 78.0835C62.2667 78.1256 62.1367 78.1471 62.0059 78.1471ZM54.9741 53.1176C53.1753 53.1195 51.4506 53.8349 50.1787 55.1069C48.9067 56.3789 48.1913 58.1035 48.1894 59.9024C48.1894 69.8 59.7306 74.82 62.0047 75.7141C64.2765 74.8176 75.7941 69.7777 75.7941 59.9024C75.7941 56.1612 72.7635 53.1176 69.0376 53.1176C67.804 53.1135 66.593 53.4485 65.5369 54.0861C64.4808 54.7237 63.6203 55.6393 63.0494 56.7329C62.9504 56.9228 62.8014 57.082 62.6185 57.1933C62.4357 57.3046 62.2259 57.3639 62.0118 57.3647H62.0059C61.7928 57.3647 61.5837 57.3068 61.4009 57.1972C61.2182 57.0875 61.0686 56.9303 60.9682 56.7424C60.3922 55.6511 59.5299 54.7373 58.4739 54.099C57.4179 53.4606 56.2081 53.1218 54.9741 53.1188V53.1176ZM19.0223 54.1918C18.8929 54.1918 18.7635 54.1706 18.6376 54.1271C17.9941 53.9047 2.85294 48.5271 2.85294 35.9471C2.85294 30.9082 6.95176 26.8094 11.9906 26.8094C13.3332 26.8102 14.6591 27.1076 15.8734 27.6803C17.0878 28.253 18.1606 29.0869 19.0153 30.1224C19.8699 29.0833 20.9447 28.247 22.162 27.6741C23.3793 27.1012 24.7087 26.8058 26.0541 26.8094C31.0776 26.8094 35.1635 30.9082 35.1635 35.9471C35.1635 48.5282 20.0506 53.9059 19.4071 54.1282C19.2832 54.1708 19.1533 54.1915 19.0223 54.1918ZM11.9906 29.1612C10.1917 29.163 8.46711 29.8785 7.19514 31.1504C5.92316 32.4224 5.20775 34.147 5.20588 35.9459C5.20588 45.8435 16.7471 50.8647 19.0212 51.7576C21.2918 50.8612 32.8094 45.8212 32.8094 35.9459C32.8094 32.2047 29.78 29.1612 26.0541 29.1612C24.8204 29.1571 23.6092 29.4923 22.5531 30.1301C21.497 30.768 20.6366 31.6838 20.0659 32.7777C19.9668 32.9674 19.8178 33.1265 19.6349 33.2378C19.4521 33.3492 19.2423 33.4085 19.0282 33.4094H19.0223C18.8091 33.4093 18.5999 33.3512 18.4172 33.2414C18.2344 33.1315 18.0849 32.9741 17.9847 32.7859C17.4089 31.6944 16.5467 30.7802 15.4907 30.1417C14.4347 29.5031 13.2247 29.1641 11.9906 29.1612Z" fill="#5FB1BA"/>
<path d="M47.7706 57.7118C47.5699 57.7119 47.3727 57.6604 47.1976 57.5624L28.9035 47.3624C28.7643 47.2895 28.6411 47.1894 28.5412 47.0682C28.4413 46.9469 28.3667 46.8069 28.3218 46.6563C28.2769 46.5057 28.2626 46.3477 28.2798 46.1915C28.297 46.0353 28.3453 45.8842 28.4218 45.747C28.4984 45.6098 28.6016 45.4893 28.7255 45.3926C28.8494 45.2959 28.9913 45.2251 29.143 45.1842C29.2947 45.1433 29.4531 45.1332 29.6088 45.1545C29.7644 45.1758 29.9143 45.2281 30.0494 45.3082L48.3435 55.5082C48.5709 55.6353 48.7497 55.8341 48.8518 56.0737C48.954 56.3132 48.9739 56.5799 48.9082 56.8319C48.8425 57.0839 48.6951 57.307 48.489 57.4663C48.2829 57.6255 48.031 57.7118 47.7706 57.7118ZM32.7247 32.8294C32.4706 32.8298 32.2232 32.7479 32.0195 32.5959C31.8159 32.444 31.6669 32.2302 31.5948 31.9865C31.5228 31.7428 31.5316 31.4824 31.6199 31.2441C31.7082 31.0058 31.8712 30.8026 32.0847 30.6647L45.567 21.9471C45.8291 21.7776 46.1478 21.7193 46.4529 21.7848C46.7581 21.8503 47.0247 22.0344 47.1941 22.2965C47.3635 22.5586 47.4219 22.8772 47.3564 23.1824C47.2908 23.4875 47.1068 23.7541 46.8447 23.9235L33.3623 32.6412C33.1724 32.7642 32.951 32.8295 32.7247 32.8294Z" fill="#5FB1BA"/>
</svg>
