<svg width="120" height="120" viewBox="0 0 120 120" fill="none" xmlns="http://www.w3.org/2000/svg">
<mask id="mask0_228_4900" style="mask-type:luminance" maskUnits="userSpaceOnUse" x="0" y="0" width="120" height="120">
<path d="M119 119V1.00035H1V119H119Z" fill="white" stroke="white" stroke-width="2"/>
</mask>
<g mask="url(#mask0_228_4900)">
<path d="M33.4382 80.5348L29.7637 104.329C29.5661 105.608 30.4431 106.805 31.7223 107.003L104.321 118.214C105.601 118.412 106.798 117.535 106.995 116.256L108.873 104.099L110.241 95.2355L118.214 43.6105C118.412 42.3313 117.535 41.1341 116.256 40.9366L80.0843 35.3505" stroke="#D5D7DC" stroke-width="2" stroke-miterlimit="10" stroke-linecap="round" stroke-linejoin="round"/>
<path d="M40.9764 80.2284L37.847 100.491L100.446 110.159L110.131 47.4481L80.3487 42.8487" stroke="#D5D7DC" stroke-width="2" stroke-miterlimit="10" stroke-linecap="round" stroke-linejoin="round"/>
<path d="M77.5615 1.75807H4.1018C2.80735 1.75807 1.75806 2.80737 1.75806 4.10182V77.6082C1.75806 78.9024 2.80735 79.9519 4.1018 79.9519H77.5615C78.8559 79.9519 79.9052 78.9024 79.9052 77.6082V4.10182C79.9052 2.80737 78.8559 1.75807 77.5615 1.75807Z" stroke="#D5D7DC" stroke-width="2" stroke-miterlimit="10" stroke-linecap="round" stroke-linejoin="round"/>
<path d="M9.16077 27.2634V72.582H72.5018V9.12801H9.16077V17.9147" stroke="#D5D7DC" stroke-width="2" stroke-miterlimit="10" stroke-linecap="round" stroke-linejoin="round"/>
<path d="M49.7319 24.4759C45.7574 24.4759 42.34 27.1327 40.8306 30.9392C39.3215 27.1327 35.9041 24.4759 31.9293 24.4759C26.5574 24.4759 22.2023 29.3286 22.2023 35.315C22.2023 49.017 40.8306 56.5837 40.8306 56.5837C40.8306 56.5837 59.2754 48.9145 59.4589 35.315C59.5398 29.3293 55.104 24.4759 49.7319 24.4759Z" stroke="#D5D7DC" stroke-width="2" stroke-miterlimit="10" stroke-linecap="round" stroke-linejoin="round"/>
</g>
</svg>
