<svg width="33" height="32" viewBox="0 0 33 32" fill="none" xmlns="http://www.w3.org/2000/svg">
<path d="M2.44825 30.7265C2.48396 30.7404 2.5237 30.7398 2.55896 30.7248C2.59423 30.7098 2.62224 30.6816 2.637 30.6462C3.47613 28.6321 9.02194 15.9962 18.4264 9.93881C8.9125 14.613 3.79619 26.668 2.36325 30.5386C2.34985 30.5748 2.35126 30.6148 2.36717 30.65C2.38308 30.6852 2.41221 30.7127 2.44825 30.7265ZM3.74925 17.8601C3.79732 17.5596 3.91298 17.2738 4.0875 17.0244C3.66948 17.0048 3.26795 16.8555 2.93869 16.5972C2.93167 17.012 2.80922 17.4166 2.58506 17.7656C2.99678 17.7993 3.39083 17.9476 3.72256 18.1938C3.72278 18.082 3.7317 17.9705 3.74925 17.8601Z" fill="#BFE0E3"/>
<path d="M4.12629 16.4006C4.37322 16.4072 4.6193 16.3689 4.85254 16.2875C4.92718 16.2628 5.00822 16.266 5.08073 16.2964C5.15324 16.3267 5.21233 16.3823 5.24712 16.4528C5.28191 16.5233 5.29006 16.604 5.27006 16.68C5.25006 16.756 5.20326 16.8222 5.13829 16.8665C4.22354 17.4928 4.27116 18.2092 4.45891 18.8902C4.48127 18.9705 4.47379 19.0562 4.43787 19.1315C4.40194 19.2068 4.34 19.2665 4.26347 19.2996C4.21852 19.3196 4.16987 19.33 4.12066 19.3301C4.06642 19.33 4.01294 19.3172 3.96462 19.2926C3.91629 19.2679 3.87448 19.2322 3.8426 19.1883C3.76414 19.0808 3.67672 18.9802 3.58129 18.8875C3.29516 21.4909 3.98485 23.5239 4.38579 24.4449C7.1471 19.1022 11.8559 12.1924 18.7779 9.08343C18.9138 9.02257 19.0678 9.01583 19.2085 9.06457C19.3492 9.11331 19.4661 9.21387 19.5352 9.34576C19.6043 9.47765 19.6206 9.63093 19.5806 9.77438C19.5407 9.91784 19.4475 10.0407 19.3202 10.1178C13.1307 13.8649 8.57079 20.5887 5.88954 25.4276C6.4422 25.5242 7.00326 25.5642 7.56404 25.5469C8.62547 25.5215 10.2428 25.3032 12.1506 24.4507C11.7354 24.241 11.3579 23.9637 11.0337 23.6301C10.9844 23.5803 10.9507 23.5173 10.9367 23.4486C10.9228 23.38 10.9291 23.3088 10.955 23.2437C10.9808 23.1786 11.0251 23.1224 11.0824 23.0821C11.1396 23.0418 11.2074 23.019 11.2774 23.0166C12.411 22.9567 13.5269 22.7096 14.5798 22.2854C16.4241 21.5491 17.8897 20.3644 18.943 18.7604C18.0739 18.8791 16.467 18.9191 15.5383 18.4316C15.4684 18.3951 15.4108 18.3387 15.3727 18.2696C15.3347 18.2005 15.3178 18.1217 15.3244 18.0431C15.3309 17.9644 15.3605 17.8895 15.4094 17.8276C15.4584 17.7657 15.5245 17.7196 15.5995 17.6951C15.7635 17.6417 15.9986 17.5861 16.2963 17.5156C17.9251 17.1298 21.2144 16.3506 23.1158 13.6981C22.568 13.7522 21.8588 13.7668 21.3605 13.5771C21.3167 13.5603 21.2768 13.5349 21.2431 13.5023C21.2095 13.4696 21.1828 13.4305 21.1647 13.3873C21.1466 13.344 21.1375 13.2975 21.1379 13.2507C21.1383 13.2038 21.1482 13.1575 21.1671 13.1146C21.8162 11.6338 23.6415 9.59256 25.2254 8.08431C25.0311 7.95996 24.8143 7.87502 24.5873 7.83431C24.5119 7.82004 24.4439 7.77963 24.3954 7.7202C24.3469 7.66077 24.3208 7.58613 24.3219 7.5094C24.323 7.43267 24.3511 7.35877 24.4012 7.30072C24.4514 7.24266 24.5205 7.20416 24.5962 7.192C25.6393 7.02356 25.9535 6.17912 26.048 5.69075C26.0629 5.61307 26.1039 5.54286 26.1644 5.49186C26.2248 5.44085 26.301 5.41215 26.38 5.41056C26.4633 5.40833 26.5447 5.436 26.6093 5.48855C26.674 5.54111 26.7176 5.61507 26.7325 5.69706C26.7721 5.98443 26.8638 6.26216 27.0031 6.51662C27.8871 5.80193 29.2287 4.81543 30.2608 4.48737C23.2868 1.75743 18.3988 5.04575 17.475 5.74493C17.4135 5.79143 17.34 5.81937 17.2632 5.82547C17.1863 5.83156 17.1093 5.81556 17.0412 5.77934C16.9732 5.74311 16.9169 5.68819 16.879 5.62104C16.8411 5.55388 16.8232 5.4773 16.8274 5.40031C16.8501 5.00235 16.9315 4.60994 17.069 4.23581C9.81904 5.74406 8.67285 10.5978 8.17772 12.6933C8.02198 13.3524 7.95091 13.6532 7.71704 13.7833C7.66831 13.8106 7.61437 13.8273 7.55874 13.8323C7.50312 13.8374 7.44706 13.8306 7.39422 13.8125C6.7586 13.5992 6.72329 12.5429 6.77291 11.7937C5.55722 13.2558 4.66879 14.8019 4.12629 16.4006Z" fill="#5FB1BA"/>
<path d="M26.3352 8.425C26.3861 8.32581 26.4446 8.23072 26.5102 8.14056C26.6897 7.89484 26.9227 7.69309 27.1915 7.5505C26.8281 7.34251 26.5383 7.02659 26.3625 6.64656C26.1678 7.01243 25.8749 7.31679 25.5168 7.5255C25.8682 7.7431 26.1517 8.05468 26.3352 8.425ZM4.8576 2.36875C4.89723 2.37943 4.93857 2.38219 4.97928 2.37689C5.01998 2.37159 5.05923 2.35832 5.0948 2.33784C5.13038 2.31737 5.16157 2.29009 5.18659 2.25755C5.21162 2.22502 5.22999 2.18788 5.24066 2.14825L5.40854 1.525C5.4297 1.44509 5.41835 1.36006 5.37696 1.28851C5.33557 1.21696 5.26752 1.16472 5.18771 1.14323C5.10789 1.12173 5.02281 1.13274 4.95109 1.17384C4.87937 1.21493 4.82685 1.28277 4.80504 1.3625L4.63716 1.98587C4.61565 2.06587 4.62678 2.15115 4.66812 2.22294C4.70946 2.29474 4.77761 2.34718 4.8576 2.36875ZM4.44579 4.211C4.51448 4.21095 4.58125 4.18828 4.63576 4.14648C4.69027 4.10468 4.72949 4.04608 4.74735 3.97975L4.91529 3.35625C4.93645 3.27634 4.9251 3.19131 4.88371 3.11976C4.84232 3.04821 4.77427 2.99597 4.69446 2.97448C4.61464 2.95298 4.52956 2.96399 4.45784 3.00509C4.38612 3.04618 4.3336 3.11402 4.31179 3.19375L4.14379 3.81712C4.13131 3.86345 4.12967 3.91203 4.139 3.9591C4.14832 4.00617 4.16836 4.05046 4.19756 4.08853C4.22675 4.12661 4.26433 4.15745 4.30736 4.17866C4.3504 4.19988 4.39774 4.2109 4.44572 4.21087L4.44579 4.211ZM5.07772 2.75243C5.06702 2.79205 5.06423 2.83339 5.0695 2.87409C5.07477 2.91479 5.08801 2.95405 5.10846 2.98963C5.1289 3.02521 5.15616 3.05642 5.18866 3.08147C5.22117 3.10652 5.25829 3.12492 5.29791 3.13562L5.92047 3.30375C5.96018 3.31473 6.00167 3.31776 6.04256 3.31265C6.08344 3.30754 6.12291 3.2944 6.15869 3.27398C6.19448 3.25356 6.22587 3.22627 6.25107 3.19367C6.27626 3.16107 6.29476 3.12381 6.3055 3.08403C6.31625 3.04426 6.31902 3.00275 6.31365 2.9619C6.30829 2.92105 6.29491 2.88166 6.27426 2.846C6.25362 2.81035 6.22614 2.77912 6.19338 2.75413C6.16063 2.72914 6.12325 2.71087 6.08341 2.70037L5.46091 2.53218C5.42129 2.52148 5.37995 2.51869 5.33925 2.52397C5.29854 2.52924 5.25928 2.54249 5.2237 2.56294C5.18811 2.58339 5.15691 2.61065 5.13186 2.64317C5.10682 2.67568 5.08842 2.71281 5.07772 2.75243ZM3.46879 2.64162L4.09135 2.80975C4.13097 2.82046 4.17232 2.82326 4.21303 2.81799C4.25374 2.81272 4.29301 2.79949 4.32861 2.77904C4.3642 2.75859 4.39542 2.73134 4.42048 2.69883C4.44554 2.66631 4.46395 2.62919 4.47466 2.58956C4.48537 2.54993 4.48817 2.50858 4.4829 2.46788C4.47764 2.42717 4.4644 2.38789 4.44395 2.3523C4.42351 2.31671 4.39625 2.28549 4.36374 2.26043C4.33123 2.23537 4.2941 2.21696 4.25447 2.20625L3.63197 2.03812C3.59235 2.02741 3.551 2.0246 3.51029 2.02987C3.46958 2.03513 3.4303 2.04836 3.39471 2.06881C3.35911 2.08925 3.32789 2.1165 3.30282 2.14901C3.27776 2.18152 3.25934 2.21865 3.24863 2.25828C3.23791 2.2979 3.23511 2.33925 3.24037 2.37996C3.24564 2.42067 3.25887 2.45995 3.27931 2.49555C3.29976 2.53114 3.32701 2.56236 3.35952 2.58743C3.39203 2.61249 3.42916 2.63091 3.46879 2.64162ZM20.6639 22.8786C20.6243 22.8679 20.583 22.865 20.5423 22.8702C20.5016 22.8754 20.4623 22.8886 20.4267 22.909C20.391 22.9294 20.3598 22.9566 20.3347 22.9891C20.3096 23.0216 20.2912 23.0587 20.2804 23.0983L20.125 23.6691C20.1143 23.7087 20.1114 23.7501 20.1166 23.7908C20.1219 23.8315 20.135 23.8708 20.1554 23.9064C20.1758 23.942 20.203 23.9732 20.2355 23.9983C20.268 24.0234 20.3051 24.0419 20.3447 24.0527C20.3843 24.0634 20.4256 24.0663 20.4663 24.0611C20.5071 24.0558 20.5463 24.0427 20.582 24.0223C20.6176 24.0019 20.6488 23.9746 20.6739 23.9422C20.699 23.9097 20.7175 23.8726 20.7282 23.833L20.8833 23.2622C20.905 23.1822 20.8942 23.0969 20.853 23.025C20.8119 22.9531 20.7439 22.9004 20.6639 22.8786ZM19.825 24.7754L19.67 25.3462C19.6588 25.386 19.6556 25.4275 19.6606 25.4685C19.6656 25.5095 19.6786 25.549 19.699 25.5849C19.7193 25.6209 19.7466 25.6524 19.7792 25.6777C19.8118 25.703 19.8491 25.7216 19.8889 25.7324C19.9287 25.7432 19.9703 25.746 20.0112 25.7407C20.0522 25.7354 20.0916 25.722 20.1273 25.7013C20.1631 25.6806 20.1943 25.6531 20.2193 25.6203C20.2444 25.5874 20.2626 25.55 20.2731 25.5101L20.4282 24.9392C20.4393 24.8995 20.4425 24.858 20.4375 24.817C20.4326 24.776 20.4195 24.7364 20.3992 24.7005C20.3788 24.6646 20.3516 24.6331 20.319 24.6078C20.2864 24.5825 20.2491 24.5639 20.2092 24.5531C20.1694 24.5423 20.1278 24.5395 20.0869 24.5448C20.046 24.5501 20.0065 24.5635 19.9708 24.5842C19.9351 24.6049 19.9038 24.6324 19.8788 24.6652C19.8538 24.6981 19.8355 24.7355 19.825 24.7754ZM20.5318 24.3726C20.5212 24.4122 20.5185 24.4535 20.5239 24.4942C20.5293 24.5349 20.5426 24.5742 20.5631 24.6097C20.5836 24.6452 20.611 24.6764 20.6435 24.7013C20.6761 24.7263 20.7133 24.7446 20.7529 24.7552L21.3279 24.9092C21.3544 24.9163 21.3817 24.9199 21.4092 24.9199C21.4851 24.92 21.5584 24.8925 21.6154 24.8424C21.6725 24.7924 21.7094 24.7233 21.7193 24.6481C21.7292 24.5728 21.7113 24.4966 21.6691 24.4335C21.6269 24.3705 21.5631 24.3249 21.4898 24.3054L20.9148 24.1515C20.8751 24.1408 20.8338 24.1381 20.793 24.1435C20.7523 24.1488 20.7131 24.1621 20.6775 24.1827C20.6419 24.2032 20.6108 24.2305 20.5858 24.2631C20.5608 24.2957 20.5425 24.3329 20.5318 24.3726ZM19.8003 23.8532L19.2253 23.6992C19.1456 23.6787 19.061 23.6906 18.99 23.7321C18.9189 23.7736 18.8671 23.8415 18.8458 23.921C18.8245 24.0005 18.8355 24.0852 18.8763 24.1567C18.917 24.2282 18.9844 24.2807 19.0637 24.3029L19.6387 24.4569C19.6785 24.468 19.7201 24.4711 19.7611 24.466C19.8021 24.4609 19.8417 24.4478 19.8775 24.4273C19.9134 24.4068 19.9449 24.3795 19.9701 24.3467C19.9954 24.314 20.0139 24.2766 20.0246 24.2367C20.0352 24.1968 20.0379 24.1552 20.0324 24.1142C20.0269 24.0733 20.0133 24.0338 19.9925 23.9982C19.9716 23.9625 19.9439 23.9313 19.9109 23.9064C19.878 23.8816 19.8404 23.8635 19.8003 23.8532ZM27.6135 12.5009C27.5733 12.4242 27.5071 12.3645 27.4268 12.3324C27.3465 12.3003 27.2573 12.298 27.1754 12.3259C27.0975 12.3518 27.0309 12.4037 26.9867 12.4728C26.9426 12.542 26.9235 12.6243 26.9327 12.7058C27.0121 13.4193 26.9408 14.7183 25.5711 15.402C25.501 15.4365 25.4454 15.4947 25.414 15.5663C25.3827 15.6378 25.3777 15.7182 25.3998 15.7931C25.422 15.868 25.4699 15.9327 25.5351 15.9757C25.6004 16.0187 25.6787 16.0373 25.7563 16.0281C27.2778 15.8546 28.0366 16.8974 28.3535 17.5344C28.383 17.5941 28.4287 17.6444 28.4854 17.6796C28.542 17.7147 28.6074 17.7332 28.674 17.733C28.7046 17.733 28.735 17.7292 28.7646 17.7217C28.8488 17.7014 28.9227 17.6512 28.9728 17.5805C29.0228 17.5099 29.0456 17.4235 29.0369 17.3373C28.9738 16.7034 28.8425 15.3844 30.5019 14.6228C30.5745 14.5897 30.6327 14.5314 30.6658 14.4588C30.6989 14.3862 30.7046 14.304 30.682 14.2275C30.6593 14.151 30.6098 14.0852 30.5425 14.0422C30.4753 13.9993 30.3947 13.9821 30.3158 13.9938C28.5138 14.2588 27.9058 13.0716 27.6135 12.5009Z" fill="#95CBD0"/>
</svg>
