<svg width="81" height="80" viewBox="0 0 81 80" fill="none" xmlns="http://www.w3.org/2000/svg">
<path d="M67.8439 49.5078C67.8439 22.0078 67.8533 23.5531 67.8251 23.3625C67.7288 22.3568 67.2611 21.4231 66.5134 20.7436C65.7657 20.0641 64.7917 19.6876 63.7814 19.6875H17.2189C16.2086 19.6876 15.2345 20.0641 14.4868 20.7436C13.7392 21.4231 13.2715 22.3568 13.1751 23.3625C13.1408 23.5938 13.1564 21.2984 13.1564 56.25C13.1564 57.3274 13.5844 58.3608 14.3463 59.1226C15.1081 59.8845 16.1414 60.3125 17.2189 60.3125H57.0392C57.3256 62.0094 58.0736 63.5947 59.2011 64.8947C60.3287 66.1947 61.7923 67.1593 63.4317 67.6828C65.071 68.2062 66.8228 68.2684 68.4951 67.8624C70.1674 67.4564 71.6957 66.598 72.9125 65.3812C74.1294 64.1643 74.9878 62.636 75.3938 60.9637C75.7998 59.2914 75.7376 57.5396 75.2141 55.9003C74.6907 54.2609 73.7261 52.7973 72.4261 51.6698C71.126 50.5422 69.5407 49.7943 67.8439 49.5078ZM17.2189 22.8125H63.7814C64.03 22.8125 64.2685 22.9113 64.4443 23.0871C64.6201 23.2629 64.7189 23.5014 64.7189 23.75C64.7189 24.3281 64.8954 26.1094 63.1736 27.1187L44.4501 38.0922C43.2521 38.7942 41.8887 39.1643 40.5001 39.1643C39.1116 39.1643 37.7481 38.7942 36.5501 38.0922L17.8267 27.1187C16.1423 26.1328 16.2814 24.4344 16.2814 23.75C16.2814 23.5014 16.3801 23.2629 16.556 23.0871C16.7318 22.9113 16.9702 22.8125 17.2189 22.8125ZM16.2814 56.25V29.8438L34.9704 40.7812C36.6479 41.7629 38.5565 42.2803 40.5001 42.2803C42.4437 42.2803 44.3523 41.7629 46.0298 40.7812L64.7189 29.8438V49.5156C62.8023 49.8426 61.0344 50.7561 59.6589 52.1302C58.2835 53.5043 57.3681 55.2713 57.0392 57.1875H17.2189C16.9702 57.1875 16.7318 57.0887 16.556 56.9129C16.3801 56.7371 16.2814 56.4986 16.2814 56.25ZM66.2814 65C64.6238 65 63.0341 64.3415 61.862 63.1694C60.6899 61.9973 60.0314 60.4076 60.0314 58.75C60.0314 57.0924 60.6899 55.5027 61.862 54.3306C63.0341 53.1585 64.6238 52.5 66.2814 52.5C67.939 52.5 69.5287 53.1585 70.7008 54.3306C71.8729 55.5027 72.5314 57.0924 72.5314 58.75C72.5314 60.4076 71.8729 61.9973 70.7008 63.1694C69.5287 64.3415 67.939 65 66.2814 65Z" fill="#5FB1BA"/>
<path d="M67.1655 54.7126C67.0494 54.5963 66.9116 54.5041 66.7598 54.4412C66.6081 54.3783 66.4454 54.3459 66.2812 54.3459C66.1169 54.3459 65.9542 54.3783 65.8025 54.4412C65.6507 54.5041 65.5129 54.5963 65.3968 54.7126L62.7405 57.3688C62.5661 57.5437 62.4473 57.7664 62.3993 58.0087C62.3513 58.2511 62.3762 58.5022 62.4708 58.7304C62.5654 58.9586 62.7256 59.1537 62.931 59.2909C63.1364 59.4282 63.3779 59.5015 63.6249 59.5016H65.0312V61.9047C65.0312 62.2363 65.1629 62.5542 65.3973 62.7886C65.6317 63.023 65.9496 63.1547 66.2812 63.1547C66.6127 63.1547 66.9306 63.023 67.165 62.7886C67.3995 62.5542 67.5312 62.2363 67.5312 61.9047V59.5016H68.9374C69.1848 59.5018 69.4266 59.4286 69.6324 59.2913C69.8381 59.1539 69.9985 58.9586 70.0932 58.7301C70.1879 58.5016 70.2126 58.2501 70.1643 58.0075C70.116 57.7649 69.9968 57.5421 69.8218 57.3672L67.1655 54.7126Z" fill="#5FB1BA"/>
</svg>
