<svg width="33" height="32" viewBox="0 0 33 32" fill="none" xmlns="http://www.w3.org/2000/svg">
<path opacity="0.4" d="M16.1995 29.2403C9.47951 29.2403 3.99951 23.7736 3.99951 17.0403V14.5336C3.99951 14.0136 4.42618 13.6003 4.93285 13.6003C5.43951 13.6003 5.86618 14.0269 5.86618 14.5336V17.0403C5.86618 22.7336 10.4928 27.3603 16.1862 27.3603C21.8795 27.3603 26.5062 22.7336 26.5062 17.0403V14.5336C26.5062 14.0136 26.9328 13.6003 27.4395 13.6003C27.9462 13.6003 28.3728 14.0269 28.3728 14.5336V17.0403C28.3995 23.7736 22.9195 29.2403 16.1995 29.2403Z" fill="#5FB1BA"/>
<path d="M16.2005 2.66666C11.7205 2.66666 8.0672 6.32 8.0672 10.8V17.0533C8.0672 21.5333 11.7205 25.1867 16.2005 25.1867C20.6805 25.1867 24.3339 21.5333 24.3339 17.0533V10.8C24.3339 6.32 20.6805 2.66666 16.2005 2.66666ZM19.1072 14.12C19.0139 14.48 18.6805 14.72 18.3205 14.72C18.2539 14.72 18.1739 14.7067 18.1072 14.6933C16.7472 14.32 15.3072 14.32 13.9472 14.6933C13.5072 14.8133 13.0672 14.56 12.9472 14.12C12.8272 13.6933 13.0805 13.24 13.5205 13.12C15.1605 12.6667 16.8939 12.6667 18.5339 13.12C18.9739 13.24 19.2272 13.68 19.1072 14.12ZM20.2405 10.4267C20.1205 10.76 19.8139 10.96 19.4805 10.96C19.3872 10.96 19.2939 10.9467 19.2005 10.9067C17.1605 10.16 14.9205 10.16 12.8805 10.9067C12.4539 11.0667 11.9872 10.8533 11.8272 10.4267C11.6805 10.0133 11.8939 9.54666 12.3205 9.38666C14.7205 8.52 17.3605 8.52 19.7472 9.38666C20.1739 9.54666 20.3872 10.0133 20.2405 10.4267Z" fill="#5FB1BA"/>
</svg>
