<svg width="20" height="20" viewBox="0 0 20 20" fill="none" xmlns="http://www.w3.org/2000/svg">
<g clip-path="url(#clip0_552_1665)">
<mask id="path-1-inside-1_552_1665" fill="white">
<path d="M5.43938 13.5258L4.80848 17.6111C4.77457 17.8307 4.92512 18.0363 5.14477 18.0702L17.6098 19.9952C17.8295 20.0291 18.035 19.8786 18.0689 19.6589L19.9952 7.18593C20.0291 6.96629 19.8786 6.76074 19.6589 6.72683L13.4484 5.76773"/>
</mask>
<path d="M5.43938 13.5258L4.80848 17.6111C4.77457 17.8307 4.92512 18.0363 5.14477 18.0702L17.6098 19.9952C17.8295 20.0291 18.035 19.8786 18.0689 19.6589L19.9952 7.18593C20.0291 6.96629 19.8786 6.76074 19.6589 6.72683L13.4484 5.76773" fill="white"/>
<path d="M4.80848 17.6111L4.70965 17.5958L4.70965 17.5958L4.80848 17.6111ZM5.14477 18.0702L5.16003 17.9714L5.16002 17.9714L5.14477 18.0702ZM17.6098 19.9952L17.5946 20.094L17.5946 20.094L17.6098 19.9952ZM18.0689 19.6589L17.9701 19.6436L17.9701 19.6436L18.0689 19.6589ZM19.9952 7.18593L20.094 7.2012L20.094 7.20119L19.9952 7.18593ZM19.6589 6.72683L19.6436 6.82566L19.6437 6.82566L19.6589 6.72683ZM5.34055 13.5105L4.70965 17.5958L4.90731 17.6264L5.53821 13.541L5.34055 13.5105ZM4.70965 17.5958C4.66732 17.8701 4.85527 18.1267 5.12951 18.169L5.16002 17.9714C4.99497 17.9459 4.88183 17.7914 4.90731 17.6263L4.70965 17.5958ZM5.12951 18.169L17.5946 20.094L17.6251 19.8964L5.16003 17.9714L5.12951 18.169ZM17.5946 20.094C17.8688 20.1364 18.1254 19.9484 18.1678 19.6742L17.9701 19.6436C17.9446 19.8087 17.7902 19.9218 17.6251 19.8964L17.5946 20.094ZM18.1678 19.6742L20.094 7.2012L19.8964 7.17067L17.9701 19.6436L18.1678 19.6742ZM20.094 7.20119C20.1364 6.92697 19.9484 6.67034 19.6742 6.628L19.6437 6.82566C19.8087 6.85114 19.9219 7.0056 19.8964 7.17068L20.094 7.20119ZM19.6742 6.628L13.4636 5.6689L13.4331 5.86656L19.6436 6.82566L19.6742 6.628Z" fill="#333333" mask="url(#path-1-inside-1_552_1665)"/>
<path d="M6.76727 13.2864L6.19641 16.9522L16.9445 18.6121L18.6073 7.84483L13.1791 7.0087L6.76727 13.2864Z" fill="#333333"/>
<path d="M0.402422 0.05H13.0153C13.2099 0.05 13.3677 0.207768 13.3677 0.402422V13.0233C13.3677 13.2179 13.2099 13.3757 13.0153 13.3757H0.402422C0.207771 13.3757 0.05 13.2179 0.05 13.0233V0.402422C0.05 0.20777 0.20777 0.05 0.402422 0.05Z" fill="white" stroke="#333333" stroke-width="0.1"/>
<path d="M1.27112 1.2654H12.1466V12.1603H1.27112V1.2654Z" fill="#333333"/>
<path d="M8.23701 3.90057C7.55455 3.90057 6.96783 4.35675 6.70869 5.0103C6.44955 4.35675 5.86283 3.90057 5.18037 3.90057C4.25799 3.90057 3.51025 4.73378 3.51025 5.76159C3.51025 8.11421 6.70869 9.41343 6.70869 9.41343C6.70869 9.41343 9.87561 8.09667 9.90713 5.76159C9.921 4.73393 9.15939 3.90057 8.23701 3.90057Z" fill="white"/>
<path d="M8.2371 3.90057C7.94585 3.90057 7.67214 3.98389 7.43378 4.12995C7.95343 4.44647 8.30707 5.05842 8.29757 5.76159C8.2764 7.33163 6.83773 8.44128 5.89734 8.99987C6.36226 9.2726 6.70882 9.41343 6.70882 9.41343C6.70882 9.41343 9.87574 8.09667 9.90726 5.76159C9.92109 4.73393 9.15949 3.90057 8.2371 3.90057Z" fill="white"/>
</g>
<defs>
<clipPath id="clip0_552_1665">
<rect width="20" height="20" fill="white"/>
</clipPath>
</defs>
</svg>
