<svg width="20" height="20" viewBox="0 0 20 20" fill="none" xmlns="http://www.w3.org/2000/svg">
<path fill-rule="evenodd" clip-rule="evenodd" d="M2.67766 16.7989C3.25489 18.8751 4.92356 19.3179 6.86235 18.7768C8.21087 18.4005 9.61473 17.5896 10.7573 16.7656C11.5941 16.1621 12.5944 15.5649 13.586 15.2637C14.4723 14.9944 15.5227 14.9114 15.9647 15.9025C16.1231 16.2575 16.1809 16.6719 16.1965 17.0575C16.2047 17.2626 16.3776 17.4232 16.583 17.4151C16.788 17.4071 16.9487 17.234 16.9404 17.0289C16.8497 14.7907 15.52 13.8992 13.3704 14.5521C12.3007 14.8771 11.226 15.5105 10.3231 16.1617C9.24993 16.9357 7.9313 17.7054 6.66501 18.0588C5.66903 18.3368 4.47423 18.4189 3.79895 17.4826C3.60915 17.2194 3.482 16.9124 3.39552 16.601C3.34055 16.4032 3.13555 16.2864 2.93739 16.3411C2.73969 16.3958 2.62262 16.601 2.67766 16.7989ZM12.7441 4.213C12.5592 4.02812 12.5591 3.7273 12.7441 3.54238L14.9748 1.31163C15.3745 0.911986 16.0228 0.912103 16.4225 1.31156L17.037 1.92554C17.4357 2.32406 17.4356 2.9746 17.037 3.3732L14.8063 5.60398C14.6214 5.78886 14.3207 5.7889 14.1357 5.60406L12.7441 4.213ZM11.0318 5.25605C11.2167 5.07113 11.5176 5.07117 11.7025 5.25621L13.0921 6.6471C13.2768 6.83203 13.2768 7.13265 13.0919 7.31749L5.95657 14.4528C5.80098 14.5687 3.65469 15.4517 3.41102 15.5521C3.02364 15.7118 2.63376 15.3248 2.79063 14.9363C2.94227 14.5607 3.72844 12.6022 3.88692 12.4009L11.0318 5.25605Z" fill="#333333"/>
</svg>
