<svg width="24" height="25" viewBox="0 0 24 25" fill="none" xmlns="http://www.w3.org/2000/svg">
<path d="M11.9998 23.2501C11.7598 23.2501 11.5199 23.2201 11.2899 23.1501C6.09986 21.7201 2.33984 16.87 2.33984 11.61V7.22003C2.33984 6.10003 3.14985 4.89008 4.18985 4.46008L9.75986 2.18005C11.2099 1.59005 12.7998 1.59005 14.2398 2.18005L19.8098 4.46008C20.8498 4.89008 21.6599 6.10003 21.6599 7.22003V11.61C21.6599 16.86 17.8898 21.7101 12.7098 23.1501C12.4798 23.2201 12.2398 23.2501 11.9998 23.2501ZM11.9998 3.25006C11.4298 3.25006 10.8698 3.36007 10.3298 3.58007L4.75986 5.86004C4.27986 6.06004 3.83984 6.71004 3.83984 7.23004V11.6201C3.83984 16.2101 7.13985 20.4501 11.6898 21.7101C11.8898 21.7701 12.1098 21.7701 12.3098 21.7101C16.8598 20.4501 20.1599 16.2101 20.1599 11.6201V7.23004C20.1599 6.71004 19.7198 6.06004 19.2398 5.86004L13.6699 3.58007C13.1299 3.36007 12.5698 3.25006 11.9998 3.25006Z" fill="#444444"/>
<path d="M12 13.75C10.48 13.75 9.25 12.52 9.25 11C9.25 9.48 10.48 8.25 12 8.25C13.52 8.25 14.75 9.48 14.75 11C14.75 12.52 13.52 13.75 12 13.75ZM12 9.75C11.31 9.75 10.75 10.31 10.75 11C10.75 11.69 11.31 12.25 12 12.25C12.69 12.25 13.25 11.69 13.25 11C13.25 10.31 12.69 9.75 12 9.75Z" fill="#444444"/>
<path d="M12 16.75C11.59 16.75 11.25 16.41 11.25 16V13C11.25 12.59 11.59 12.25 12 12.25C12.41 12.25 12.75 12.59 12.75 13V16C12.75 16.41 12.41 16.75 12 16.75Z" fill="#444444"/>
</svg>
