<svg width="22" height="20" viewBox="0 0 22 20" fill="none" xmlns="http://www.w3.org/2000/svg">
<path d="M17.3698 4.95997H2.70173C2.61837 4.95931 2.53508 4.96509 2.45261 4.97725C1.97546 5.03749 1.53668 5.26972 1.21855 5.6304C0.900421 5.99108 0.724795 6.45543 0.724609 6.93637V15.1986C0.724991 15.7229 0.933409 16.2256 1.3041 16.5963C1.67479 16.967 2.17746 17.1755 2.70173 17.176H6.50429C6.92679 17.1767 7.34461 17.2645 7.73172 17.4338C8.11882 17.603 8.46691 17.8503 8.75429 18.16L9.63605 19.12C9.68835 19.1729 9.75065 19.215 9.81933 19.2437C9.88801 19.2724 9.9617 19.2871 10.0361 19.2871C10.1106 19.2871 10.1843 19.2724 10.2529 19.2437C10.3216 19.215 10.3839 19.1729 10.4362 19.12L11.3168 18.16C11.6043 17.8501 11.9526 17.6029 12.3399 17.4336C12.7272 17.2643 13.1453 17.1766 13.568 17.176H17.3698C17.885 17.179 18.3807 16.9794 18.7499 16.6202C19.1192 16.261 19.3324 15.771 19.3436 15.256C19.3438 15.2468 19.3445 15.2377 19.3457 15.2286V6.93829C19.3457 6.41404 19.1375 5.91124 18.7671 5.54032C18.3966 5.1694 17.8941 4.96066 17.3698 4.95997ZM14.2894 11.1882C13.8581 11.9347 13.238 12.5545 12.4914 12.9854C11.7447 13.4163 10.8978 13.6432 10.0358 13.6432C9.17369 13.6432 8.3268 13.4163 7.58015 12.9854C6.8335 12.5545 6.2134 11.9347 5.78213 11.1882C5.76107 11.1517 5.74998 11.1103 5.74998 11.0682C5.74998 11.0261 5.76107 10.9847 5.78213 10.9482C6.21335 10.2017 6.83344 9.58182 7.58009 9.15085C8.32674 8.71989 9.17366 8.493 10.0358 8.493C10.8979 8.493 11.7448 8.71989 12.4914 9.15085C13.2381 9.58182 13.8582 10.2017 14.2894 10.9482C14.3105 10.9847 14.3216 11.0261 14.3216 11.0682C14.3216 11.1103 14.3105 11.1517 14.2894 11.1882ZM10.034 8.97253C9.28037 8.97431 8.53959 9.16753 7.88113 9.53405C7.22268 9.90058 6.66814 10.4284 6.26957 11.068C6.66725 11.7087 7.22185 12.2375 7.88089 12.6041C8.53993 12.9707 9.28161 13.1631 10.0358 13.1631C10.7899 13.1631 11.5316 12.9707 12.1907 12.6041C12.8497 12.2375 13.4043 11.7087 13.802 11.068C13.4028 10.4281 12.8477 9.90016 12.1886 9.53363C11.5295 9.16711 10.7881 8.97403 10.034 8.97253ZM10.034 12.6316C9.72482 12.6311 9.42275 12.539 9.16593 12.3669C8.90912 12.1948 8.70908 11.9504 8.5911 11.6647C8.47313 11.3789 8.4425 11.0646 8.50311 10.7615C8.56371 10.4583 8.71282 10.1799 8.93159 9.96149C9.15035 9.74305 9.42896 9.59437 9.73221 9.53424C10.0354 9.4741 10.3497 9.5052 10.6353 9.62362C10.9209 9.74203 11.1649 9.94244 11.3366 10.1995C11.5083 10.4566 11.6 10.7588 11.6 11.068C11.5995 11.4827 11.4344 11.8803 11.141 12.1735C10.8476 12.4666 10.4499 12.6314 10.0352 12.6316H10.034ZM11.12 11.068C11.12 11.2823 11.0564 11.4918 10.9373 11.67C10.8183 11.8482 10.649 11.9871 10.451 12.0691C10.253 12.1511 10.0352 12.1726 9.82497 12.1307C9.61477 12.0889 9.42169 11.9857 9.27015 11.8342C9.1186 11.6826 9.0154 11.4896 8.97359 11.2794C8.93178 11.0692 8.95324 10.8513 9.03525 10.6533C9.11727 10.4553 9.25616 10.2861 9.43435 10.167C9.61255 10.0479 9.82205 9.98437 10.0364 9.98437C10.3237 9.98468 10.5991 10.0989 10.8022 10.3021C11.0054 10.5052 11.1197 10.7807 11.12 11.068ZM21.2748 4.80061V13.0648C21.2746 13.4966 21.1328 13.9164 20.8711 14.2599C20.6095 14.6035 20.2424 14.8518 19.8262 14.9668V6.93733C19.8258 6.2859 19.5669 5.66126 19.1063 5.20054C18.6458 4.73982 18.0212 4.48066 17.3698 4.47997H2.68229C2.75425 4.01697 2.99011 3.59523 3.34692 3.29154C3.70373 2.98786 4.15775 2.82244 4.62629 2.82541H8.43197C8.85407 2.82459 9.27148 2.73679 9.65814 2.56749C10.0448 2.39819 10.3924 2.15102 10.6793 1.84141L11.5637 0.882846C11.6144 0.827376 11.6761 0.783129 11.7449 0.752953C11.8136 0.722778 11.888 0.707344 11.9631 0.707646H11.9643C12.0389 0.707408 12.1128 0.722884 12.1811 0.75307C12.2493 0.783255 12.3105 0.827472 12.3605 0.882846L13.2449 1.84285C13.5318 2.15243 13.8794 2.39958 14.266 2.56888C14.6526 2.73818 15.07 2.82599 15.492 2.82685H19.2982C19.8219 2.82704 20.3241 3.03495 20.6947 3.40498C21.0652 3.77501 21.2739 4.27693 21.2748 4.80061Z" fill="white"/>
</svg>
