<svg width="24" height="24" viewBox="0 0 24 24" fill="none" xmlns="http://www.w3.org/2000/svg">
<path d="M24 11.9998C24 12.265 23.8946 12.5193 23.7071 12.7069C23.5196 12.8944 23.2652 12.9998 23 12.9998L13 12.9998L13 22.9998C13 23.265 12.8946 23.5193 12.7071 23.7069C12.5196 23.8944 12.2652 23.9998 12 23.9998C11.7348 23.9998 11.4804 23.8944 11.2929 23.7069C11.1054 23.5193 11 23.265 11 22.9998L11 12.9998H1C0.734784 12.9998 0.48043 12.8944 0.292893 12.7069C0.105357 12.5193 0 12.265 0 11.9998C0 11.7345 0.105357 11.4802 0.292893 11.2926C0.48043 11.1051 0.734784 10.9998 1 10.9998H11V0.999756C11 0.734539 11.1054 0.480186 11.2929 0.292649C11.4804 0.105113 11.7348 -0.000244141 12 -0.000244141C12.2652 -0.000244141 12.5196 0.105113 12.7071 0.292649C12.8946 0.480186 13 0.734539 13 0.999756V10.9998L23 10.9998C23.2652 10.9998 23.5196 11.1051 23.7071 11.2926C23.8946 11.4802 24 11.7345 24 11.9998Z" fill="white"/>
</svg>
