<svg width="71" height="70" viewBox="0 0 71 70" fill="none" xmlns="http://www.w3.org/2000/svg">
<path d="M48.8333 70H8.83333C6.62401 69.9974 4.50593 69.1185 2.9437 67.5563C1.38147 65.9941 0.502646 63.876 0.5 61.6667V8.33333C0.502646 6.12401 1.38147 4.00593 2.9437 2.4437C4.50593 0.88147 6.62401 0.00264643 8.83333 0H34.6C35.7098 0.000743314 36.8084 0.222148 37.8319 0.651336C38.8554 1.08052 39.7833 1.70893 40.5617 2.5L54.7917 17.065C56.318 18.6232 57.171 20.7188 57.1667 22.9V35.3167C57.1667 35.7587 56.9911 36.1826 56.6785 36.4952C56.366 36.8077 55.942 36.9833 55.5 36.9833C55.058 36.9833 54.6341 36.8077 54.3215 36.4952C54.0089 36.1826 53.8333 35.7587 53.8333 35.3167V22.9C53.834 21.5916 53.3218 20.3351 52.4067 19.4L38.175 4.83333C37.7086 4.35835 37.1523 3.98106 36.5385 3.72351C35.9247 3.46596 35.2657 3.33332 34.6 3.33333H8.83333C7.50725 3.33333 6.23548 3.86012 5.2978 4.7978C4.36012 5.73548 3.83333 7.00725 3.83333 8.33333V61.6667C3.83333 62.9928 4.36012 64.2645 5.2978 65.2022C6.23548 66.1399 7.50725 66.6667 8.83333 66.6667H48.8333C49.4621 66.6691 50.0851 66.5474 50.6667 66.3083C51.0755 66.1401 51.5345 66.1413 51.9425 66.3115C52.3506 66.4816 52.6743 66.807 52.8425 67.2158C53.0107 67.6247 53.0096 68.0837 52.8394 68.4917C52.6692 68.8997 52.3439 69.2235 51.935 69.3917C50.951 69.7958 49.8971 70.0025 48.8333 70Z" fill="#5FB1BA"/>
<path d="M54.8168 21.6666H43.8335C41.6242 21.664 39.5061 20.7851 37.9439 19.2229C36.3816 17.6607 35.5028 15.5426 35.5002 13.3333V2.18327C35.5002 1.74124 35.6758 1.31732 35.9883 1.00476C36.3009 0.692196 36.7248 0.516602 37.1668 0.516602C37.6089 0.516602 38.0328 0.692196 38.3454 1.00476C38.6579 1.31732 38.8335 1.74124 38.8335 2.18327V13.3333C38.8335 14.6594 39.3603 15.9311 40.298 16.8688C41.2357 17.8065 42.5074 18.3333 43.8335 18.3333H54.8168C55.2589 18.3333 55.6828 18.5089 55.9954 18.8214C56.3079 19.134 56.4835 19.5579 56.4835 19.9999C56.4835 20.442 56.3079 20.8659 55.9954 21.1784C55.6828 21.491 55.2589 21.6666 54.8168 21.6666ZM52.1668 69.7566C51.5096 69.7574 50.8669 69.5631 50.3202 69.1983L44.9668 65.6283C41.5396 63.3495 38.7295 60.2582 36.787 56.6298C34.8444 53.0015 33.8298 48.9489 33.8335 44.8333V41.9799C33.8368 41.23 34.0917 40.503 34.5574 39.9152C35.023 39.3274 35.6726 38.913 36.4018 38.7383C41.3517 37.3701 46.0605 35.2456 50.3618 32.4399C50.9 32.0933 51.5267 31.9089 52.1668 31.9089C52.807 31.9089 53.4336 32.0933 53.9718 32.4399C58.273 35.2459 62.9819 37.3705 67.9318 38.7383C68.6611 38.913 69.3106 39.3274 69.7763 39.9152C70.242 40.503 70.4969 41.23 70.5002 41.9799V44.8333C70.505 48.95 69.4909 53.004 67.5483 56.6336C65.6057 60.2632 62.795 63.3556 59.3668 65.6349L54.0152 69.2033C53.4674 69.5665 52.8241 69.7591 52.1668 69.7566ZM52.1668 35.2399C47.5588 38.246 42.512 40.5186 37.2068 41.9766L37.1668 44.8333C37.1628 48.4011 38.0417 51.9144 39.7252 55.0601C41.4086 58.2057 43.8444 60.8859 46.8152 62.8616L52.1668 66.4233L57.5185 62.8549C60.4884 60.8798 62.9235 58.2007 64.6069 55.0563C66.2904 51.9119 67.1698 48.3999 67.1668 44.8333V41.9799C61.8486 40.5228 56.7884 38.2497 52.1668 35.2416V35.2399Z" fill="#5FB1BA"/>
<path d="M50.5 54.9999C50.058 54.9998 49.6342 54.8242 49.3217 54.5116L45.9883 51.1783C45.6847 50.8639 45.5167 50.4429 45.5205 50.0059C45.5243 49.5689 45.6996 49.1509 46.0086 48.8419C46.3176 48.5329 46.7357 48.3576 47.1727 48.3538C47.6097 48.35 48.0307 48.518 48.345 48.8216L50.5 50.9766L55.9883 45.4883C56.3027 45.1847 56.7237 45.0167 57.1607 45.0205C57.5977 45.0243 58.0157 45.1995 58.3247 45.5086C58.6337 45.8176 58.809 46.2356 58.8128 46.6726C58.8166 47.1096 58.6486 47.5306 58.345 47.8449L51.6783 54.5116C51.3658 54.8242 50.942 54.9998 50.5 54.9999ZM25.5 16.6666H12.1667C11.7246 16.6666 11.3007 16.491 10.9882 16.1784C10.6756 15.8659 10.5 15.4419 10.5 14.9999C10.5 14.5579 10.6756 14.134 10.9882 13.8214C11.3007 13.5088 11.7246 13.3333 12.1667 13.3333H25.5C25.942 13.3333 26.366 13.5088 26.6785 13.8214C26.9911 14.134 27.1667 14.5579 27.1667 14.9999C27.1667 15.4419 26.9911 15.8659 26.6785 16.1784C26.366 16.491 25.942 16.6666 25.5 16.6666ZM35.5 26.6666H12.1667C11.7246 26.6666 11.3007 26.491 10.9882 26.1784C10.6756 25.8659 10.5 25.4419 10.5 24.9999C10.5 24.5579 10.6756 24.134 10.9882 23.8214C11.3007 23.5088 11.7246 23.3333 12.1667 23.3333H35.5C35.942 23.3333 36.366 23.5088 36.6785 23.8214C36.9911 24.134 37.1667 24.5579 37.1667 24.9999C37.1667 25.4419 36.9911 25.8659 36.6785 26.1784C36.366 26.491 35.942 26.6666 35.5 26.6666ZM38.8333 36.6666H12.1667C11.7246 36.6666 11.3007 36.491 10.9882 36.1784C10.6756 35.8659 10.5 35.4419 10.5 34.9999C10.5 34.5579 10.6756 34.134 10.9882 33.8214C11.3007 33.5088 11.7246 33.3333 12.1667 33.3333H38.8333C39.2754 33.3333 39.6993 33.5088 40.0118 33.8214C40.3244 34.134 40.5 34.5579 40.5 34.9999C40.5 35.4419 40.3244 35.8659 40.0118 36.1784C39.6993 36.491 39.2754 36.6666 38.8333 36.6666ZM28.8333 46.6666H12.1667C11.7246 46.6666 11.3007 46.491 10.9882 46.1784C10.6756 45.8659 10.5 45.4419 10.5 44.9999C10.5 44.5579 10.6756 44.134 10.9882 43.8214C11.3007 43.5088 11.7246 43.3333 12.1667 43.3333H28.8333C29.2754 43.3333 29.6993 43.5088 30.0118 43.8214C30.3244 44.134 30.5 44.5579 30.5 44.9999C30.5 45.4419 30.3244 45.8659 30.0118 46.1784C29.6993 46.491 29.2754 46.6666 28.8333 46.6666ZM28.8333 56.6666H12.1667C11.7246 56.6666 11.3007 56.491 10.9882 56.1784C10.6756 55.8659 10.5 55.4419 10.5 54.9999C10.5 54.5579 10.6756 54.134 10.9882 53.8214C11.3007 53.5088 11.7246 53.3333 12.1667 53.3333H28.8333C29.2754 53.3333 29.6993 53.5088 30.0118 53.8214C30.3244 54.134 30.5 54.5579 30.5 54.9999C30.5 55.4419 30.3244 55.8659 30.0118 56.1784C29.6993 56.491 29.2754 56.6666 28.8333 56.6666Z" fill="#5FB1BA"/>
</svg>
