<svg width="81" height="80" viewBox="0 0 81 80" fill="none" xmlns="http://www.w3.org/2000/svg">
<rect x="1.25" y="0.75" width="78.5" height="78.5" rx="39.25" fill="#66BA7C" fill-opacity="0.1"/>
<rect x="1.25" y="0.75" width="78.5" height="78.5" rx="39.25" stroke="#66BA7C" stroke-width="1.5"/>
<path fill-rule="evenodd" clip-rule="evenodd" d="M39.0001 53.2945C37.2542 53.2949 35.5253 52.9512 33.9123 52.283C32.2993 51.6148 30.8338 50.6353 29.5996 49.4005C28.3647 48.1663 27.3852 46.7008 26.7171 45.0878C26.0489 43.4748 25.7052 41.7459 25.7056 40C25.7056 39.6022 25.8636 39.2206 26.1449 38.9393C26.4262 38.658 26.8077 38.5 27.2056 38.5C27.6034 38.5 27.9849 38.658 28.2662 38.9393C28.5475 39.2206 28.7056 39.6022 28.7056 40C28.706 42.7301 29.7907 45.3484 31.7212 47.2789C33.6517 49.2094 36.2699 50.2941 39.0001 50.2945H42.0001C44.7302 50.2941 47.3484 49.2094 49.2789 47.2789C51.2094 45.3484 52.2942 42.7301 52.2946 40C52.2946 39.6022 52.4526 39.2206 52.7339 38.9393C53.0152 38.658 53.3967 38.5 53.7946 38.5C54.1924 38.5 54.5739 38.658 54.8552 38.9393C55.1365 39.2206 55.2946 39.6022 55.2946 40C55.2949 41.7459 54.9512 43.4748 54.2831 45.0878C53.6149 46.7008 52.6354 48.1663 51.4006 49.4005C50.1663 50.6353 48.7008 51.6148 47.0878 52.283C45.4748 52.9512 43.746 53.2949 42.0001 53.2945V58H48.0001C48.3979 58 48.7794 58.158 49.0607 58.4393C49.342 58.7206 49.5001 59.1022 49.5001 59.5C49.5001 59.8978 49.342 60.2794 49.0607 60.5607C48.7794 60.842 48.3979 61 48.0001 61H33.0001C32.6022 61 32.2207 60.842 31.9394 60.5607C31.6581 60.2794 31.5001 59.8978 31.5001 59.5C31.5001 59.1022 31.6581 58.7206 31.9394 58.4393C32.2207 58.158 32.6022 58 33.0001 58H39.0001V53.2945ZM49.3486 41.5C49.0539 42.9407 48.3431 44.2633 47.3041 45.304C45.8969 46.7099 43.9892 47.4997 42.0001 47.5H39.0001C37.0109 47.4997 35.1032 46.7099 33.6961 45.304C32.2902 43.8968 31.5004 41.9891 31.5001 40V26.5C31.5001 24.511 32.2906 22.603 33.6961 21.196C35.1032 19.7901 37.0109 19.0003 39.0001 19H42.0001C43.7283 19.001 45.4032 19.5984 46.742 20.6913C48.0808 21.7841 49.0015 23.3055 49.3486 24.9985H42.0001C41.6138 25.0158 41.2492 25.1814 40.982 25.4608C40.7148 25.7402 40.5657 26.1119 40.5657 26.4985C40.5657 26.8851 40.7148 27.2568 40.982 27.5362C41.2492 27.8156 41.6138 27.9812 42.0001 27.9985H49.5001V31.75H42.0001C41.6022 31.75 41.2207 31.908 40.9394 32.1893C40.6581 32.4706 40.5001 32.8522 40.5001 33.25C40.5001 33.6478 40.6581 34.0294 40.9394 34.3107C41.2207 34.592 41.6022 34.75 42.0001 34.75H49.5001V38.5H42.0001C41.6022 38.5 41.2207 38.658 40.9394 38.9393C40.6581 39.2206 40.5001 39.6022 40.5001 40C40.5001 40.3978 40.6581 40.7794 40.9394 41.0607C41.2207 41.342 41.6022 41.5 42.0001 41.5H49.3486Z" fill="#66BA7C"/>
</svg>
