<svg width="14" height="24" viewBox="0 0 14 24" fill="none" xmlns="http://www.w3.org/2000/svg">
<path fill-rule="evenodd" clip-rule="evenodd" d="M3.32324 4.86468C3.49196 4.4007 3.67474 3.97891 3.87157 3.57118C4.68704 1.82777 5.7134 0.604569 6.81006 0.0421793C6.89442 -0.0140598 7.0069 -0.0140598 7.10532 0.0421793C8.20198 0.604569 9.22834 1.81371 10.0438 3.51494C10.2547 3.95079 10.4375 4.4007 10.6203 4.87873L10.5921 4.90685C9.81885 5.9051 8.20198 6.46749 6.96472 6.46749C5.74152 6.46749 4.13871 5.9051 3.37948 4.90685C3.35136 4.89279 3.3373 4.87873 3.32324 4.86468ZM6.95066 10.1652C6.51481 10.1652 6.02272 11.1775 6.02272 12.5132C6.02272 13.8348 6.52887 14.8612 6.95066 14.8612C7.38651 14.8612 7.89266 13.8348 7.89266 12.5132C7.89266 11.1775 7.40057 10.1652 6.95066 10.1652Z" fill="white"/>
<path fill-rule="evenodd" clip-rule="evenodd" d="M9.62203 18.5167H4.32151C4.23715 18.5167 4.15279 18.4745 4.08249 18.4042C3.18267 17.5325 2.56404 16.2109 2.26878 14.4393C1.80481 11.6836 2.18443 8.35146 3.07019 5.56763C4.02625 6.56587 5.64312 7.12826 6.95068 7.12826C8.28636 7.12826 9.90323 6.56587 10.8593 5.59575C11.7591 8.35146 12.1247 11.6555 11.6748 14.3831C11.3936 16.1546 10.7609 17.5465 9.86105 18.4182C9.79075 18.4745 9.70639 18.5167 9.62203 18.5167ZM6.95068 15.5079C6.48671 15.5079 6.06492 15.1704 5.7556 14.5377C5.50253 13.9894 5.36193 13.2724 5.36193 12.5131C5.36193 10.7979 6.05086 9.51842 6.95068 9.51842C7.86457 9.51842 8.55349 10.7979 8.55349 12.5131C8.55349 13.2724 8.4129 13.9894 8.14576 14.5377C7.85051 15.1704 7.42871 15.5079 6.95068 15.5079ZM13.5166 20.1476C13.3619 20.1476 13.2354 20.0632 13.1932 19.9226C12.7574 18.4042 12.2653 17.898 11.1967 17.7574C11.8013 16.7733 12.1387 15.5922 12.3215 14.4815C12.4199 13.8629 12.4902 13.2302 12.5183 12.5694C13.3619 13.5817 14.3742 15.7047 13.84 19.8664C13.8259 20.0211 13.6994 20.1335 13.5447 20.1476H13.5166ZM0.483195 20.1476H0.455075C0.300418 20.1335 0.18794 20.0211 0.159821 19.8664C-0.149494 17.5325 0.00516337 15.5922 0.609733 14.0878C0.848749 13.4973 1.144 13.0334 1.4252 12.6678C1.45332 13.3146 1.52362 13.9332 1.62204 14.5377C1.81887 15.6625 2.15631 16.7873 2.74682 17.7715C1.74857 17.9121 1.25648 18.4182 0.79251 19.9226C0.76439 20.0632 0.637852 20.1476 0.483195 20.1476ZM5.36193 22.7346C5.17915 22.7346 5.03856 22.5799 5.03856 22.3972V19.543C5.03856 19.3602 5.17915 19.2196 5.36193 19.2196C5.54471 19.2196 5.6853 19.3602 5.6853 19.543V22.3972C5.6853 22.5799 5.54471 22.7346 5.36193 22.7346ZM6.95068 24C6.7679 24 6.62731 23.8453 6.62731 23.6625V19.543C6.62731 19.3602 6.7679 19.2196 6.95068 19.2196C7.13346 19.2196 7.28812 19.3602 7.28812 19.543V23.6625C7.28812 23.8453 7.13346 24 6.95068 24ZM8.59567 21.891C8.4129 21.891 8.2723 21.7363 8.2723 21.5536V19.543C8.2723 19.3602 8.4129 19.2196 8.59567 19.2196C8.77845 19.2196 8.91905 19.3602 8.91905 19.543V21.5536C8.91905 21.7363 8.77845 21.891 8.59567 21.891Z" fill="white"/>
</svg>
