<svg width="22" height="18" viewBox="0 0 22 18" fill="none" xmlns="http://www.w3.org/2000/svg">
<path d="M21.2806 7.97031L13.7806 0.470313C13.6758 0.365361 13.5422 0.293854 13.3967 0.264837C13.2512 0.235819 13.1004 0.250594 12.9633 0.307292C12.8263 0.36399 12.7091 0.460065 12.6266 0.583366C12.5441 0.706668 12.5001 0.851658 12.5 1V4.78281C10.0681 4.99094 7.38219 6.18156 5.1725 8.05563C2.51188 10.3131 0.855317 13.2222 0.507504 16.2466C0.480324 16.4817 0.527999 16.7194 0.643745 16.9259C0.759491 17.1323 0.93741 17.297 1.15218 17.3965C1.36695 17.496 1.60764 17.5252 1.83997 17.48C2.07231 17.4348 2.28447 17.3175 2.44625 17.1447C3.4775 16.0469 7.14688 12.5753 12.5 12.2697V16C12.5001 16.1483 12.5441 16.2933 12.6266 16.4166C12.7091 16.5399 12.8263 16.636 12.9633 16.6927C13.1004 16.7494 13.2512 16.7642 13.3967 16.7352C13.5422 16.7061 13.6758 16.6346 13.7806 16.5297L21.2806 9.02969C21.4209 8.88909 21.4997 8.6986 21.4997 8.5C21.4997 8.3014 21.4209 8.11091 21.2806 7.97031ZM14 14.1897V11.5C14 11.3011 13.921 11.1103 13.7803 10.9697C13.6397 10.829 13.4489 10.75 13.25 10.75C10.6175 10.75 8.05344 11.4372 5.62907 12.7937C4.39433 13.4877 3.24389 14.322 2.20063 15.28C2.74438 13.045 4.115 10.9197 6.14282 9.19938C8.31969 7.35344 10.9766 6.25 13.25 6.25C13.4489 6.25 13.6397 6.17098 13.7803 6.03033C13.921 5.88968 14 5.69891 14 5.5V2.81125L19.6897 8.5L14 14.1897Z" fill="#777777"/>
</svg>
