<svg width="29" height="29" viewBox="0 0 29 29" fill="none" xmlns="http://www.w3.org/2000/svg">
<g clip-path="url(#clip0_259_6880)">
<path d="M23.622 0.5C26.0856 0.5 28.0835 2.49748 28.0835 4.96188V24.0385C28.0835 26.5021 26.0856 28.5 23.622 28.5H4.54538C2.08138 28.5 0.0834961 26.5021 0.0834961 24.0385V4.96188C0.0834961 2.49748 2.08138 0.5 4.54538 0.5H23.622Z" fill="#FFFC00"/>
<path d="M23.5239 19.2997C23.4414 19.0266 23.0465 18.834 23.0465 18.834C23.0091 18.8144 22.9757 18.7967 22.9482 18.783C22.29 18.4647 21.7065 18.0815 21.2153 17.6473C20.8204 17.2976 20.4825 16.9125 20.2114 16.5039C19.8793 16.0048 19.7241 15.5883 19.6573 15.3624C19.62 15.215 19.6259 15.1561 19.6573 15.0794C19.6828 15.0146 19.7595 14.9537 19.7948 14.9242C20.0168 14.767 20.3744 14.5352 20.5945 14.3938C20.7851 14.27 20.9481 14.1639 21.0444 14.0971C21.3529 13.881 21.5651 13.6609 21.6888 13.4232C21.8499 13.1167 21.8696 12.7787 21.7438 12.4467C21.5749 11.9987 21.1564 11.7315 20.6239 11.7315C20.5061 11.7315 20.3843 11.7453 20.2624 11.7708C19.9579 11.8376 19.6691 11.9457 19.4274 12.04C19.4097 12.0479 19.3901 12.0341 19.3921 12.0145C19.4176 11.4152 19.4471 10.6097 19.3803 9.8454C19.3213 9.15381 19.1779 8.57029 18.9461 8.06142C18.7123 7.55059 18.4077 7.17337 18.17 6.90027C17.9441 6.64092 17.5452 6.2578 16.944 5.91397C16.0992 5.43065 15.1365 5.18506 14.0834 5.18506C13.0322 5.18506 12.0715 5.43065 11.2247 5.91397C10.5881 6.27745 10.1814 6.68808 9.99672 6.90027C9.75899 7.17337 9.45445 7.55059 9.22065 8.06142C8.98685 8.57029 8.84539 9.15185 8.78645 9.8454C8.71965 10.6136 8.74715 11.3543 8.77466 12.0145C8.77466 12.0341 8.75698 12.0479 8.73733 12.04C8.49567 11.9457 8.20685 11.8376 7.90232 11.7708C7.78247 11.7453 7.66066 11.7315 7.54081 11.7315C7.01033 11.7315 6.59184 11.9987 6.42091 12.4467C6.29517 12.7787 6.31482 13.1167 6.47592 13.4232C6.60167 13.6609 6.81189 13.881 7.12036 14.0971C7.21466 14.1639 7.3797 14.27 7.57028 14.3938C7.78443 14.5332 8.13219 14.7592 8.35617 14.9144C8.38368 14.9341 8.47798 15.0048 8.50745 15.0794C8.53889 15.158 8.54478 15.217 8.50353 15.3742C8.43476 15.6021 8.27955 16.0147 7.9534 16.5039C7.68227 16.9145 7.34433 17.2976 6.94942 17.6473C6.45824 18.0815 5.87472 18.4647 5.21653 18.783C5.1851 18.7987 5.14777 18.8164 5.10847 18.8399C5.10847 18.8399 4.71552 19.0403 4.64087 19.2997C4.53084 19.6828 4.82359 20.0423 5.12026 20.2349C5.60751 20.5493 6.20086 20.7182 6.54469 20.8106C6.64096 20.8361 6.72741 20.8597 6.806 20.8833C6.85512 20.899 6.97889 20.9461 7.03194 21.0149C7.09874 21.1013 7.1066 21.2074 7.13018 21.3273C7.16751 21.5296 7.25199 21.7792 7.50151 21.9521C7.77658 22.1407 8.12433 22.1544 8.5664 22.1721C9.02811 22.1898 9.60181 22.2114 10.26 22.4295C10.5645 22.5297 10.8416 22.7006 11.1598 22.8971C11.8278 23.3077 12.6589 23.8186 14.0775 23.8186C15.498 23.8186 16.3349 23.3058 17.0069 22.8932C17.3252 22.6987 17.5983 22.5297 17.8969 22.4315C18.5551 22.2134 19.1288 22.1918 19.5905 22.1741C20.0326 22.1564 20.3803 22.1446 20.6554 21.954C20.9226 21.7693 20.9992 21.4943 21.0346 21.288C21.0542 21.1858 21.066 21.0935 21.125 21.0188C21.176 20.954 21.29 20.9088 21.343 20.8911C21.4236 20.8656 21.514 20.842 21.6142 20.8145C21.958 20.7221 22.3902 20.6141 22.9148 20.3174C23.5475 19.9579 23.5907 19.5178 23.5239 19.2997Z" fill="white"/>
<path d="M24.0703 19.0876C23.9308 18.7064 23.6636 18.504 23.361 18.3351C23.3041 18.3017 23.251 18.2742 23.2078 18.2545C23.1174 18.2074 23.0251 18.1622 22.9327 18.115C21.9877 17.614 21.249 16.9814 20.7381 16.2328C20.5652 15.9794 20.4454 15.7514 20.3609 15.5648C20.3177 15.4391 20.3196 15.3683 20.3511 15.3035C20.3747 15.2544 20.4375 15.2033 20.4729 15.1777C20.636 15.0697 20.803 14.9616 20.9169 14.8889C21.1193 14.7573 21.2804 14.6532 21.3826 14.5824C21.7716 14.3113 22.0427 14.0225 22.2117 13.7003C22.4514 13.2464 22.4809 12.7277 22.2962 12.2405C22.0408 11.5646 21.4002 11.1442 20.6261 11.1442C20.465 11.1442 20.302 11.1618 20.1409 11.1972C20.0976 11.207 20.0564 11.2168 20.0151 11.2267C20.023 10.7669 20.0112 10.2757 19.9699 9.79635C19.8245 8.10668 19.2332 7.22058 18.6162 6.51524C18.3588 6.22054 17.9109 5.79026 17.2389 5.40517C16.3018 4.86684 15.2408 4.5957 14.0836 4.5957C12.9303 4.5957 11.8693 4.86684 10.9322 5.40321C10.2563 5.78829 9.80834 6.22054 9.55292 6.51328C8.936 7.21862 8.34461 8.10471 8.19922 9.79438C8.15796 10.2738 8.14814 10.765 8.15403 11.2247C8.11278 11.2149 8.06955 11.2051 8.02829 11.1952C7.86718 11.1599 7.70215 11.1422 7.543 11.1422C6.7689 11.1422 6.1284 11.5626 5.87298 12.2385C5.6883 12.7258 5.71777 13.2444 5.95747 13.6983C6.12643 14.0205 6.39953 14.3093 6.78658 14.5805C6.89071 14.6532 7.04986 14.7573 7.25222 14.887C7.36225 14.9577 7.52139 15.0618 7.67857 15.166C7.70215 15.1817 7.78663 15.2445 7.8161 15.3035C7.8495 15.3703 7.8495 15.443 7.80038 15.5766C7.71786 15.7593 7.59802 15.9833 7.42905 16.2308C6.92804 16.9637 6.21092 17.5845 5.29732 18.0796C4.81203 18.337 4.30906 18.508 4.09687 19.0856C3.93576 19.5218 4.04185 20.0188 4.44855 20.4373C4.58215 20.5808 4.75112 20.7085 4.96331 20.8263C5.46235 21.1014 5.88674 21.237 6.22074 21.3293C6.27968 21.347 6.41525 21.3902 6.47419 21.4433C6.62351 21.5729 6.6019 21.7694 6.80034 22.0563C6.92018 22.2351 7.05772 22.3569 7.17167 22.4355C7.58623 22.7223 8.05383 22.74 8.54895 22.7596C8.99494 22.7773 9.50184 22.797 10.0795 22.9875C10.3192 23.0661 10.5687 23.2194 10.8555 23.3962C11.5471 23.8226 12.4961 24.4041 14.0816 24.4041C15.6691 24.4041 16.622 23.8186 17.3195 23.3923C17.6064 23.2174 17.8539 23.0642 18.0857 22.9875C18.6634 22.797 19.1703 22.7773 19.6163 22.7596C20.1114 22.74 20.577 22.7223 20.9935 22.4355C21.1232 22.3451 21.2883 22.1977 21.4179 21.9737C21.5594 21.7321 21.5574 21.5612 21.691 21.4452C21.746 21.3981 21.8659 21.3568 21.9307 21.3372C22.2667 21.2448 22.697 21.1093 23.2058 20.8283C23.4318 20.7045 23.6066 20.569 23.7461 20.4137C23.7481 20.4118 23.7501 20.4098 23.752 20.4079C24.1312 19.9953 24.2275 19.5139 24.0703 19.0876ZM22.6616 19.844C21.8011 20.3194 21.2293 20.2684 20.7853 20.5532C20.4081 20.7969 20.6301 21.3215 20.357 21.5101C20.019 21.7439 19.0229 21.4944 17.736 21.9187C16.6751 22.2704 15.9972 23.2783 14.0856 23.2783C12.1699 23.2783 11.5118 22.2743 10.4351 21.9187C9.14819 21.4944 8.15011 21.7439 7.81414 21.5101C7.54104 21.3215 7.76305 20.7969 7.38583 20.5532C6.9418 20.2664 6.37006 20.3175 5.50951 19.844C4.96135 19.5414 5.27178 19.3548 5.45449 19.2663C8.57056 17.7594 9.06567 15.4292 9.08925 15.2544C9.11675 15.0461 9.14622 14.8811 8.91635 14.6669C8.69434 14.4606 7.70608 13.8496 7.43298 13.659C6.97913 13.3427 6.78069 13.0264 6.92804 12.6373C7.03021 12.3682 7.28169 12.268 7.54693 12.268C7.62945 12.268 7.71394 12.2778 7.79449 12.2955C8.29157 12.4035 8.77489 12.6531 9.05388 12.7199C9.09318 12.7297 9.12658 12.7336 9.15605 12.7336C9.30537 12.7336 9.35645 12.659 9.34663 12.488C9.31519 11.9438 9.2366 10.8828 9.32305 9.89065C9.44093 8.52713 9.88103 7.85126 10.4037 7.25202C10.6551 6.96517 11.834 5.71953 14.0875 5.71953C16.347 5.71953 17.5199 6.96517 17.7714 7.25202C18.294 7.8493 18.7341 8.52516 18.852 9.89065C18.9384 10.8828 18.8638 11.9438 18.8284 12.488C18.8166 12.6668 18.8716 12.7336 19.019 12.7336C19.0485 12.7336 19.0838 12.7297 19.1212 12.7199C19.4002 12.6531 19.8835 12.4035 20.3806 12.2955C20.4611 12.2778 20.5456 12.268 20.6281 12.268C20.8933 12.268 21.1448 12.3701 21.247 12.6373C21.3944 13.0264 21.194 13.3427 20.7421 13.659C20.469 13.8496 19.4807 14.4606 19.2587 14.6669C19.0288 14.8791 19.0583 15.0441 19.0858 15.2544C19.1074 15.4292 19.6045 17.7594 22.7205 19.2663C22.8974 19.3548 23.2098 19.5414 22.6616 19.844Z" fill="black"/>
</g>
<defs>
<clipPath id="clip0_259_6880">
<rect width="28" height="28" fill="white" transform="translate(0.0834961 0.5)"/>
</clipPath>
</defs>
</svg>
