<svg width="32" height="32" viewBox="0 0 32 32" fill="none" xmlns="http://www.w3.org/2000/svg">
<path fill-rule="evenodd" clip-rule="evenodd" d="M21.1459 19.9836C15.297 19.9836 10.5729 15.2408 10.5729 9.41066C10.5729 15.2408 5.83011 19.9836 0 19.9836C5.83011 19.9836 10.5729 24.7077 10.5729 30.5378C10.5729 24.7077 15.297 19.9836 21.1459 19.9836Z" fill="#5FB1BA"/>
<path opacity="0.4" fill-rule="evenodd" clip-rule="evenodd" d="M32 25.4388C28.7944 25.4388 26.2074 22.833 26.2074 19.6462C26.2074 22.833 23.6017 25.4388 20.4148 25.4388C23.6017 25.4388 26.2074 28.0258 26.2074 31.2314C26.2074 28.0258 28.7944 25.4388 32 25.4388ZM28.6632 7.81722C24.7639 7.81722 21.6145 4.66784 21.6145 0.7686C21.6145 4.66784 18.4652 7.81722 14.5659 7.81722C18.4652 7.81722 21.6145 10.9666 21.6145 14.8658C21.6145 10.9666 24.7639 7.81722 28.6632 7.81722Z" fill="#5FB1BA"/>
</svg>
