<svg width="24" height="25" viewBox="0 0 24 25" fill="none" xmlns="http://www.w3.org/2000/svg">
<path d="M17.66 23.1701C17.13 23.1701 16.45 23.0001 15.6 22.5001L12.61 20.7301C12.3 20.5501 11.7 20.5501 11.4 20.7301L8.4 22.5001C6.63 23.5501 5.59 23.1301 5.12 22.7901C4.66 22.4501 3.94 21.5801 4.41 19.5801L5.12 16.5101C5.2 16.1901 5.04 15.6401 4.8 15.4001L2.32 12.9201C1.08 11.6801 1.18 10.6201 1.35 10.1001C1.52 9.58007 2.06 8.66007 3.78 8.37007L6.97 7.84007C7.27 7.79007 7.7 7.47007 7.83 7.20007L9.6 3.67007C10.4 2.06007 11.45 1.82007 12 1.82007C12.55 1.82007 13.6 2.06007 14.4 3.67007L16.16 7.19007C16.3 7.46007 16.73 7.78007 17.03 7.83007L20.22 8.36007C21.95 8.65007 22.49 9.57007 22.65 10.0901C22.81 10.6101 22.91 11.6701 21.68 12.9101L19.2 15.4001C18.96 15.6401 18.81 16.1801 18.88 16.5101L19.59 19.5801C20.05 21.5801 19.34 22.4501 18.88 22.7901C18.63 22.9701 18.23 23.1701 17.66 23.1701ZM12 19.0901C12.49 19.0901 12.98 19.2101 13.37 19.4401L16.36 21.2101C17.23 21.7301 17.78 21.7301 17.99 21.5801C18.2 21.4301 18.35 20.9001 18.13 19.9201L17.42 16.8501C17.23 16.0201 17.54 14.9501 18.14 14.3401L20.62 11.8601C21.11 11.3701 21.33 10.8901 21.23 10.5601C21.12 10.2301 20.66 9.96007 19.98 9.85007L16.79 9.32007C16.02 9.19007 15.18 8.57007 14.83 7.87007L13.07 4.35007C12.75 3.71007 12.35 3.33007 12 3.33007C11.65 3.33007 11.25 3.71007 10.94 4.35007L9.17 7.87007C8.82 8.57007 7.98 9.19007 7.21 9.32007L4.03 9.85007C3.35 9.96007 2.89 10.2301 2.78 10.5601C2.67 10.8901 2.9 11.3801 3.39 11.8601L5.87 14.3401C6.47 14.9401 6.78 16.0201 6.59 16.8501L5.88 19.9201C5.65 20.9101 5.81 21.4301 6.02 21.5801C6.23 21.7301 6.77 21.7201 7.65 21.2101L10.64 19.4401C11.02 19.2101 11.51 19.0901 12 19.0901Z" fill="#292D32"/>
</svg>
