<svg width="22" height="24" viewBox="0 0 22 24" fill="none" xmlns="http://www.w3.org/2000/svg">
<path d="M0.461219 23.0449C0.488002 23.0553 0.517802 23.0548 0.544253 23.0436C0.570703 23.0323 0.591709 23.0112 0.602781 22.9847C1.23212 21.474 5.39148 11.9972 12.4448 7.4541C5.30941 10.9597 1.47217 20.001 0.397469 22.904C0.387417 22.9311 0.388473 22.9611 0.400406 22.9875C0.41234 23.0139 0.43419 23.0345 0.461219 23.0449ZM1.43697 13.3951C1.47302 13.1697 1.55976 12.9554 1.69066 12.7683C1.37714 12.7536 1.07599 12.6416 0.829047 12.4479C0.823787 12.759 0.731945 13.0624 0.563828 13.3242C0.872612 13.3495 1.16815 13.4607 1.41695 13.6453C1.41711 13.5615 1.4238 13.4778 1.43697 13.3951Z" fill="white"/>
<path d="M1.71972 12.3005C1.90492 12.3054 2.08948 12.2767 2.2644 12.2157C2.32039 12.1972 2.38117 12.1995 2.43555 12.2223C2.48993 12.2451 2.53425 12.2867 2.56034 12.3396C2.58643 12.3925 2.59254 12.453 2.57754 12.51C2.56254 12.567 2.52745 12.6167 2.47872 12.6499C1.79265 13.1196 1.82837 13.657 1.96918 14.1677C1.98595 14.2279 1.98034 14.2922 1.9534 14.3487C1.92646 14.4051 1.88 14.4499 1.82261 14.4748C1.78889 14.4898 1.7524 14.4975 1.7155 14.4976C1.67481 14.4976 1.63471 14.4879 1.59846 14.4695C1.56222 14.451 1.53086 14.4242 1.50695 14.3913C1.4481 14.3107 1.38254 14.2352 1.31097 14.1657C1.09637 16.1182 1.61364 17.643 1.91434 18.3337C3.98532 14.3267 7.51689 9.14432 12.7084 6.81262C12.8104 6.76697 12.9259 6.76191 13.0314 6.79847C13.1369 6.83502 13.2245 6.91045 13.2764 7.00936C13.3283 7.10828 13.3404 7.22324 13.3105 7.33083C13.2805 7.43842 13.2106 7.53053 13.1151 7.5884C8.47304 10.3987 5.05309 15.4416 3.04215 19.0707C3.45665 19.1432 3.87745 19.1732 4.29803 19.1602C5.09411 19.1412 6.30709 18.9774 7.73795 18.3381C7.42652 18.1808 7.14342 17.9728 6.90025 17.7226C6.8633 17.6853 6.83804 17.638 6.82756 17.5865C6.81708 17.535 6.82182 17.4816 6.84122 17.4328C6.86062 17.384 6.89382 17.3419 6.93677 17.3116C6.97972 17.2814 7.03056 17.2643 7.08306 17.2625C7.93327 17.2176 8.77019 17.0323 9.55989 16.7141C10.9431 16.1619 12.0423 15.2734 12.8322 14.0703C12.1804 14.1594 10.9752 14.1894 10.2787 13.8238C10.2263 13.7964 10.1831 13.7541 10.1545 13.7023C10.126 13.6504 10.1134 13.5913 10.1183 13.5323C10.1232 13.4734 10.1454 13.4171 10.1821 13.3707C10.2188 13.3243 10.2684 13.2898 10.3246 13.2714C10.4476 13.2314 10.624 13.1896 10.8472 13.1367C12.0688 12.8474 14.5358 12.263 15.9619 10.2736C15.551 10.3142 15.0191 10.3251 14.6454 10.1828C14.6126 10.1703 14.5826 10.1512 14.5573 10.1267C14.5321 10.1023 14.5121 10.0729 14.4985 10.0405C14.4849 10.0081 14.4781 9.9732 14.4784 9.93804C14.4787 9.90288 14.4862 9.86815 14.5003 9.83596C14.9871 8.7254 16.3561 7.19446 17.5441 6.06327C17.3984 5.97001 17.2357 5.90631 17.0655 5.87577C17.0089 5.86507 16.958 5.83477 16.9215 5.79019C16.8851 5.74562 16.8656 5.68964 16.8664 5.63209C16.8672 5.57454 16.8883 5.51912 16.9259 5.47558C16.9636 5.43204 17.0153 5.40316 17.0722 5.39404C17.8545 5.26771 18.0902 4.63438 18.161 4.2681C18.1721 4.20984 18.203 4.15719 18.2483 4.11893C18.2936 4.08068 18.3507 4.05916 18.41 4.05796C18.4725 4.05629 18.5335 4.07704 18.582 4.11646C18.6305 4.15587 18.6632 4.21135 18.6744 4.27284C18.7041 4.48836 18.7729 4.69666 18.8773 4.88751C19.5403 4.35149 20.5465 3.61162 21.3206 3.36557C16.0901 1.31812 12.4241 3.78435 11.7313 4.30874C11.6851 4.34361 11.63 4.36457 11.5724 4.36914C11.5147 4.37371 11.457 4.36171 11.4059 4.33454C11.3549 4.30738 11.3126 4.26618 11.2842 4.21582C11.2558 4.16545 11.2424 4.10801 11.2456 4.05027C11.2626 3.75181 11.3237 3.4575 11.4268 3.1769C5.98928 4.30809 5.12964 7.9484 4.75829 9.52002C4.64148 10.0144 4.58818 10.24 4.41278 10.3375C4.37623 10.358 4.33578 10.3705 4.29406 10.3743C4.25234 10.3781 4.21029 10.373 4.17067 10.3594C3.69395 10.1995 3.66746 9.40719 3.70468 8.84535C2.79292 9.9419 2.12659 11.1014 1.71972 12.3005Z" fill="white"/>
<path d="M18.3765 6.31876C18.4147 6.24437 18.4586 6.17305 18.5078 6.10543C18.6424 5.92114 18.8171 5.76982 19.0187 5.66288C18.7462 5.50689 18.5289 5.26995 18.397 4.98493C18.2509 5.25933 18.0313 5.4876 17.7627 5.64413C18.0263 5.80733 18.2389 6.04102 18.3765 6.31876ZM2.26832 1.77657C2.29804 1.78458 2.32905 1.78665 2.35958 1.78268C2.3901 1.7787 2.41955 1.76875 2.44623 1.75339C2.4729 1.73803 2.4963 1.71757 2.51507 1.69317C2.53384 1.66877 2.54762 1.64092 2.55562 1.61119L2.68152 1.14376C2.6974 1.08383 2.68888 1.02005 2.65784 0.966388C2.6268 0.912725 2.57576 0.873545 2.5159 0.857426C2.45604 0.841308 2.39223 0.849563 2.33844 0.880385C2.28465 0.911206 2.24526 0.962084 2.2289 1.02188L2.10299 1.48941C2.08686 1.54941 2.09521 1.61337 2.12621 1.66721C2.15721 1.72106 2.20833 1.76039 2.26832 1.77657ZM1.95946 3.15826C2.01098 3.15822 2.06106 3.14122 2.10194 3.10987C2.14282 3.07852 2.17224 3.03457 2.18563 2.98482L2.31159 2.51719C2.32746 2.45727 2.31895 2.39349 2.2879 2.33983C2.25686 2.28616 2.20583 2.24698 2.14596 2.23086C2.0861 2.21475 2.02229 2.223 1.9685 2.25382C1.91471 2.28464 1.87532 2.33552 1.85896 2.39532L1.73296 2.86285C1.72361 2.8976 1.72238 2.93403 1.72937 2.96933C1.73636 3.00463 1.75139 3.03785 1.77329 3.06641C1.79519 3.09496 1.82337 3.11809 1.85564 3.13401C1.88792 3.14992 1.92343 3.15818 1.95941 3.15816L1.95946 3.15826ZM2.43341 2.06433C2.42539 2.09405 2.42329 2.12505 2.42725 2.15557C2.4312 2.1861 2.44113 2.21554 2.45646 2.24223C2.4718 2.26892 2.49224 2.29232 2.51662 2.31111C2.541 2.3299 2.56884 2.3437 2.59856 2.35172L3.06548 2.47782C3.09526 2.48606 3.12638 2.48833 3.15704 2.4845C3.1877 2.48067 3.2173 2.47081 3.24414 2.45549C3.27098 2.44018 3.29452 2.41971 3.31342 2.39526C3.33232 2.37081 3.34619 2.34287 3.35425 2.31303C3.36231 2.2832 3.36438 2.25207 3.36036 2.22143C3.35634 2.19079 3.3463 2.16125 3.33082 2.13451C3.31534 2.10777 3.29472 2.08435 3.27016 2.0656C3.24559 2.04686 3.21756 2.03316 3.18768 2.02529L2.72081 1.89915C2.69109 1.89112 2.66008 1.88903 2.62956 1.89298C2.59903 1.89694 2.56958 1.90687 2.54289 1.92221C2.51621 1.93755 2.4928 1.958 2.47402 1.98238C2.45523 2.00677 2.44144 2.03462 2.43341 2.06433ZM1.22671 1.98122L1.69363 2.10732C1.72335 2.11535 1.75436 2.11745 1.7849 2.1135C1.81543 2.10955 1.84488 2.09962 1.87158 2.08429C1.89827 2.06895 1.92169 2.04851 1.94048 2.02413C1.95928 1.99974 1.97308 1.9719 1.98112 1.94218C1.98915 1.91246 1.99125 1.88145 1.9873 1.85091C1.98335 1.82038 1.97342 1.79093 1.95809 1.76423C1.94275 1.73754 1.92231 1.71412 1.89793 1.69533C1.87354 1.67653 1.8457 1.66273 1.81598 1.65469L1.3491 1.5286C1.31938 1.52056 1.28837 1.51846 1.25784 1.52241C1.22731 1.52636 1.19785 1.53628 1.17115 1.55161C1.14445 1.56695 1.12104 1.58739 1.10224 1.61177C1.08344 1.63615 1.06963 1.664 1.06159 1.69372C1.05356 1.72344 1.05145 1.75445 1.0554 1.78498C1.05935 1.81551 1.06928 1.84497 1.08461 1.87167C1.09994 1.89836 1.12038 1.92178 1.14476 1.94058C1.16915 1.95938 1.19699 1.97319 1.22671 1.98122ZM14.1231 17.159C14.0934 17.1509 14.0623 17.1488 14.0318 17.1527C14.0013 17.1566 13.9718 17.1665 13.9451 17.1818C13.9184 17.1971 13.895 17.2175 13.8762 17.2419C13.8573 17.2662 13.8435 17.294 13.8354 17.3237L13.7189 17.7519C13.7108 17.7816 13.7087 17.8126 13.7126 17.8431C13.7165 17.8736 13.7264 17.9031 13.7417 17.9298C13.757 17.9565 13.7774 17.9799 13.8018 17.9988C13.8261 18.0176 13.8539 18.0314 13.8836 18.0395C13.9133 18.0476 13.9443 18.0497 13.9749 18.0458C14.0054 18.0419 14.0349 18.032 14.0616 18.0167C14.0883 18.0014 14.1117 17.981 14.1306 17.9566C14.1494 17.9323 14.1632 17.9045 14.1713 17.8748L14.2876 17.4466C14.3039 17.3867 14.2957 17.3227 14.2649 17.2687C14.234 17.2148 14.183 17.1753 14.1231 17.159ZM13.4939 18.5816L13.3776 19.0097C13.3692 19.0395 13.3668 19.0707 13.3706 19.1014C13.3743 19.1321 13.3841 19.1618 13.3993 19.1887C13.4146 19.2156 13.4351 19.2393 13.4595 19.2583C13.484 19.2772 13.5119 19.2912 13.5418 19.2993C13.5717 19.3074 13.6029 19.3095 13.6335 19.3055C13.6642 19.3015 13.6938 19.2915 13.7206 19.276C13.7474 19.2605 13.7709 19.2398 13.7896 19.2152C13.8084 19.1906 13.8221 19.1625 13.8299 19.1326L13.9462 18.7044C13.9546 18.6746 13.957 18.6435 13.9533 18.6128C13.9495 18.582 13.9398 18.5523 13.9245 18.5254C13.9092 18.4985 13.8888 18.4749 13.8643 18.4559C13.8399 18.4369 13.8119 18.4229 13.782 18.4148C13.7522 18.4067 13.721 18.4046 13.6903 18.4086C13.6596 18.4126 13.63 18.4227 13.6032 18.4382C13.5764 18.4537 13.553 18.4743 13.5342 18.4989C13.5154 18.5236 13.5017 18.5516 13.4939 18.5816ZM14.024 18.2794C14.016 18.3092 14.014 18.3402 14.018 18.3707C14.0221 18.4012 14.0321 18.4306 14.0475 18.4573C14.0629 18.4839 14.0834 18.5073 14.1078 18.526C14.1322 18.5447 14.1601 18.5585 14.1898 18.5664L14.6211 18.6819C14.6409 18.6872 14.6614 18.6899 14.682 18.69C14.7389 18.69 14.7939 18.6694 14.8367 18.6318C14.8795 18.5943 14.9072 18.5425 14.9146 18.4861C14.922 18.4296 14.9086 18.3724 14.8769 18.3251C14.8453 18.2779 14.7975 18.2437 14.7425 18.2291L14.3112 18.1136C14.2815 18.1056 14.2504 18.1036 14.2199 18.1076C14.1894 18.1116 14.1599 18.1216 14.1332 18.137C14.1066 18.1524 14.0832 18.1729 14.0645 18.1973C14.0457 18.2218 14.032 18.2497 14.024 18.2794ZM13.4754 17.8899L13.0441 17.7744C12.9843 17.7591 12.9209 17.7679 12.8676 17.7991C12.8143 17.8302 12.7755 17.8812 12.7595 17.9408C12.7435 18.0004 12.7517 18.0639 12.7823 18.1176C12.8129 18.1712 12.8634 18.2106 12.9229 18.2272L13.3541 18.3427C13.384 18.351 13.4152 18.3533 13.4459 18.3495C13.4767 18.3457 13.5064 18.3359 13.5333 18.3205C13.5602 18.3051 13.5838 18.2846 13.6027 18.2601C13.6216 18.2355 13.6355 18.2075 13.6435 18.1776C13.6516 18.1476 13.6536 18.1164 13.6494 18.0857C13.6453 18.055 13.6351 18.0254 13.6195 17.9986C13.6038 17.9719 13.5831 17.9485 13.5583 17.9298C13.5336 17.9112 13.5054 17.8976 13.4754 17.8899ZM19.3352 9.37566C19.3051 9.31818 19.2555 9.27336 19.1952 9.24928C19.135 9.22521 19.0681 9.22349 19.0067 9.24441C18.9483 9.26385 18.8983 9.30277 18.8652 9.35464C18.832 9.40651 18.8177 9.4682 18.8246 9.52936C18.8842 10.0645 18.8308 11.0387 17.8034 11.5515C17.7509 11.5774 17.7092 11.621 17.6857 11.6747C17.6621 11.7284 17.6584 11.7886 17.675 11.8448C17.6916 11.901 17.7276 11.9495 17.7765 11.9818C17.8254 12.014 17.8841 12.028 17.9423 12.0211C19.0835 11.8909 19.6526 12.6731 19.8903 13.1508C19.9124 13.1956 19.9466 13.2333 19.9891 13.2597C20.0316 13.286 20.0807 13.2999 20.1306 13.2998C20.1535 13.2997 20.1764 13.2969 20.1986 13.2913C20.2617 13.276 20.3172 13.2384 20.3547 13.1854C20.3922 13.1324 20.4093 13.0676 20.4028 13.003C20.3555 12.5276 20.257 11.5383 21.5016 10.9671C21.556 10.9423 21.5996 10.8986 21.6245 10.8441C21.6493 10.7896 21.6536 10.728 21.6366 10.6706C21.6196 10.6132 21.5825 10.5639 21.532 10.5317C21.4816 10.4995 21.4212 10.4866 21.362 10.4954C20.0105 10.6941 19.5545 9.80368 19.3352 9.37566Z" fill="white"/>
</svg>
