<svg width="33" height="32" viewBox="0 0 33 32" fill="none" xmlns="http://www.w3.org/2000/svg">
<path opacity="0.4" d="M6.3605 20.3997L12.4005 26.4397C14.8805 28.9197 18.9072 28.9197 21.4005 26.4397L27.2538 20.5864C29.7338 18.1064 29.7338 14.0797 27.2538 11.5864L21.2005 5.55974C19.9338 4.29307 18.1872 3.61307 16.4005 3.7064L9.73383 4.0264C7.06716 4.1464 4.94716 6.2664 4.81383 8.91974L4.49383 15.5864C4.41383 17.3864 5.09383 19.1331 6.3605 20.3997Z" fill="#5FB1BA"/>
<path d="M13.4668 16.5068C15.5876 16.5068 17.3068 14.7876 17.3068 12.6668C17.3068 10.546 15.5876 8.82682 13.4668 8.82682C11.346 8.82682 9.6268 10.546 9.6268 12.6668C9.6268 14.7876 11.346 16.5068 13.4668 16.5068Z" fill="#5FB1BA"/>
</svg>
