<svg width="24" height="24" viewBox="0 0 24 24" fill="none" xmlns="http://www.w3.org/2000/svg">
<path d="M22.95 14.1002C22.8712 14.1593 22.7816 14.2023 22.6861 14.2267C22.5907 14.2511 22.4914 14.2566 22.3939 14.2426C22.2964 14.2287 22.2026 14.1957 22.1179 14.1455C22.0331 14.0953 21.9591 14.029 21.9 13.9502C21.448 13.3425 20.8596 12.8495 20.1822 12.5108C19.5048 12.1721 18.7573 11.9972 18 12.0002C17.8525 12.0002 17.7083 11.9567 17.5854 11.8751C17.4625 11.7936 17.3664 11.6776 17.3091 11.5417C17.2701 11.4495 17.2501 11.3503 17.2501 11.2502C17.2501 11.15 17.2701 11.0509 17.3091 10.9586C17.3664 10.8227 17.4625 10.7068 17.5854 10.6252C17.7083 10.5437 17.8525 10.5002 18 10.5002C18.4208 10.5001 18.8332 10.3821 19.1903 10.1594C19.5474 9.93677 19.8349 9.61844 20.0201 9.24058C20.2053 8.86273 20.2809 8.4405 20.2382 8.02185C20.1955 7.60321 20.0362 7.20493 19.7785 6.87225C19.5208 6.53958 19.175 6.28584 18.7803 6.13987C18.3856 5.9939 17.9579 5.96154 17.5457 6.04646C17.1336 6.13139 16.7535 6.3302 16.4487 6.62031C16.1438 6.91043 15.9265 7.28021 15.8213 7.68767C15.7966 7.78308 15.7535 7.87271 15.6942 7.95144C15.6349 8.03017 15.5608 8.09645 15.4759 8.14651C15.391 8.19656 15.2971 8.22941 15.1995 8.24318C15.1019 8.25694 15.0026 8.25135 14.9072 8.22673C14.8118 8.20211 14.7222 8.15893 14.6434 8.09967C14.5647 8.04041 14.4984 7.96622 14.4484 7.88134C14.3983 7.79646 14.3655 7.70256 14.3517 7.60498C14.3379 7.50741 14.3435 7.40808 14.3681 7.31267C14.5142 6.74765 14.79 6.22451 15.1738 5.78487C15.5576 5.34523 16.0387 5.00124 16.5788 4.78025C17.1189 4.55926 17.7032 4.46738 18.2851 4.51191C18.8669 4.55645 19.4304 4.73618 19.9306 5.0368C20.4308 5.33742 20.8539 5.75063 21.1663 6.24356C21.4787 6.73648 21.6717 7.29552 21.7301 7.87618C21.7884 8.45684 21.7104 9.0431 21.5023 9.58831C21.2942 10.1335 20.9617 10.6226 20.5313 11.0167C21.5511 11.4583 22.4376 12.159 23.1028 13.0492C23.1619 13.1282 23.2048 13.2181 23.2291 13.3137C23.2535 13.4093 23.2587 13.5088 23.2445 13.6064C23.2303 13.704 23.197 13.7979 23.1464 13.8826C23.0959 13.9673 23.0292 14.0413 22.95 14.1002ZM17.8988 19.8752C17.953 19.9605 17.9895 20.056 18.0059 20.1558C18.0223 20.2556 18.0184 20.3577 17.9943 20.456C17.9702 20.5542 17.9265 20.6466 17.8658 20.7275C17.8052 20.8084 17.7287 20.8762 17.6412 20.9269C17.5536 20.9775 17.4567 21.0099 17.3563 21.0221C17.2558 21.0343 17.154 21.026 17.0569 20.9978C16.9597 20.9696 16.8693 20.9221 16.791 20.8581C16.7127 20.794 16.6481 20.7148 16.6013 20.6252C16.1288 19.8252 15.4559 19.1622 14.649 18.7016C13.8421 18.241 12.9291 17.9988 12 17.9988C11.0709 17.9988 10.1579 18.241 9.35099 18.7016C8.54409 19.1622 7.87122 19.8252 7.39876 20.6252C7.35187 20.7148 7.28734 20.794 7.20905 20.8581C7.13075 20.9221 7.04031 20.9696 6.94316 20.9978C6.84602 21.026 6.74417 21.0343 6.64376 21.0221C6.54335 21.0099 6.44644 20.9775 6.35886 20.9269C6.27129 20.8762 6.19486 20.8084 6.13417 20.7275C6.07349 20.6466 6.0298 20.5542 6.00573 20.456C5.98167 20.3577 5.97772 20.2556 5.99414 20.1558C6.01056 20.056 6.04699 19.9605 6.10126 19.8752C6.82838 18.6258 7.93707 17.6427 9.26439 17.0702C8.51751 16.4983 7.9686 15.7068 7.69482 14.8069C7.42105 13.907 7.43617 12.9438 7.73806 12.053C8.03995 11.1621 8.61343 10.3882 9.37789 9.84005C10.1424 9.29194 11.0594 8.99716 12 8.99716C12.9407 8.99716 13.8577 9.29194 14.6221 9.84005C15.3866 10.3882 15.9601 11.1621 16.262 12.053C16.5639 12.9438 16.579 13.907 16.3052 14.8069C16.0314 15.7068 15.4825 16.4983 14.7356 17.0702C16.063 17.6427 17.1716 18.6258 17.8988 19.8752ZM12 16.5002C12.5934 16.5002 13.1734 16.3242 13.6667 15.9946C14.1601 15.6649 14.5446 15.1964 14.7717 14.6482C14.9987 14.1 15.0581 13.4968 14.9424 12.9149C14.8266 12.333 14.5409 11.7984 14.1213 11.3788C13.7018 10.9593 13.1672 10.6736 12.5853 10.5578C12.0033 10.4421 11.4001 10.5015 10.852 10.7285C10.3038 10.9556 9.83525 11.3401 9.5056 11.8335C9.17596 12.3268 9.00001 12.9068 9.00001 13.5002C9.00001 14.2958 9.31608 15.0589 9.87869 15.6215C10.4413 16.1841 11.2044 16.5002 12 16.5002ZM6.75001 11.2502C6.75001 11.0513 6.67099 10.8605 6.53034 10.7198C6.38969 10.5792 6.19892 10.5002 6.00001 10.5002C5.57919 10.5001 5.16682 10.3821 4.80973 10.1594C4.45264 9.93677 4.16515 9.61844 3.97991 9.24058C3.79468 8.86273 3.71912 8.4405 3.76182 8.02185C3.80452 7.60321 3.96377 7.20493 4.22149 6.87225C4.4792 6.53958 4.82504 6.28584 5.21973 6.13987C5.61442 5.9939 6.04213 5.96154 6.45429 6.04646C6.86645 6.13139 7.24653 6.3302 7.55136 6.62031C7.85619 6.91043 8.07356 7.28021 8.17876 7.68767C8.22849 7.88036 8.35273 8.04541 8.52415 8.14651C8.69557 8.2476 8.90013 8.27646 9.09282 8.22673C9.28552 8.177 9.45057 8.05276 9.55166 7.88134C9.65276 7.70992 9.68161 7.50536 9.63189 7.31267C9.48586 6.74765 9.20999 6.22451 8.82621 5.78487C8.44243 5.34523 7.96134 5.00124 7.42122 4.78025C6.88109 4.55926 6.29685 4.46738 5.71497 4.51191C5.13309 4.55645 4.56964 4.73618 4.06944 5.0368C3.56925 5.33742 3.14611 5.75063 2.83372 6.24356C2.52132 6.73648 2.32828 7.29552 2.26995 7.87618C2.21162 8.45684 2.28962 9.0431 2.49774 9.58831C2.70586 10.1335 3.03835 10.6226 3.46876 11.0167C2.44996 11.4587 1.56443 12.1594 0.90001 13.0492C0.780538 13.2084 0.729174 13.4084 0.757216 13.6054C0.785259 13.8024 0.890411 13.9802 1.04954 14.0997C1.20867 14.2192 1.40874 14.2705 1.60574 14.2425C1.80275 14.2145 1.98054 14.1093 2.10001 13.9502C2.55206 13.3425 3.14046 12.8495 3.81785 12.5108C4.49523 12.1721 5.24268 11.9972 6.00001 12.0002C6.19892 12.0002 6.38969 11.9212 6.53034 11.7805C6.67099 11.6398 6.75001 11.4491 6.75001 11.2502Z" fill="#333333"/>
</svg>
