<svg width="24" height="25" viewBox="0 0 24 25" fill="none" xmlns="http://www.w3.org/2000/svg">
<path d="M16.28 22.6H12.48C11.92 22.6 10.7 22.43 10.05 21.78L7.01999 19.44L7.93999 18.25L11.04 20.65C11.29 20.89 11.92 21.09 12.48 21.09H16.28C17.18 21.09 18.15 20.37 18.35 19.56L20.77 12.21C20.93 11.77 20.9 11.37 20.69 11.08C20.47 10.77 20.07 10.59 19.58 10.59H15.58C15.06 10.59 14.58 10.37 14.25 9.98999C13.91 9.59999 13.76 9.07999 13.84 8.53999L14.34 5.32999C14.46 4.76999 14.08 4.13999 13.54 3.95999C13.05 3.77999 12.42 4.03999 12.2 4.35999L8.09999 10.46L6.85999 9.62999L10.96 3.52999C11.59 2.58999 12.97 2.13999 14.05 2.54999C15.3 2.95999 16.1 4.33999 15.82 5.61999L15.33 8.76999C15.32 8.83999 15.32 8.93999 15.39 9.01999C15.44 9.06999 15.51 9.09999 15.59 9.09999H19.59C20.57 9.09999 21.42 9.50999 21.92 10.22C22.41 10.91 22.51 11.82 22.19 12.7L19.8 19.98C19.43 21.43 17.89 22.6 16.28 22.6Z" fill="#444444"/>
<path d="M5.38 21.4999H4.38C2.53 21.4999 1.63 20.6299 1.63 18.8499V9.0499C1.63 7.2699 2.53 6.3999 4.38 6.3999H5.38C7.23 6.3999 8.13 7.2699 8.13 9.0499V18.8499C8.13 20.6299 7.23 21.4999 5.38 21.4999ZM4.38 7.8999C3.29 7.8999 3.13001 8.1599 3.13001 9.0499V18.8499C3.13001 19.7399 3.29 19.9999 4.38 19.9999H5.38C6.47001 19.9999 6.63 19.7399 6.63 18.8499V9.0499C6.63 8.1599 6.47001 7.8999 5.38 7.8999H4.38Z" fill="#444444"/>
</svg>
