<svg width="24" height="24" viewBox="0 0 24 24" fill="none" xmlns="http://www.w3.org/2000/svg">
<path fill-rule="evenodd" clip-rule="evenodd" d="M6.92822 20.5361C6.81909 20.3595 6.67959 20.1427 6.44409 19.7254C5.53959 18.1219 5.85759 16.2079 5.99597 14.8147C6.03197 14.4506 6.05447 14.1274 6.02297 13.8649C5.99522 13.6324 5.92509 13.4602 5.69334 13.4291C4.95684 13.3294 4.57547 12.762 4.42809 12.1357C4.29272 11.5601 4.36884 10.9519 4.46597 10.7287C4.58184 10.4621 4.82784 10.1145 5.25159 10.0016C5.61647 9.90374 6.16322 9.96899 6.91584 10.5889C6.97809 10.6402 7.03809 10.6065 7.10747 10.566C7.23797 10.4899 7.37709 10.3699 7.53497 10.2307C8.25497 9.59737 9.27459 8.62649 11.0375 8.63549C11.3675 8.63737 11.756 8.35574 12.104 7.94699C12.6725 7.27949 13.1033 6.23812 12.9136 5.14687C12.7726 4.33762 12.5052 4.23749 11.9371 3.56699C12.5847 3.87974 13.1817 4.49849 13.6861 4.87837C13.7746 5.09399 13.7382 5.76449 13.6636 6.26174C13.5391 7.06246 13.1972 7.81363 12.6751 8.43337C12.155 9.04424 11.5268 9.38812 11.0333 9.38549C9.23297 9.37612 8.34272 10.5859 7.69359 11.0737C7.22672 11.4244 6.83184 11.4915 6.43884 11.1679C5.97534 10.7857 5.67009 10.6661 5.44509 10.7261C5.27897 10.7704 5.19909 10.9234 5.15334 11.028C5.08884 11.1765 5.06822 11.5811 5.15822 11.964C5.23659 12.297 5.40234 12.633 5.79384 12.6859C6.52622 12.7845 6.79284 13.3136 6.78722 14.1701C6.78272 14.8954 6.58022 15.8989 6.56934 16.9567C6.55922 17.9261 6.72872 18.9724 7.42097 19.8379C7.58184 20.0389 7.78547 20.3696 7.95084 20.6535L10.6587 20.9651C10.736 20.9739 10.8141 20.9584 10.8822 20.9209C10.9504 20.8833 11.0051 20.8255 11.039 20.7555C11.0728 20.6854 11.0841 20.6066 11.0712 20.5299C11.0583 20.4532 11.0219 20.3824 10.967 20.3272L10.5976 19.9579C10.4854 19.8457 10.4059 19.7051 10.3676 19.5512C10.3294 19.3972 10.3338 19.2357 10.3805 19.0841L11.1796 16.4876C11.2459 16.2723 11.3929 16.091 11.5899 15.9816C11.7869 15.8722 12.0185 15.8432 12.2363 15.9007C12.6166 16.0027 13.0062 16.0886 13.2751 16.1081C13.4476 16.1205 13.5863 16.1036 13.6775 16.0717C13.9186 15.9874 14.1447 15.7894 14.2936 15.5194C14.4683 15.2032 14.537 14.7919 14.4155 14.3981L14.6442 14.0299C14.6887 13.9579 14.7075 13.873 14.6978 13.789C14.6881 13.705 14.6503 13.6267 14.5906 13.5667L14.5081 13.4846L14.6431 13.4171C14.7288 13.3743 14.7949 13.3002 14.8277 13.2102C14.8606 13.1202 14.8577 13.021 14.8197 12.933L14.6705 12.5869C14.7966 12.544 14.9176 12.4873 15.0312 12.4177C15.368 12.204 15.5641 11.8822 15.4062 11.4562C15.2795 11.1139 14.9558 10.8184 14.6405 10.5412C14.5235 10.4385 14.4098 10.3376 14.324 10.2319C14.2763 10.173 14.2332 10.1167 14.2272 10.0504C14.2092 9.85949 14.3408 9.53887 14.4537 9.13049C14.6641 8.37037 14.8595 7.37624 14.5085 6.36074C14.3249 5.82156 14.0463 5.31954 13.6861 4.87837C14.1331 5.12887 14.4897 5.45549 14.72 5.86574C15.0376 6.43237 15.0976 7.15312 14.8351 8.03249C14.8109 8.12649 14.8241 8.2262 14.8719 8.31068C14.9197 8.39516 14.9983 8.45786 15.0913 8.48561C15.1843 8.51336 15.2845 8.50401 15.3707 8.45952C15.457 8.41503 15.5227 8.33886 15.554 8.24699C15.8866 7.13099 15.7771 6.21824 15.374 5.49899C14.7875 4.45237 13.4753 3.79687 11.9371 3.56699C10.6992 3.01874 9.03197 2.84587 6.87797 3.26287C2.44847 4.12049 1.53909 8.07149 1.32384 9.73724C1.11722 11.3366 1.00734 14.6524 1.32347 17.334C1.46484 18.5355 2.23022 19.2806 3.11109 19.7332C4.27547 20.3314 5.63409 20.3996 5.79534 20.4056L6.92822 20.5361ZM20.9487 18.4226C23.5621 15.8092 23.5621 11.5657 20.9487 8.95237C20.878 8.88406 20.7833 8.84626 20.6849 8.84711C20.5866 8.84797 20.4926 8.88741 20.423 8.95693C20.3535 9.02646 20.3141 9.12052 20.3132 9.21884C20.3124 9.31716 20.3502 9.41189 20.4185 9.48262C22.739 11.8035 22.739 15.5715 20.4185 17.8924C20.3482 17.9627 20.3086 18.0581 20.3086 18.1575C20.3086 18.2569 20.3482 18.3523 20.4185 18.4226C20.4888 18.4929 20.5841 18.5324 20.6836 18.5324C20.783 18.5324 20.8784 18.4929 20.9487 18.4226ZM19.3017 16.776C21.0065 15.0712 21.0065 12.3037 19.3017 10.599C19.2313 10.5287 19.1359 10.4892 19.0365 10.4892C18.937 10.4893 18.8416 10.5288 18.7713 10.5992C18.701 10.6695 18.6615 10.765 18.6615 10.8644C18.6616 10.9639 18.7011 11.0593 18.7715 11.1296C20.1833 12.5411 20.1833 14.8339 18.7715 16.2454C18.7011 16.3157 18.6616 16.4111 18.6615 16.5105C18.6615 16.61 18.701 16.7054 18.7713 16.7758C18.8416 16.8462 18.937 16.8857 19.0365 16.8858C19.1359 16.8858 19.2313 16.8463 19.3017 16.776ZM17.8902 15.3641C18.3347 14.9193 18.5844 14.3163 18.5844 13.6875C18.5844 13.0587 18.3347 12.4556 17.8902 12.0109C17.8554 11.976 17.8141 11.9484 17.7686 11.9296C17.7231 11.9107 17.6743 11.901 17.6251 11.901C17.5759 11.901 17.5271 11.9107 17.4816 11.9296C17.4361 11.9484 17.3948 11.976 17.36 12.0109C17.3251 12.0457 17.2975 12.087 17.2787 12.1325C17.2598 12.178 17.2501 12.2268 17.2501 12.276C17.2501 12.3252 17.2598 12.374 17.2787 12.4195C17.2975 12.465 17.3251 12.5063 17.36 12.5411C17.6637 12.8453 17.8344 13.2576 17.8344 13.6875C17.8344 14.1174 17.6637 14.5297 17.36 14.8339C17.2917 14.9046 17.2539 14.9993 17.2547 15.0976C17.2556 15.196 17.295 15.29 17.3645 15.3595C17.4341 15.4291 17.5281 15.4685 17.6264 15.4694C17.7248 15.4702 17.8195 15.4324 17.8902 15.3641Z" fill="white"/>
</svg>
