<svg width="29" height="29" viewBox="0 0 29 29" fill="none" xmlns="http://www.w3.org/2000/svg">
<g clip-path="url(#clip0_259_6873)">
<path d="M28.917 21.3945C28.917 21.5479 28.9122 21.8788 28.9026 22.1377C28.8786 22.7658 28.8307 23.576 28.754 23.9452C28.6389 24.5014 28.4711 25.024 28.2458 25.4603C27.9821 25.9781 27.6464 26.4384 27.2437 26.8363C26.8458 27.2342 26.3855 27.5699 25.8677 27.8336C25.4314 28.0589 24.904 28.2267 24.343 28.3418C23.9786 28.4137 23.1732 28.4664 22.5499 28.4856C22.291 28.4952 21.9601 28.5 21.8067 28.5H8.01768C7.86425 28.5 7.53343 28.4952 7.27453 28.4856C6.64644 28.4616 5.83617 28.4137 5.46699 28.337C4.91083 28.2219 4.38823 28.0541 3.95192 27.8288C3.43412 27.5651 2.97384 27.2295 2.5759 26.8267C2.17795 26.4288 1.84233 25.9685 1.57864 25.4507C1.35329 25.0144 1.18549 24.487 1.07042 23.926C0.998499 23.5616 0.945759 22.7562 0.926581 22.1329C0.921787 21.8788 0.916992 21.5479 0.916992 21.3945V7.60548C0.916992 7.45205 0.921787 7.12123 0.931376 6.86233C0.955348 6.23425 1.00329 5.42397 1.08001 5.05479C1.19507 4.49863 1.36288 3.97603 1.58823 3.53973C1.85192 3.02192 2.18754 2.56164 2.58549 2.1637C2.98343 1.76575 3.4437 1.43014 3.96151 1.16644C4.39781 0.941096 4.92521 0.773288 5.48617 0.658219C5.85055 0.586301 6.65603 0.533562 7.27932 0.514384C7.53822 0.504795 7.86905 0.5 8.02247 0.5H21.8115C21.9649 0.5 22.2958 0.504795 22.5547 0.514384C23.1827 0.538356 23.993 0.586301 24.3622 0.663014C24.9184 0.778082 25.441 0.94589 25.8773 1.17123C26.3951 1.43493 26.8553 1.77055 27.2533 2.17329C27.6512 2.57123 27.9869 3.03151 28.2506 3.54931C28.4759 3.98562 28.6437 4.51301 28.7588 5.07397C28.8307 5.43836 28.8834 6.24384 28.9026 6.86712C28.9122 7.12603 28.917 7.45685 28.917 7.61027V21.3945Z" fill="url(#paint0_linear_259_6873)"/>
<path fill-rule="evenodd" clip-rule="evenodd" d="M22.2813 7.20273C20.3971 5.31849 17.8895 4.27808 15.219 4.27808C9.71486 4.27808 5.24157 8.75616 5.23678 14.2555C5.23678 16.0151 5.69705 17.7315 6.56966 19.2418L5.15527 24.4151L10.4484 23.0294C11.906 23.8253 13.5457 24.2425 15.219 24.2425H15.2238C20.7231 24.2425 25.2012 19.7644 25.206 14.2651C25.206 11.5945 24.1655 9.08698 22.2813 7.20273ZM15.2238 22.5548C13.7327 22.5548 12.2703 22.152 10.9998 21.3993L10.6977 21.2219L7.55733 22.0466L8.39637 18.9877L8.19979 18.676C7.37034 17.3575 6.92925 15.8281 6.92925 14.2603C6.92925 9.68629 10.6546 5.96575 15.2286 5.96575C17.4436 5.96575 19.5292 6.82876 21.0923 8.39657C22.6601 9.96438 23.5231 12.05 23.5183 14.2651C23.5135 18.8342 19.7929 22.5548 15.2238 22.5548ZM19.7738 16.3459C19.5245 16.2212 18.2971 15.6171 18.0717 15.5356C17.8416 15.4541 17.6786 15.411 17.5108 15.6603C17.3429 15.9096 16.8683 16.4705 16.7197 16.6383C16.5758 16.8062 16.4272 16.8253 16.1779 16.7007C15.9286 16.576 15.1231 16.3123 14.1738 15.4637C13.4306 14.802 12.932 13.987 12.7882 13.7377C12.6443 13.4883 12.7738 13.3541 12.8984 13.2294C13.0087 13.1192 13.1477 12.937 13.2724 12.7931C13.3971 12.6493 13.4402 12.5438 13.5217 12.376C13.6032 12.2082 13.5649 12.0644 13.5025 11.9397C13.4402 11.8151 12.9416 10.5877 12.7354 10.089C12.534 9.60479 12.3279 9.66712 12.1745 9.66232C12.0306 9.65273 11.8628 9.65273 11.695 9.65273C11.5272 9.65273 11.2587 9.71506 11.0286 9.96438C10.7984 10.2137 10.156 10.8178 10.156 12.0452C10.156 13.2726 11.0477 14.4568 11.1724 14.6247C11.2971 14.7925 12.932 17.3096 15.4347 18.3883C16.0292 18.6473 16.4943 18.8007 16.8587 18.9157C17.458 19.1075 17.9998 19.0788 18.4313 19.0164C18.9108 18.9445 19.908 18.4123 20.1142 17.8322C20.3203 17.252 20.3203 16.7486 20.258 16.6479C20.1861 16.5329 20.0231 16.4705 19.7738 16.3459Z" fill="white"/>
</g>
<defs>
<linearGradient id="paint0_linear_259_6873" x1="14.9181" y1="28.5021" x2="14.9181" y2="0.5" gradientUnits="userSpaceOnUse">
<stop stop-color="#25CF43"/>
<stop offset="1" stop-color="#61FD7D"/>
</linearGradient>
<clipPath id="clip0_259_6873">
<rect width="28" height="28" fill="white" transform="translate(0.916992 0.5)"/>
</clipPath>
</defs>
</svg>
