<svg width="17" height="18" viewBox="0 0 17 18" fill="none" xmlns="http://www.w3.org/2000/svg">
<path d="M8.85729 0.875C7.25031 0.875 5.67943 1.35152 4.34328 2.24431C3.00713 3.1371 1.96573 4.40605 1.35077 5.8907C0.735805 7.37535 0.574903 9.00901 0.888408 10.5851C1.20191 12.1612 1.97574 13.6089 3.11205 14.7452C4.24835 15.8815 5.69608 16.6554 7.27218 16.9689C8.84828 17.2824 10.4819 17.1215 11.9666 16.5065C13.4512 15.8916 14.7202 14.8502 15.613 13.514C16.5058 12.1779 16.9823 10.607 16.9823 9C16.98 6.84581 16.1233 4.78051 14.6 3.25727C13.0768 1.73403 11.0115 0.877275 8.85729 0.875ZM11.7995 11.0578C11.8575 11.1159 11.9036 11.1848 11.935 11.2607C11.9665 11.3366 11.9826 11.4179 11.9826 11.5C11.9826 11.5821 11.9665 11.6634 11.935 11.7393C11.9036 11.8152 11.8575 11.8841 11.7995 11.9422C11.7414 12.0003 11.6725 12.0463 11.5966 12.0777C11.5207 12.1092 11.4394 12.1253 11.3573 12.1253C11.2752 12.1253 11.1938 12.1092 11.118 12.0777C11.0421 12.0463 10.9732 12.0003 10.9151 11.9422L8.85729 9.88359L6.79948 11.9422C6.74141 12.0003 6.67247 12.0463 6.5966 12.0777C6.52073 12.1092 6.43941 12.1253 6.35729 12.1253C6.27517 12.1253 6.19385 12.1092 6.11798 12.0777C6.04211 12.0463 5.97317 12.0003 5.9151 11.9422C5.85703 11.8841 5.81097 11.8152 5.77954 11.7393C5.74812 11.6634 5.73194 11.5821 5.73194 11.5C5.73194 11.4179 5.74812 11.3366 5.77954 11.2607C5.81097 11.1848 5.85703 11.1159 5.9151 11.0578L7.97369 9L5.9151 6.94219C5.79782 6.82491 5.73194 6.66585 5.73194 6.5C5.73194 6.33415 5.79782 6.17509 5.9151 6.05781C6.03238 5.94054 6.19144 5.87465 6.35729 5.87465C6.52314 5.87465 6.6822 5.94054 6.79948 6.05781L8.85729 8.11641L10.9151 6.05781C10.9732 5.99974 11.0421 5.95368 11.118 5.92225C11.1938 5.89083 11.2752 5.87465 11.3573 5.87465C11.4394 5.87465 11.5207 5.89083 11.5966 5.92225C11.6725 5.95368 11.7414 5.99974 11.7995 6.05781C11.8575 6.11588 11.9036 6.18482 11.935 6.26069C11.9665 6.33656 11.9826 6.41788 11.9826 6.5C11.9826 6.58212 11.9665 6.66344 11.935 6.73931C11.9036 6.81518 11.8575 6.88412 11.7995 6.94219L9.74088 9L11.7995 11.0578Z" fill="#999999"/>
</svg>
